<?xml version="1.0" encoding="utf-8"?>
<!-- Generator: Adobe Illustrator 13.0.0, SVG Export Plug-In  -->
<!DOCTYPE svg PUBLIC "-//W3C//DTD SVG 1.1//EN" "http://www.w3.org/Graphics/SVG/1.1/DTD/svg11.dtd" [
	<!ENTITY ns_flows "http://ns.adobe.com/Flows/1.0/">
]>
<svg version="1.1"
	 xmlns="http://www.w3.org/2000/svg" xmlns:xlink="http://www.w3.org/1999/xlink" xmlns:a="http://ns.adobe.com/AdobeSVGViewerExtensions/3.0/"
	 x="0px" y="0px" width="1001px" height="1001px" viewBox="0.001 0 1001 1001" enable-background="new 0.001 0 1001 1001"
	 xml:space="preserve">
<defs>
</defs>
<path display="none" fill="#FFFFFF" d="M467.535,0c0,0.312,0,0.624,0,0.935C354.142,8.411,265.487,49.573,193.561,103.792
	c-8.19,6.174-15.88,14.977-24.312,22.442C110.492,178.252,63.086,242.15,32.729,319.792C15.694,363.361,4.308,412.104,0.937,467.533
	c-0.312,0-0.624,0-0.935,0c0-155.842,0-311.693,0-467.533C155.844,0,311.694,0,467.535,0z"/>
<path fill="#EFA506" d="M467.535,0.935c0-0.312,0-0.624,0-0.935c3.117,0,6.231,0,9.351,0C475.589,2.132,470.377,0.349,467.535,0.935
	z"/>
<path fill="#EFA506" d="M521.769,0c3.116,0,6.233,0,9.353,0c0,0.312,0,0.624,0,0.935C528.276,0.349,523.063,2.132,521.769,0z"/>
<path display="none" fill="#FFFFFF" d="M531.119,0.935c0-0.312,0-0.624,0-0.935c156.469,0,312.93,0,469.401,0
	c0,333.514,0,667.001,0,1000.52c-333.516,0-667.002,0-1000.521,0c0-156.469,0-312.931,0-469.4c0.312,0,0.624,0,0.935,0
	c3.537,56.498,14.713,106.748,32.727,150.545c53.479,130.014,145.846,222.564,271.17,278.648
	c83.679,37.445,211.96,52.479,313.247,25.246c97.104-26.107,172.56-70.638,234.701-132.777
	c62.383-62.385,105.859-136.398,132.777-233.769c36.333-131.427-0.849-287.494-56.104-374.025
	c-24.115-37.764-49.822-71.727-80.416-102.857c-15.117-15.382-32.491-30.114-49.561-42.078
	C727.951,49.911,644.584,6.399,531.119,0.935z"/>
<path fill="#EFA506" d="M864.002,325.403c13.824,1.012,52.802-21.998,65.455-6.546c5.173,6.318,5.301,21.267,7.479,30.857
	c2.452,10.792,3.524,21.042,7.48,29.922c4.945,31.018,14.169,65.865,21.506,100.987c2.124,10.167,6.205,25.273-0.935,31.792
	c-5.492,5.014-21.583,5.502-30.857,7.479c-11.394,2.431-20.58,4.703-29.922,7.479c-5.198,33.327-6.857,64.786-16.831,94.441
	c-36.01,107.076-104.494,187.303-197.298,238.442c-43.197,23.807-96.795,41.044-155.221,45.818
	c-128.121,10.469-230.946-37.92-301.091-97.247c-35.821-30.297-63.975-68.649-89.766-111.272
	c-9.665,2.981-20.176,5.664-32.727,8.415c-9.198,2.019-26.346,5.925-32.728-1.87c-3.6-4.396-4.808-18.309-6.545-26.182
	c-9.532-43.183-19.962-87.954-29.922-134.648c-2.647-12.41-6.573-24.719,1.87-33.661c15.604-5.278,35.25-6.519,51.428-11.223
	c-0.069-51.534,8.972-99.302,24.312-137.455c33.415-83.11,84.177-144.465,153.351-193.559c4.809-3.413,9.625-7.267,14.961-10.286
	c49.775-28.156,110.768-52.902,185.143-57.974c58.76-4.006,124.302,6.729,169.247,25.247c27.373,11.277,54.955,23.342,76.678,38.337
	C782.787,206.694,830.168,258.661,864.002,325.403z M788.262,241.247c-22.563-25.078-49.271-49.174-79.479-67.325
	c-60.53-36.37-134.543-66.553-232.831-60.779c-37.038,2.175-79.544,9.979-110.338,22.441c-10.765,4.355-21.975,8.293-31.792,13.091
	C241.399,193.828,174.055,268.44,134.651,361.87c-11.965,39.464-26.639,81.205-23.376,132.779
	c35.44-8.819,72.179-16.343,108.467-24.313c12.183-103.632,71.184-174.14,148.675-218.806
	c56.831-32.757,151.908-42.222,224.416-16.831c5.695,1.995,11.67,5.945,17.767,8.416c57.104,23.147,94.97,63.842,129.039,110.338
	c36.073-8.498,72.515-16.63,108.468-25.247C831.518,296.442,811.529,267.109,788.262,241.247z M589.093,249.662
	c-14.139-5.338-31.768-7.872-49.559-11.221c-18.03-3.394-38.616-5.954-57.039-3.74c-76.031,9.137-127.813,35.841-169.247,77.61
	c-38.31,38.619-68.719,86.565-77.61,153.351c163.109-35.44,325.23-71.858,486.234-109.402
	C692.535,311.309,645.978,271.138,589.093,249.662z M53.301,522.701c11.165,58.341,25.809,113.205,37.402,171.117
	c289.289-63.237,575.971-129.066,864-193.561c-9.226-50.882-23.711-102.003-33.662-150.545c-1.508-7.353-0.737-17.646-6.546-20.571
	C627.28,393.497,340.346,458.174,53.301,522.701z M774.235,556.363c-20.729,94.229-81.842,165.877-165.508,202.908
	c-61.255,27.111-154.838,28.192-218.806,0.937c-4.142-1.765-8.688-5.271-13.091-7.479c-10.928-5.485-18.055-9.375-27.117-14.962
	c-13.556-8.354-25.033-17.065-35.533-27.115c-16.281-11.771-26.514-29.592-42.078-42.078
	c-36.757,9.062-73.783,17.854-112.208,25.247c44.732,82.25,120.652,144.689,216.935,179.53
	c67.039,24.261,169.021,24.247,239.377,1.87c14.445-4.595,29.923-9.501,43.013-15.896
	c123.191-60.188,211.479-163.918,229.091-327.272c-0.053-0.568-0.14-1.104-0.935-0.935
	C848.492,538.361,812.299,548.296,774.235,556.363z M291.742,664.831c34.879,44.447,83.598,80.329,149.608,94.44
	c61.198,13.084,124.045,4.461,170.184-18.7c71.257-35.771,119.552-90.438,143.063-171.117c0.57-1.956,5.841-7.947,0.937-9.353
	C601.467,595.539,446.101,629.685,291.742,664.831z"/>
<path fill="#4D4D4D" d="M848.104,328.208c-35.952,8.616-72.394,16.749-108.467,25.247c-34.069-46.496-71.937-87.191-129.039-110.338
	c-6.097-2.471-12.069-6.421-17.767-8.416c-72.508-25.391-167.584-15.926-224.416,16.831
	c-77.491,44.666-136.493,115.173-148.675,218.806c-36.289,7.971-73.027,15.492-108.467,24.313
	c-3.263-51.574,11.412-93.315,23.376-132.779c39.404-93.43,106.748-168.042,199.169-213.195c9.817-4.797,21.027-8.735,31.792-13.091
	c30.793-12.462,73.3-20.266,110.338-22.441c98.288-5.774,172.301,24.409,232.831,60.779c30.208,18.151,56.918,42.247,79.479,67.325
	C811.529,267.109,831.518,296.442,848.104,328.208z"/>
<path fill="#4D4D4D" d="M721.872,356.26c-161.004,37.544-323.125,73.962-486.234,109.402c8.892-66.785,39.3-114.732,77.61-153.351
	c41.436-41.769,93.216-68.473,169.247-77.61c18.423-2.214,39.008,0.346,57.039,3.74c17.791,3.349,35.42,5.883,49.559,11.221
	C645.978,271.138,692.535,311.309,721.872,356.26z M436.677,290.805c-5.938,1.542-11.271,3.689-16.831,5.61
	c1.758,8.215,12.588,7.36,14.961,14.961c0,6.545,0,13.091,0,19.637c9.188-0.474,10.415-8.91,17.768-11.221
	c7.313,1.103,10.956,5.876,18.702,6.546c0.527-9.568-5.422-12.658-5.61-21.507c4.597-4.442,8.464-9.614,11.221-15.896
	c-4.823-2.033-13.294-0.42-19.637-0.935c-4.616-5.358-6.715-13.233-13.091-16.831C441.82,277.87,440.998,286.087,436.677,290.805z
	 M489.041,339.429c-5.849,1.32-10.718,3.62-16.831,4.675c2.193,7.78,10.677,9.271,14.961,14.961c0,6.545,0,13.091,0,19.636
	c7.723-1.628,11.041-7.661,17.768-10.286c5.552,2.241,11.258,4.327,17.767,5.61c0.928-8.516-5.263-13.396-4.675-19.636
	c0.73-7.784,9.695-9.478,11.221-17.766c-5.124-2.045-13.927-0.412-20.571-0.935c-4.831-5.144-5.345-14.604-13.091-16.832
	C493.287,325.597,492.357,333.706,489.041,339.429z M411.431,357.195c-7.36,0.43-11.438,4.145-18.702,4.675
	c1.539,8.436,11.335,8.613,14.962,14.961c1.146,6.334-2.356,17.318,1.869,20.572c5.871-3.168,9.499-8.58,15.896-11.221
	c6.47,1.634,11.339,4.869,18.701,5.61c-0.79-7.625-2.673-14.158-5.61-19.636c3.965-5.385,8.042-10.66,11.221-16.831
	c-4.822-2.033-13.294-0.42-19.636-0.935c-3.188-7.098-7.727-12.845-13.091-17.766C415.618,343.928,412.918,349.954,411.431,357.195z
	"/>
<path fill="#EFA506" d="M444.158,271.169c6.376,3.598,8.475,11.473,13.091,16.831c6.342,0.515,14.813-1.098,19.637,0.935
	c-2.757,6.282-6.624,11.454-11.221,15.896c0.188,8.849,6.139,11.938,5.61,21.507c-7.746-0.67-11.391-5.443-18.702-6.546
	c-7.354,2.311-8.578,10.747-17.768,11.221c0-6.545,0-13.091,0-19.637c-2.373-7.601-13.203-6.746-14.961-14.961
	c5.562-1.921,10.895-4.068,16.831-5.61C440.998,286.087,441.82,277.87,444.158,271.169z"/>
<path fill="#EFA506" d="M495.586,318.857c7.747,2.228,8.26,11.688,13.091,16.832c6.646,0.523,15.447-1.11,20.571,0.935
	c-1.523,8.289-10.488,9.982-11.221,17.766c-0.589,6.24,5.603,11.12,4.675,19.636c-6.509-1.283-12.215-3.37-17.768-5.61
	c-6.726,2.625-10.044,8.658-17.767,10.286c0-6.545,0-13.091,0-19.636c-4.284-5.69-12.768-7.181-14.961-14.961
	c6.113-1.056,10.981-3.355,16.831-4.675C492.357,333.706,493.287,325.597,495.586,318.857z"/>
<path fill="#4D4D4D" d="M914.495,329.143c5.809,2.925,5.038,13.218,6.546,20.571c9.951,48.542,24.438,99.663,33.662,150.545
	c-288.029,64.492-574.711,130.321-864,193.561c-11.594-57.913-26.237-112.777-37.402-171.118
	C340.346,458.174,627.28,393.497,914.495,329.143z"/>
<path fill="#EFA506" d="M417.041,336.624c5.364,4.921,9.903,10.668,13.091,17.766c6.342,0.515,14.813-1.098,19.636,0.935
	c-3.179,6.171-7.255,11.446-11.221,16.831c2.938,5.479,4.82,12.011,5.61,19.636c-7.362-0.741-12.231-3.976-18.701-5.61
	c-6.397,2.642-10.025,8.053-15.896,11.221c-4.227-3.254-0.724-14.237-1.869-20.572c-3.627-6.348-13.423-6.525-14.962-14.961
	c7.264-0.531,11.342-4.245,18.702-4.675C412.918,349.954,415.618,343.928,417.041,336.624z"/>
<path fill="#EFA506" d="M0.002,467.533c0.312,0,0.624,0,0.935,0c-0.586,2.842,1.197,8.054-0.935,9.351
	C0.002,473.766,0.002,470.649,0.002,467.533z"/>
<path fill="#EFA506" d="M0.002,521.767c2.132,1.298,0.349,6.51,0.935,9.353c-0.312,0-0.624,0-0.935,0
	C0.002,528,0.002,524.883,0.002,521.767z"/>
<path fill="#4D4D4D" d="M887.379,531.117c0.795-0.172,0.882,0.364,0.937,0.935c-17.614,163.354-105.899,267.086-229.093,327.272
	c-13.09,6.396-28.565,11.302-43.013,15.896c-70.354,22.377-172.338,22.391-239.377-1.87
	c-96.283-34.841-172.203-97.28-216.935-179.53c38.425-7.396,75.451-16.188,112.208-25.247
	c15.564,12.486,25.796,30.308,42.078,42.078c10.5,10.05,21.979,18.761,35.533,27.115c9.063,5.586,16.188,9.477,27.117,14.961
	c4.403,2.211,8.949,5.718,13.091,7.48c63.967,27.258,157.551,26.177,218.807-0.936c83.666-37.032,144.775-108.682,165.507-202.909
	C812.299,548.296,848.492,538.361,887.379,531.117z"/>
<path fill="#4D4D4D" d="M755.534,560.104c4.905,1.403-0.364,7.396-0.937,9.353c-23.514,80.682-71.809,135.346-143.063,171.117
	c-46.138,23.161-108.983,31.785-170.184,18.701c-66.012-14.112-114.729-49.994-149.608-94.441
	C446.101,629.685,601.467,595.539,755.534,560.104z M547.95,634.909c-6.161,1.941-14.08,2.128-17.769,6.545
	c2.544,6.807,11.103,7.601,14.961,13.092c0,6.856,0,13.714,0,20.571c8.333-1.33,10.609-8.716,17.769-11.223
	c5.911,2.192,12.095,4.112,17.767,6.547c-0.146-8.269-3.382-13.45-4.676-20.571c2.808-6.543,8.266-10.438,11.221-16.831
	c-5.124-2.045-13.926-0.412-20.569-0.938c-4.271-5.703-5.354-14.596-13.093-16.83C551.491,621.619,550.02,628.563,547.95,634.909z
	 M469.405,652.676c-8.283-0.18-10.419,5.789-18.702,5.61c2.432,7.542,11.781,8.167,14.961,14.961c0,6.545,0,13.091,0,19.636
	c9.068-0.593,10.979-8.345,17.766-11.221c6.762,1.656,10.585,6.246,18.701,6.546c0.161-8.577-3.892-12.939-4.675-20.571
	c2.798-6.239,8.239-9.839,10.286-16.831c-4.824-2.031-13.294-0.421-19.636-0.936c-4.183-5.793-6.881-13.068-13.093-16.831
	C473.137,639.577,471.449,646.305,469.405,652.676z M520.833,699.429c-5.716,1.452-10.647,3.69-16.831,4.675
	c1.955,8.331,12.327,8.245,14.961,15.896c0,6.233,0,12.468,0,18.701c8.078-1.272,10.983-7.718,17.769-10.285
	c6.473,1.631,11.188,5.017,18.699,5.61c-1.046-7.684-4.674-12.781-5.608-20.572c2.544-6.806,9.861-8.837,11.221-16.831
	c-4.824-2.033-13.294-0.42-19.637-0.936c-5.789-4.186-6.264-13.688-13.091-16.83C526.142,686.036,523.664,692.909,520.833,699.429z"
	/>
<path fill="#EFA506" d="M553.561,615.271c7.738,2.234,8.822,11.127,13.093,16.83c6.646,0.523,15.445-1.107,20.569,0.938
	c-2.955,6.396-8.413,10.288-11.221,16.831c1.294,7.121,4.527,12.305,4.676,20.571c-5.672-2.435-11.854-4.354-17.767-6.547
	c-7.157,2.507-9.436,9.893-17.769,11.223c0-6.857,0-13.715,0-20.571c-3.858-5.491-12.417-6.285-14.961-13.092
	c3.688-4.417,11.605-4.604,17.769-6.545C550.02,628.563,551.491,621.619,553.561,615.271z"/>
<path fill="#EFA506" d="M475.015,633.039c6.211,3.763,8.91,11.038,13.092,16.831c6.343,0.515,14.813-1.099,19.637,0.936
	c-2.047,6.992-7.488,10.591-10.286,16.831c0.783,7.632,4.836,11.994,4.675,20.571c-8.116-0.3-11.94-4.89-18.701-6.546
	c-6.787,2.876-8.696,10.628-17.766,11.221c0-6.545,0-13.091,0-19.636c-3.18-6.794-12.53-7.419-14.961-14.961
	c8.283,0.179,10.419-5.79,18.702-5.61C471.449,646.305,473.137,639.577,475.015,633.039z"/>
<path fill="#EFA506" d="M528.313,678.857c6.828,3.145,7.303,12.646,13.092,16.83c6.343,0.516,14.813-1.1,19.637,0.936
	c-1.357,7.994-8.677,10.025-11.221,16.831c0.937,7.791,4.563,12.891,5.608,20.572c-7.511-0.596-12.229-3.979-18.7-5.61
	c-6.782,2.567-9.688,9.013-17.768,10.285c0-6.233,0-12.468,0-18.701c-2.634-7.651-13.006-7.565-14.961-15.896
	c6.184-0.982,11.115-3.223,16.831-4.675C523.664,692.909,526.142,686.036,528.313,678.857z"/>
<path fill="#4D4D4D" d="M531.119,0.935c113.465,5.464,196.832,48.976,268.362,99.117c17.066,11.964,34.44,26.696,49.56,42.078
	c30.594,31.13,56.301,65.093,80.416,102.857c55.255,86.532,92.437,242.599,56.104,374.026
	c-26.918,97.368-70.396,171.384-132.777,233.769c-62.144,62.142-137.6,106.67-234.701,132.777
	c-101.287,27.233-229.568,12.199-313.247-25.245C179.51,904.229,87.143,811.677,33.665,681.663
	c-18.014-43.797-29.19-94.047-32.727-150.545c-0.586-2.843,1.197-8.055-0.935-9.353c0-14.961,0-29.922,0-44.883
	c2.132-1.296,0.349-6.509,0.935-9.351c3.371-55.429,14.757-104.171,31.792-147.741c30.357-77.642,77.763-141.54,136.52-193.558
	c8.432-7.465,16.122-16.268,24.312-22.442c71.925-54.218,160.58-95.38,273.973-102.856c2.842-0.586,8.054,1.197,9.351-0.935
	c14.961,0,29.922,0,44.883,0C523.063,2.132,528.276,0.349,531.119,0.935z M719.067,162.701
	c-21.723-14.996-49.305-27.06-76.678-38.337c-44.944-18.518-110.486-29.253-169.247-25.247
	c-74.375,5.072-135.366,29.818-185.143,57.974c-5.336,3.019-10.152,6.873-14.961,10.286
	c-69.173,49.093-119.936,110.449-153.351,193.559c-15.34,38.152-24.381,85.92-24.312,137.455
	c-16.179,4.704-35.824,5.942-51.428,11.223c-8.443,8.942-4.518,21.251-1.87,33.662c9.96,46.693,20.39,91.467,29.922,134.647
	c1.738,7.873,2.946,21.786,6.545,26.183c6.382,7.795,23.529,3.888,32.728,1.869c12.551-2.751,23.063-5.434,32.727-8.415
	c25.792,42.623,53.945,80.978,89.766,111.272c70.145,59.327,172.97,107.716,301.09,97.247
	c58.427-4.774,112.022-22.014,155.222-45.818c92.804-51.141,161.288-131.366,197.299-238.439
	c9.974-29.655,11.633-61.114,16.831-94.441c9.342-2.774,18.528-5.051,29.922-7.479c9.274-1.979,25.365-2.469,30.857-7.48
	c7.14-6.52,3.059-21.626,0.935-31.792c-7.337-35.122-16.561-69.97-21.506-100.987c-3.956-8.879-5.028-19.13-7.48-29.922
	c-2.18-9.59-2.308-24.539-7.479-30.857c-12.653-15.452-51.631,7.558-65.455,6.546C830.168,258.661,782.787,206.694,719.067,162.701z
	"/>
<path fill="#EFA506" d="M156.831,608.248l-3.396-15.307l39.538-8.77l8.026,36.19c-3.018,4.568-7.859,9.08-14.522,13.524
	c-6.665,4.446-13.736,7.5-21.213,9.158c-9.504,2.107-18.228,1.952-26.177-0.469c-7.949-2.42-14.522-6.943-19.72-13.571
	c-5.199-6.627-8.764-14.301-10.697-23.019c-2.098-9.46-1.979-18.309,0.355-26.541c2.335-8.232,6.889-15.16,13.662-20.779
	c5.156-4.308,12.072-7.424,20.748-9.349c11.279-2.501,20.612-2.091,28.005,1.231c7.391,3.324,12.92,8.959,16.589,16.9l-17.464,7.448
	c-2.271-4.18-5.457-7.166-9.563-8.967c-4.105-1.798-8.802-2.109-14.09-0.938c-8.016,1.777-13.824,5.731-17.428,11.861
	c-3.604,6.131-4.297,14.193-2.079,24.191c2.392,10.783,6.581,18.34,12.569,22.668c5.988,4.328,12.865,5.631,20.633,3.908
	c3.842-0.852,7.527-2.459,11.056-4.824c3.529-2.363,6.438-4.928,8.73-7.688l-2.557-11.526L156.831,608.248z"/>
<path fill="#EFA506" d="M200.422,538.309l18.344-4.066l10.912,49.205c1.732,7.809,3.08,12.816,4.049,15.029
	c1.609,3.547,4.142,6.115,7.595,7.713c3.452,1.598,7.741,1.824,12.864,0.689c5.205-1.155,8.895-3.088,11.066-5.803
	s3.184-5.682,3.033-8.898c-0.15-3.217-1.022-8.421-2.617-15.607l-11.146-50.259l18.344-4.067l10.583,47.717
	c2.418,10.906,3.631,18.723,3.639,23.445c0.007,4.723-0.979,8.93-2.955,12.619c-1.979,3.688-4.993,6.947-9.048,9.773
	c-4.055,2.828-9.676,5.04-16.864,6.635c-8.676,1.926-15.478,2.383-20.404,1.371c-4.928-1.01-9.047-2.824-12.36-5.449
	c-3.313-2.623-5.771-5.604-7.377-8.932c-2.353-4.938-4.655-12.491-6.91-22.652L200.422,538.309z"/>
<path fill="#EFA506" d="M394.274,590.633l-19.954,4.426l-12.511-18.877l-36.313,8.057l-2.922,22.299l-19.459,4.314l15.236-98.695
	l19.396-4.304L394.274,590.633z M352.529,562.181l-19.995-30.937l-4.793,36.434L352.529,562.181z"/>
<path fill="#EFA506" d="M404.066,588.462l-20.148-90.849l38.607-8.563c9.708-2.153,16.942-2.9,21.704-2.246
	c4.764,0.657,8.93,2.777,12.497,6.364c3.568,3.587,5.95,8.065,7.143,13.435c1.513,6.816,0.756,12.893-2.268,18.223
	c-3.021,5.33-8.393,9.459-16.107,12.383c4.479,1.435,8.315,3.25,11.513,5.443c3.195,2.193,7.77,6.34,13.714,12.434l15.023,15.264
	l-21.938,4.865l-17.646-16.828c-6.276-6.02-10.486-9.756-12.63-11.211c-2.144-1.451-4.263-2.305-6.354-2.557
	c-2.094-0.25-5.246,0.091-9.46,1.023l-3.719,0.824l8.411,37.927L404.066,588.462z M410.782,531.967l13.569-3.01
	c8.803-1.952,14.214-3.543,16.237-4.771c2.024-1.229,3.455-2.891,4.292-4.982c0.836-2.092,0.951-4.502,0.347-7.229
	c-0.678-3.057-2.041-5.344-4.09-6.86c-2.05-1.519-4.614-2.194-7.7-2.031c-1.531,0.124-6.018,1.011-13.453,2.659l-14.314,3.175
	L410.782,531.967z"/>
<path fill="#EFA506" d="M577.585,549.979l-19.955,4.428l-12.509-18.877l-36.315,8.055l-2.921,22.299l-19.459,4.315l15.236-98.697
	l19.396-4.302L577.585,549.979z M535.839,521.525l-19.995-30.937l-4.793,36.435L535.839,521.525z"/>
<path fill="#EFA506" d="M587.5,547.779l-20.148-90.851l17.85-3.958l50.638,52.423l-13.455-60.669l17.042-3.777l20.148,90.848
	l-18.405,4.082l-49.766-51.121L604.542,544L587.5,547.779z"/>
<path fill="#EFA506" d="M699.419,522.959l-16.739-75.481l-26.957,5.979l-3.408-15.369l72.195-16.012l3.408,15.369l-26.896,5.965
	l16.738,75.479L699.419,522.959z"/>
<path fill="#EFA506" d="M756.494,510.301l-20.148-90.85l67.362-14.939l3.409,15.369l-49.021,10.872l4.467,20.141l45.611-10.114
	l3.396,15.307l-45.61,10.116l5.483,24.727l50.754-11.256l3.395,15.308L756.494,510.301z"/>
<path fill="#EFA506" d="M841.147,491.526L821,400.676l67.362-14.94l3.408,15.371l-49.021,10.869l4.467,20.143l45.611-10.115
	l3.395,15.307l-45.608,10.115l5.481,24.729l50.754-11.257l3.396,15.308L841.147,491.526z"/>
<path display="none" fill="#EFA506" d="M184.015,456.056c-15.831-18.106-31.661-36.218-47.49-54.328
	c5.77-10.27,8.363-15.187,13.181-24.625c12.695,8.536,25.009,17.404,37.135,26.73c-8.28-17.715-16.298-35.552-24.042-53.508
	c4.024-8.532,5.884-12.607,9.513-20.415c13.653,21.347,27.308,42.692,40.962,64.039c-1.702,4.158-2.577,6.294-4.426,10.694
	c-11.101-16.348-22.204-32.692-33.305-49.042c9.084,20.491,18.457,40.829,28.134,61.046c-2.147,4.844-3.28,7.335-5.722,12.468
	c-14.023-10.863-28.328-21.127-43.117-30.921c12.15,14.79,24.299,29.579,36.45,44.368
	C188.575,447.813,187.13,450.511,184.015,456.056z"/>
<path display="none" fill="#EFA506" d="M197.156,352.993c-4.053-6.667-7.073-13.152-8.965-19.48
	c-1.397-4.675-2.331-9.526-2.799-14.507c-0.468-4.979-0.384-9.486,0.219-13.453c0.805-5.298,2.417-10.207,4.875-14.543
	c4.448-7.849,10.291-10.572,15.881-7.992c8.666,4,12.83,13.394,16.816,21.697c4.793,9.984,7.741,21.607,8.494,32.994
	c0.675,10.202-0.568,18.306-3.81,24.958c-3.283,6.735-7.393,9.421-12.859,7.916C209.543,369.079,203.49,363.411,197.156,352.993z
	 M202.111,341.028c4.329,7.611,8.248,11.982,11.658,13.317c3.411,1.336,5.972,0.125,7.857-3.628
	c1.885-3.753,2.468-8.723,1.808-15.131c-0.661-6.408-2.865-13.764-6.793-22.051c-3.882-8.189-7.538-13.159-10.996-14.735
	c-3.458-1.575-6.472-0.237-8.872,4.083c-2.401,4.32-3.228,9.934-2.463,16.581C195.076,326.111,197.714,333.295,202.111,341.028z"/>
<path display="none" fill="#EFA506" d="M243.971,334.955c-10.282-24.642-20.561-49.285-30.84-73.928
	c3.124-3.432,4.767-5.094,8.273-8.329c13.029,11.516,25.522,23.583,37.908,35.781c-5.708-17.218-11.417-34.436-17.123-51.654
	c4.322-2.74,6.605-4.073,11.471-6.672c7.992,26.084,15.99,52.167,23.982,78.252c-4.534,2.435-6.629,3.68-10.542,6.245
	c-11.735-12.068-23.568-24.021-35.913-35.47c6.359,16.318,12.719,32.636,19.077,48.954
	C247.572,330.789,246.325,332.151,243.971,334.955z"/>
<path display="none" fill="#EFA506" d="M290.474,301.718c-7.329-26.41-14.656-52.82-21.984-79.229
	c20.536-11.277,39.852-24.627,59.182-37.817c0.984,5.556,1.478,8.333,2.46,13.889c-14.207,9.806-28.415,19.614-43.107,28.687
	c1.773,7.104,2.66,10.658,4.434,17.763c13.243-8.256,26.095-17.127,38.854-26.106c1.008,5.525,1.51,8.287,2.517,13.813
	c-12.524,8.837-25.111,17.494-38,25.791c2.177,8.722,3.266,13.083,5.443,21.805c14.036-8.931,27.505-18.686,40.972-28.442
	c0.967,5.537,1.451,8.306,2.418,13.844C326.403,278.369,309.148,291.191,290.474,301.718z"/>
<path display="none" fill="#EFA506" d="M377.191,241.017c-1.385-11.68-2.771-23.358-4.152-35.038
	c-12.45-9.111-25.085-17.859-37.926-26.412c8.178-5.608,12.33-8.467,20.698-14.114c8.307,6.175,16.463,12.55,24.433,19.152
	c5.428-15.422,11.173-30.733,17.259-45.908c8.378-5,12.573-7.398,20.918-11.814c-10.202,22.326-19.686,44.89-28.56,67.775
	c1.085,11.688,2.173,23.375,3.259,35.063C386.725,234.151,383.531,236.432,377.191,241.017z"/>
<path display="none" fill="#EFA506" d="M459.438,108.961c11.416-3.278,21.896-5.504,33.692-6.836
	c6.452-0.378,11.104,0.215,14.106,1.055c3.004,0.84,5.591,2.4,7.763,4.581c2.171,2.182,3.819,4.952,5.006,8.158
	c1.188,3.206,1.592,6.562,1.212,10.068c-0.412,3.802-1.699,7.056-3.805,9.781c-2.106,2.726-8.058,5.625-8.058,5.625
	c-0.022,0.366,7.261,5.514,9.152,9.563c1.896,4.049,2.587,8.417,2.051,13.097c-0.422,3.685-1.571,7.08-3.379,10.204
	c-1.806,3.124-3.959,5.384-6.6,6.947c-2.644,1.563-5.782,2.366-9.493,2.614c-2.328,0.156-7.888-0.07-17.194,1.5
	c-9.843,1.582-14.946,3.125-25.341,7.192C458.853,164.66,459.145,136.811,459.438,108.961z M476.221,118.171
	c-0.271,7.691-0.411,11.538-0.684,19.229c4.25-0.963,6.354-1.347,10.509-1.889c6.176-0.806,9.9-0.888,11.369-1.086
	c2.657-0.358,4.773-1.236,6.394-2.754s2.543-3.563,2.768-6.209c0.214-2.533-0.256-4.667-1.437-6.358
	c-1.179-1.69-3.074-2.799-5.678-3.153c-1.547-0.21-6.039-0.433-13.745,0.576C481.956,117.02,480.055,117.353,476.221,118.171z
	 M475.045,151.241c-0.316,8.894-0.475,13.342-0.791,22.236c5.671-1.436,8.466-1.969,13.946-2.575
	c5.332-0.59,8.634-0.714,10.034-1.005c2.131-0.443,3.979-1.393,5.45-3.004c1.475-1.611,2.341-3.836,2.599-6.736
	c0.219-2.454-0.109-4.605-1.006-6.427c-0.896-1.82-2.314-3.209-4.271-4.08c-1.957-0.87-6.313-1.462-13.327-0.654
	C482.702,149.569,480.17,150.029,475.045,151.241z"/>
<path display="none" fill="#EFA506" d="M604.426,211.098c-7.896-2.449-11.813-3.611-19.502-5.825
	c-1.494-7.963-2.268-11.953-3.855-19.95c-11.231-3.146-22.479-6.201-33.756-9.178c-3.801,6.571-5.647,9.877-9.235,16.524
	c-6.481-1.655-9.604-2.439-15.522-3.938c12.794-25.004,27.057-48.856,42.819-72.099c7.634,2.104,11.559,3.21,19.553,5.541
	C592.046,151.689,598.58,181.301,604.426,211.098z M578.05,170.47c-2.156-10.923-4.368-21.83-6.633-32.73
	c-5.815,8.634-11.43,17.404-16.842,26.297C563.644,166.448,568.372,167.727,578.05,170.47z"/>
<path display="none" fill="#EFA506" d="M681.397,209.062c6.569,5.016,9.802,7.572,16.091,12.789
	c-5.604,6.469-12.146,10.152-19.713,11.207c-7.571,1.055-16.156-0.431-25.841-4.125c-10.809-4.124-20.69-11.125-26.938-21.039
	c-6.084-9.654-7.157-21.546-4.431-32.368c2.729-10.831,9.431-21.196,20.305-25.273c11.869-4.451,25.263-2.16,36.616,2.636
	c10.359,4.376,20.229,11.252,26.3,20.98c3.22,5.16,4.769,11.189,4.715,17.966c-7.888-2.377-11.885-3.479-19.923-5.518
	c0.189-4.277-1.123-8.324-3.993-12.11c-2.871-3.786-6.938-6.806-12.175-8.968c-7.236-2.989-13.767-3.304-19.44-1.014
	c-5.678,2.291-9.753,8.001-12.312,16.99c-2.715,9.54-2.497,17.09,0.556,22.659c3.055,5.57,7.904,9.582,14.599,12.209
	c4.935,1.938,9.56,2.408,13.935,1.405C674.118,216.483,677.995,213.691,681.397,209.062z"/>
<path display="none" fill="#EFA506" d="M704.209,251.305c9.43-23.38,18.87-46.755,28.299-70.136
	c7.366,4.211,10.978,6.396,17.97,10.939c-4.425,10.162-8.849,20.325-13.272,30.486c15.401-2.652,30.63-4.596,46.216-5.761
	c8.063,7.07,11.852,10.767,18.771,18.522c-13.1-0.788-26.252-0.519-39.323,0.577c3.039,21.259,4.846,42.328,5.278,63.801
	c-5.761-6.589-8.945-9.729-15.777-15.73c-0.79-15.609-2.369-31.174-4.614-46.64c-7.19,0.868-10.826,1.402-18.137,2.652
	c-3.613,8.298-5.42,12.447-9.033,20.745C714.223,256.827,710.936,254.938,704.209,251.305z"/>
<path fill="#EFA506" d="M191.54,434.26c-19.284-5.705-38.569-11.407-57.854-17.107c2.732-9.243,5.79-18.391,9.172-27.416
	c14.753-0.315,29.391-0.166,44.134,0.456c-10.641-10.218-20.924-20.669-30.979-31.464c4.802-10.092,7.366-15.004,12.783-24.554
	c17.453,10.031,34.908,20.059,52.36,30.091c-2.831,4.989-4.197,7.528-6.831,12.693c-14.072-7.278-28.145-14.553-42.215-21.834
	c11.327,12.414,23.182,24.347,35.532,35.743c-2.505,5.544-3.704,8.364-5.981,14.094c-16.759-1.064-33.569-1.319-50.354-0.769
	c14.954,5.193,29.909,10.389,44.863,15.583C194.204,425.484,193.278,428.382,191.54,434.26z"/>
<path fill="#EFA506" d="M202.059,337.994c-5.217-3.263-8.951-7.094-11.044-11.557c-1.547-3.3-2.397-7.093-2.518-11.33
	c-0.121-4.235,0.547-8.421,1.974-12.482c1.899-5.408,5.111-11.049,9.5-16.682c6.559-8.419,15.587-15.779,26.246-17.885
	c9.116-1.801,17.217,1.142,24.21,8.062c6.935,6.863,9.909,14.639,9.451,23.21c-0.458,8.572-4.24,16.762-10.812,25.271
	c-5.715,7.399-13.314,13.943-22.332,16.834C218.53,344.066,210.21,343.092,202.059,337.994z M211.085,323.417
	c5.619,3.903,11.064,5.105,16.308,3.847c5.243-1.258,9.665-4.28,13.473-9.104c3.808-4.824,5.686-9.761,5.646-15.063
	c-0.04-5.302-2.565-10.326-7.772-15.017c-5.146-4.635-10.369-6.582-15.71-5.629c-5.341,0.954-10.351,4.225-14.778,9.833
	c-4.427,5.608-6.493,11.336-6.226,16.888C202.294,314.724,205.377,319.451,211.085,323.417z"/>
<path fill="#EFA506" d="M280.189,289.2c-13.802-14.673-27.606-29.344-41.412-44.014c4.945-4.638,7.465-6.896,12.59-11.288
	c17.331,2.8,34.168,6.501,51.059,11.288c-7.82-10.938-15.637-21.88-23.456-32.82c5.221-3.699,7.868-5.492,13.225-8.961
	c11.016,16.851,22.034,33.701,33.053,50.55c-4.88,3.161-7.289,4.799-12.035,8.186c-15.899-5.155-32.186-9.098-48.671-11.847
	c8.59,9.937,17.186,19.869,25.778,29.804C286.2,283.644,284.172,285.464,280.189,289.2z"/>
<path fill="#EFA506" d="M338.279,245.944c-10.213-17.345-20.427-34.69-30.637-52.037c18.331-10.315,36.973-19.241,56.495-27.068
	c1.477,3.808,2.213,5.71,3.688,9.518c-13.797,5.544-27.152,11.585-40.425,18.288c2.509,4.729,3.763,7.094,6.271,11.824
	c11.759-6.173,23.856-11.699,36.215-16.56c1.5,3.78,2.25,5.671,3.75,9.451c-12.013,4.724-23.769,10.096-35.196,16.095
	c3.079,5.806,4.617,8.708,7.697,14.515c12.123-6.364,24.632-11.984,37.436-16.84c1.453,3.798,2.181,5.698,3.634,9.496
	C370.284,229.393,354.192,237.058,338.279,245.944z"/>
<path fill="#EFA506" d="M416.533,213.045c-2.714-9.788-4.071-14.681-6.785-24.469c-12.606-8.746-25.399-16.746-38.759-24.292
	c7.509-2.723,11.298-3.989,18.931-6.326c8.556,5.594,16.883,11.538,24.951,17.815c3.996-9.313,8.37-18.462,13.106-27.42
	c7.689-1.538,11.557-2.212,19.313-3.367c-8.178,13.018-15.638,26.167-22.576,39.886c2.274,9.865,3.411,14.797,5.687,24.663
	C424.825,210.82,422.05,211.522,416.533,213.045z"/>
<path fill="#EFA506" d="M486.213,141.164c11.301-0.375,22.468-0.428,33.772-0.164c6.689,0.258,11.669,0.812,14.917,1.462
	c3.248,0.651,6.101,1.747,8.539,3.261c2.438,1.515,4.379,3.425,5.813,5.708c1.435,2.283,1.962,4.726,1.628,7.313
	c-0.361,2.806-1.713,5.249-3.997,7.361s-8.664,4.437-8.664,4.437c-0.007,0.187,8.095,3.755,10.283,6.629s2.999,6.053,2.516,9.507
	c-0.381,2.72-1.541,5.255-3.43,7.629c-1.89,2.375-4.237,4.174-7.043,5.429c-2.808,1.255-6.124,1.888-9.979,1.938
	c-2.42,0.032-8.219-0.315-17.398-0.495c-9.712-0.249-14.572-0.192-24.256,0.274C488.013,181.357,487.113,161.26,486.213,141.164z
	 M503.268,150.762c0.003,5.583,0.003,8.374,0.008,13.957c4.193-0.019,6.293,0.001,10.488,0.103
	c6.238,0.151,10.119,0.315,11.645,0.264c2.756-0.093,4.962-0.66,6.634-1.733c1.672-1.073,2.603-2.573,2.769-4.516
	c0.158-1.86-0.403-3.431-1.707-4.698c-1.302-1.267-3.341-2.132-6.088-2.531c-1.634-0.237-6.372-0.605-14.2-0.768
	C508.994,150.76,507.085,150.745,503.268,150.762z M503.278,174.766c0.003,6.456,0.006,9.682,0.009,16.138
	c5.496-0.024,8.247,0.02,13.746,0.218c5.353,0.193,8.769,0.286,10.211,0.153c2.207-0.204,4.099-0.842,5.605-1.999
	c1.51-1.155,2.374-2.793,2.573-4.926c0.169-1.804-0.238-3.387-1.236-4.738s-2.532-2.398-4.604-3.122
	c-2.072-0.723-6.654-1.341-13.737-1.56C510.818,174.776,508.303,174.744,503.278,174.766z"/>
<path fill="#EFA506" d="M623.488,223.574c-5.981-2.369-8.993-3.475-15.054-5.527c-0.64-6.014-1.017-9.025-1.868-15.055
	c-9.579-3.03-19.294-5.631-29.106-7.783c-3.619,4.825-5.381,7.261-8.81,12.172c-6.05-1.211-9.084-1.743-15.164-2.661
	c12.878-18.758,26.724-36.334,41.885-53.299c7.104,1.716,10.646,2.663,17.688,4.729
	C617.979,178.513,621.445,200.767,623.488,223.574z M604.836,191.802c-1.511-9.819-2.405-14.737-4.47-24.569
	c-6.649,7.509-9.854,11.334-16.001,19.104C592.597,188.265,596.696,189.357,604.836,191.802z"/>
<path fill="#EFA506" d="M684.514,229.389c4.583,4.581,6.819,6.925,11.182,11.709c-5.677,4.111-11.598,6.021-17.796,5.895
	c-6.201-0.126-12.662-2.165-19.663-5.989c-8.662-4.731-14.657-10.626-18.279-18.272c-3.623-7.646-3.869-15.815-0.227-24.598
	c3.855-9.29,10.177-15.332,19.1-17.265c11.134-2.413,20.697,1.106,30.142,5.728c9.279,4.541,15.989,11.827,19.315,19.152
	c1.976,4.351,2.422,9.122,1.345,14.235c-6.342-2.918-9.521-4.283-15.895-6.836c0.771-3.201,0.246-6.424-1.622-9.631
	c-1.869-3.207-4.854-5.97-8.913-8.19c-5.61-3.068-10.97-3.981-15.885-2.821c-4.916,1.16-8.858,5.074-11.929,11.587
	c-3.257,6.912-3.938,12.593-2.213,17.058c1.728,4.465,4.993,7.94,9.894,10.613c3.611,1.971,7.189,2.836,10.821,2.583
	C677.522,234.094,681.061,232.457,684.514,229.389z"/>
<path fill="#EFA506" d="M696.326,264.199c11.92-16.218,23.847-32.431,35.767-48.649c5.896,4.385,8.809,6.661,14.553,11.379
	c-6.759,8.325-10.138,12.487-16.896,20.813c15.217,0.771,30.036,2.35,45.085,4.732c7.275,7.259,10.835,11.041,17.778,18.917
	c-13.559-3.566-27.087-6.719-40.979-8.705c0.056,16.669-0.983,33.346-3.155,49.874c-5.614-6.431-8.492-9.525-14.369-15.475
	c1.56-12.029,2.521-24.138,2.903-36.261c-6.839-0.68-10.225-0.914-16.917-1.189c-4.599,5.665-6.896,8.497-11.496,14.163
	C703.754,269.817,701.298,267.898,696.326,264.199z"/>
<path fill="#EFA506" d="M202.271,733.341c15.122-13.255,30.237-26.517,45.358-39.771c6.511,7.424,9.859,10.974,16.716,17.753
	c-6.091,13.368-11.753,26.817-17.064,40.517c12.953-6.762,25.592-13.864,38.1-21.417c7.246,6.031,10.946,8.887,18.471,14.285
	c-11.647,16.418-23.285,32.843-34.93,49.263c-5.525-3.964-8.259-6.02-13.66-10.271c9.729-12.502,19.453-25.008,29.179-37.515
	c-14.014,9.289-28.46,17.927-43.282,25.862c-5.451-4.723-8.14-7.159-13.438-12.195c6.316-15.678,13.295-31.091,20.937-46.168
	c-11.4,10.984-22.801,21.97-34.205,32.948C209.5,741.464,207.063,738.805,202.271,733.341z"/>
<path fill="#EFA506" d="M297.115,777.181c3.369-5.146,7.245-8.789,11.515-10.979c3.155-1.619,6.679-2.647,10.528-3.15
	c3.847-0.503,7.576-0.382,11.209,0.336c4.838,0.956,9.929,2.901,15.269,5.544c8.282,4.101,16.058,10.249,20.507,18.495
	c4.072,7.544,4.617,15.985,1.167,25.199c-3.421,9.138-9.496,15.164-18.471,17.362c-10.508,2.572-21.771-0.396-31.185-5.184
	c-9.6-4.879-18.833-12.319-23.186-22.442C290.755,793.719,291.851,785.226,297.115,777.181z M311.87,785.943
	c-3.466,5.896-4.231,11.499-2.086,16.777c2.145,5.279,6.355,9.616,12.518,12.746s12.048,3.945,17.44,2.534
	c5.392-1.411,9.399-5.432,12.164-11.873c2.729-6.365,2.937-11.881,0.806-16.578c-2.131-4.698-5.977-8.368-11.642-11.247
	c-5.666-2.879-10.974-3.839-16.126-2.805C319.789,776.534,315.392,779.951,311.87,785.943z"/>
<path fill="#EFA506" d="M369.754,845.438c6.389-19.104,12.773-38.209,19.155-57.313c5.427,1.804,8.152,2.643,13.632,4.195
	c5.954,16.004,13.263,31.271,21.214,46.362c2.514-13.21,5.027-26.419,7.54-39.629c5.307,0.987,7.967,1.424,13.297,2.188
	c-2.94,19.916-5.884,39.832-8.826,59.748c-6.821-0.979-10.229-1.542-17.02-2.83c-8.389-14.896-16.168-29.981-22.646-45.82
	c-3.636,12.622-7.277,25.242-10.916,37.863C378.986,848.431,375.897,847.479,369.754,845.438z"/>
<path fill="#EFA506" d="M453.772,863.138c2.005-20.026,4.006-40.057,6.009-60.085c17.709,1.375,35.097,1.617,52.838,0.764
	c0.257,4.073,0.387,6.108,0.644,10.186c-13.195,0.875-26.441,0.976-39.649,0.303c-0.297,5.348-0.443,8.021-0.74,13.364
	c12.781,0.646,25.596,0.604,38.371-0.137c0.222,4.061,0.334,6.093,0.557,10.151c-13.146,0.763-26.338,0.807-39.491,0.142
	c-0.362,6.563-0.545,9.845-0.908,16.405c15.394,0.532,30.56,0.387,45.938-0.443c0.272,4.058,0.408,6.086,0.682,10.144
	C496.469,865.114,475.285,864.852,453.772,863.138z"/>
<path fill="#EFA506" d="M554.342,859.671c-1.638-10.022-2.454-15.033-4.092-25.058c-11.039-9.986-21.428-20.286-31.479-31.266
	c6.715-0.567,10.063-0.939,16.732-1.85c6.671,7.221,13.651,14.155,20.909,20.786c4.249-8.795,8.132-17.769,11.638-26.883
	c6.435-1.54,9.631-2.391,15.98-4.247c-5.446,13.906-11.459,27.296-18.19,40.629c2.069,9.91,3.104,14.864,5.173,24.773
	C564.373,857.948,561.036,858.569,554.342,859.671z"/>
<path fill="#EFA506" d="M615.193,780.324c8.805-3.563,17.457-7.505,25.922-11.814c5.033-2.563,8.823-4.421,11.451-5.434
	c2.627-1.014,5.199-1.541,7.758-1.582c2.557-0.04,5.023,0.435,7.411,1.437c2.386,1.002,4.284,2.591,5.674,4.8
	c1.505,2.396,2.08,5.101,1.667,8.116c-0.413,3.019-4.075,8.605-4.075,8.605c0.104,0.158,8.716-1.81,12.288-0.989
	s6.326,2.655,8.213,5.589c1.485,2.313,2.209,5.021,2.113,8.146c-0.099,3.124-1.058,6.158-2.893,9.07
	c-1.836,2.913-4.647,5.682-8.436,8.209c-2.374,1.586-8.299,5.1-18.038,9.96c-8.599,4.239-17.354,8.161-26.242,11.758
	C630.401,817.57,622.793,798.949,615.193,780.324z M632.613,783.764c2.337,5.07,3.506,7.604,5.843,12.677
	c3.687-1.684,5.519-2.551,9.158-4.339c5.409-2.656,8.685-4.489,9.912-5.299c2.221-1.462,3.698-3.098,4.435-4.871
	c0.735-1.771,0.606-3.506-0.356-5.198c-0.926-1.622-2.231-2.626-3.908-3.028c-1.679-0.402-3.668-0.121-5.962,0.835
	c-1.364,0.568-5.124,2.529-11.409,5.59C637.257,781.621,635.714,782.349,632.613,783.764z M642.66,805.563
	c2.703,5.863,4.056,8.798,6.758,14.659c5.597-2.553,8.371-3.888,13.866-6.669c5.349-2.707,8.633-4.669,9.925-5.634
	c1.979-1.478,3.377-3.158,4.089-5.028c0.712-1.866,0.519-3.729-0.558-5.584c-0.909-1.565-2.19-2.604-3.828-3.126
	c-1.638-0.521-3.545-0.501-5.732,0.043c-2.188,0.547-6.45,2.566-12.93,5.806C649.651,802.326,647.332,803.433,642.66,805.563z"/>
<path fill="#EFA506" d="M771.869,745.525c-5.263,5.521-7.956,8.206-13.458,13.425c-5.973-1.904-8.927-2.904-14.777-5.001
	c-8.3,7.327-16.697,14.312-25.415,21.136c1.163,6.006,1.697,9.028,2.672,15.111c-5.906,4.308-8.908,6.387-14.998,10.396
	c-2.214-22.563-5.726-44.599-10.724-66.712c4.836-3.826,7.214-5.801,11.879-9.873C728.284,732.68,749.668,739.756,771.869,745.525z
	 M732.866,749.932c-9.288-3.758-13.854-5.76-22.803-9.983c2.612,9.486,3.801,14.294,5.923,24.013
	C722.893,758.571,726.271,755.766,732.866,749.932z"/>
<path fill="#EFA506" d="M794.358,681.898c4.892-4.649,7.304-7.059,12.042-12.039c4.311,5.629,6.196,11.971,5.509,18.908
	c-0.689,6.941-3.943,14.463-9.495,22.081c-5.912,8.115-14.361,14.853-24.26,17.081c-8.852,1.993-16.855-0.625-23.848-7.069
	c-7.394-6.819-10.811-14.571-10.765-23.114s3.171-16.646,9.354-25.027c5.4-7.319,11.311-12.258,18.117-14.867
	c4.043-1.55,8.582-1.888,13.647-0.934c-2.305,6.072-3.524,9.08-6.106,15.029c-3.122-0.965-6.244-0.735-9.394,0.626
	c-3.148,1.359-5.91,3.688-8.361,6.995c-3.388,4.567-4.953,9.146-4.702,13.943c0.251,4.803,3.059,9.543,8.572,14.17
	c5.854,4.91,11.232,6.986,16.167,6.043c4.935-0.941,9.373-3.938,13.115-8.976c2.759-3.714,4.245-7.587,4.45-11.501
	C798.608,689.335,797.248,685.541,794.358,681.898z"/>
<path fill="#EFA506" d="M830.084,665.609c-17.626-9.721-35.242-19.453-52.865-29.179c2.964-5.439,4.393-8.215,7.122-13.857
	c9.625,4.727,14.438,7.091,24.063,11.815c-3.237-14.021-7.026-27.671-11.502-41.347c3.006-8.132,4.396-12.288,6.932-20.772
	c4.634,12.228,8.601,24.704,11.87,37.365c16.141-6.07,31.411-13.671,46.492-21.985c-2.852,9.712-4.409,14.471-7.778,23.794
	c-11.569,4.834-23.408,9.017-35.452,12.502c1.429,6.808,2.068,10.248,3.189,17.194c6.55,3.219,9.822,4.823,16.374,8.04
	C835.288,655.873,833.597,659.158,830.084,665.609z"/>
</svg>
