<?xml version="1.0" encoding="utf-8"?>
<!-- Generator: Adobe Illustrator 13.0.0, SVG Export Plug-In  -->
<!DOCTYPE svg PUBLIC "-//W3C//DTD SVG 1.1//EN" "http://www.w3.org/Graphics/SVG/1.1/DTD/svg11.dtd" [
	<!ENTITY ns_flows "http://ns.adobe.com/Flows/1.0/">
]>
<svg version="1.1"
	 xmlns="http://www.w3.org/2000/svg" xmlns:xlink="http://www.w3.org/1999/xlink" xmlns:a="http://ns.adobe.com/AdobeSVGViewerExtensions/3.0/"
	 x="0px" y="0px" width="1000px" height="1000px" viewBox="0 0 1000 1000" enable-background="new 0 0 1000 1000"
	 xml:space="preserve">
<defs>
</defs>
<path display="none" fill-rule="evenodd" clip-rule="evenodd" fill="#FFFFFF" d="M468,0C329.375,11.532,225.31,68.212,147,146
	C73.104,219.403,9.325,331.662,0,468C0,311.998,0,156.004,0,0C156.002,0,311.996,0,468,0z"/>
<path display="none" fill-rule="evenodd" clip-rule="evenodd" fill="#FFFFFF" d="M1000,479c-9.564-142.518-64.995-249.996-144-329
	C780.309,74.309,673.147,9.988,531,0c156.332,0,312.668,0,469,0C1000,159.669,1000,319.328,1000,479z"/>
<path fill-rule="evenodd" clip-rule="evenodd" fill="#EFA506" d="M679,233c57.865-11.3,92.925,33.102,97,86
	c5.058,65.655-31.198,135.863-104,130c-8.493-0.684-14.238-2.369-23-6c-24.018,39.97-59.865,79.221-98,111
	c-5.232,4.36-14.094,10.24-15,14c-1.528,6.338,3.522,23.246,5,31c5.612,29.445,13.412,58.874,23,83
	c41.694,4.707,94.099-12.873,109,18c5.665,11.738,3,36.254,3,54c0,34.92,3.995,64.464-22,74c-18.179,6.669-55.648,2-79,2
	c-51.438,0-105.128,0-160,0c-35.658,0-80.915,6.001-93-18c-5.835-11.59-4-33.794-4-55c0-34.071-2.573-61.745,19-72
	c24.242-11.523,60.376,2.422,93-3c10.495-22.982,18.276-53.194,24-83c1.417-7.382,6.077-24.298,5-30c-1.37-7.255-25.25-23.658-31-29
	c-30.325-28.174-62.781-61.428-81-97c-13.212,3.753-20.34,7.121-37,6c-62.054-4.176-96.267-63.625-91-132
	c3.857-50.066,38.529-96.549,97-83c-10.844-65.963,55.544-54,115-54c46.474,0,105.827,0,155,0c39.313,0,77.596-4.724,89,21
	C678.564,209.042,679.79,225.121,679,233z M350,201c-21.254,1.804-14,43.841-14,69c0,61.867,3.976,120.682,26,161
	c20.288,37.14,53.267,71.253,86,100c10.249,9.001,27.583,20.49,30,33c3.593,18.598-7.176,49.685-13,73
	c-5.535,22.157-9.489,55.998-26,63c-21.274,9.021-81.055-7.403-96,5c-8.53,7.08-5,32.823-5,50c0,17.769-2.956,43.755,5,51
	c9.118,8.303,55.709,4,75,4c52.672,0,108.205,0,158,0c20.867,0,67.348,4.538,76-4c7.586-7.484,4-33.941,4-50
	c0-17.467,3.256-42.744-4-50c-12.833-12.833-83.923,1.406-99-7c-8.522-4.752-12.345-20.184-16-33c-6.384-22.382-11.328-43.366-16-68
	c-2.365-12.471-6.529-25.938-4-36c2.969-11.809,18.663-21.063,31-32c34.126-30.253,63.878-59.327,86-103
	c19.854-39.195,25-102.055,25-164c0-11.868,4.287-48.909-5-58c-9.262-9.065-50.141-5-71-5c-53.946,0-102.248,0-153,0
	c-25.326,0-58.444-2.728-78,1C351.364,201.121,350.646,200.945,350,201z M254,273c-37.05,53.442-8.044,149.645,54,156
	c11.614,1.189,26.742,0.683,36-9c-0.021-6.989-3.866-18.792-8-25c-22.53,0.839-35.487-6.017-44-23
	c-11.257-22.457-13.422-70.438,1-84c8.074-7.592,19.739-4.903,31-6c3.44-5.144,2.488-18.631,0-24
	C299.186,242.564,266.259,255.316,254,273z M733,405c40.496-45.988,30.571-159.987-41-154c-8.255,0.69-15.518,3.538-22,8
	c-0.921,6.032-2.72,18.604,1,23c34.49-6.191,42.512,21.491,40,56c-2.318,31.85-17.204,61.062-52,57c-5.115,6.885-7.117,16.883-9,27
	C682.719,437.875,715.913,424.404,733,405z M308,302c-7.639,23.768-6.583,66.859,16,73c-3.784-22.882-5.926-47.407-7-73
	C314,302,311,302,308,302z M678,302c-0.811,24.857-5.03,51.634-6,73c20.838-7.974,21.851-46.707,16-72
	C685.369,301.964,681.863,301.803,678,302z"/>
<path fill-rule="evenodd" clip-rule="evenodd" fill="#4D4D4D" d="M352,201c19.556-3.728,52.674-1,78-1c50.752,0,99.054,0,153,0
	c20.859,0,61.738-4.065,71,5c9.287,9.091,5,46.132,5,58c0,61.945-5.146,124.805-25,164c-22.122,43.673-51.874,72.747-86,103
	c-12.337,10.938-28.031,20.191-31,32c-2.529,10.062,1.635,23.529,4,36c4.672,24.634,9.616,45.618,16,68
	c3.655,12.816,7.478,28.248,16,33c15.077,8.406,86.167-5.833,99,7c7.256,7.256,4,32.533,4,50c0,16.059,3.586,42.516-4,50
	c-8.652,8.538-55.133,4-76,4c-49.795,0-105.328,0-158,0c-19.291,0-65.882,4.303-75-4c-7.956-7.245-5-33.231-5-51
	c0-17.177-3.53-42.92,5-50c14.945-12.403,74.726,4.021,96-5c16.511-7.002,20.465-40.843,26-63c5.824-23.315,16.593-54.402,13-73
	c-2.417-12.51-19.751-23.999-30-33c-32.733-28.747-65.712-62.86-86-100c-22.024-40.318-26-99.133-26-161
	c0-25.159-7.254-67.196,14-69C350.646,200.945,351.364,201.121,352,201z M418,719c-7.332,9.027-4.357,37.815-2,50
	c49.689,3.982,110.648,2.012,162,1c5.219-11.031,3.787-37.403,1-50C529.609,716.045,469.046,717.971,418,719z"/>
<path fill-rule="evenodd" clip-rule="evenodd" fill="#4D4D4D" d="M324,258c2.488,5.369,3.44,18.856,0,24
	c-11.261,1.097-22.926-1.592-31,6c-14.422,13.562-12.257,61.543-1,84c8.513,16.983,21.47,23.839,44,23
	c4.134,6.208,7.979,18.011,8,25c-9.258,9.683-24.386,10.189-36,9c-62.044-6.355-91.05-102.558-54-156
	C266.259,255.316,299.186,242.564,324,258z"/>
<path fill-rule="evenodd" clip-rule="evenodd" fill="#4D4D4D" d="M650,422c1.883-10.117,3.885-20.115,9-27
	c34.796,4.062,49.682-25.15,52-57c2.512-34.509-5.51-62.191-40-56c-3.72-4.396-1.921-16.968-1-23c6.482-4.462,13.745-7.31,22-8
	c71.571-5.987,81.496,108.012,41,154C715.913,424.404,682.719,437.875,650,422z"/>
<path fill-rule="evenodd" clip-rule="evenodd" fill="#4D4D4D" d="M317,302c1.074,25.593,3.216,50.118,7,73
	c-22.583-6.141-23.639-49.232-16-73C311,302,314,302,317,302z"/>
<path fill-rule="evenodd" clip-rule="evenodd" fill="#4D4D4D" d="M688,303c5.851,25.293,4.838,64.026-16,72
	c0.97-21.366,5.189-48.143,6-73C681.863,301.803,685.369,301.964,688,303z"/>
<path display="none" fill-rule="evenodd" clip-rule="evenodd" fill="#FFFFFF" d="M1000,520c0,160.002,0,319.996,0,480
	c-160.002,0-319.996,0-480,0c143.718-9.188,251.755-65.754,333-147C932.225,773.774,990.88,665.173,1000,520z"/>
<path display="none" fill-rule="evenodd" clip-rule="evenodd" fill="#FFFFFF" d="M0,531c12.079,141.897,70.231,246.23,148,324
	c77.79,77.79,183.897,134.917,329,144c0.776,0.225,1.973,0.027,2,1c-159.669,0-319.328,0-479,0C0,843.668,0,687.332,0,531z"/>
<path fill-rule="evenodd" clip-rule="evenodd" fill="#EFA506" d="M579,720c2.787,12.597,4.219,38.969-1,50
	c-51.352,1.012-112.311,2.982-162-1c-2.357-12.185-5.332-40.973,2-50C469.046,717.971,529.609,716.045,579,720z M434,751
	c42.333,0,84.667,0,127,0c0-4.333,0-8.667,0-13c-42,0-84,0-126,0C432.7,740.366,434.642,746.976,434,751z"/>
<path fill-rule="evenodd" clip-rule="evenodd" fill="#4D4D4D" d="M435,738c42,0,84,0,126,0c0,4.333,0,8.667,0,13
	c-42.333,0-84.667,0-127,0C434.642,746.976,432.7,740.366,435,738z"/>
<path fill-rule="evenodd" clip-rule="evenodd" fill="#4D4D4D" d="M468,0c21,0,42,0,63,0c142.147,9.988,249.309,74.309,325,150
	c79.005,79.004,134.436,186.482,144,329c0,13.667,0,27.333,0,41c-9.12,145.173-67.775,253.774-147,333
	c-81.245,81.246-189.282,137.812-333,147c-13.667,0-27.333,0-41,0c-0.027-0.973-1.224-0.775-2-1
	c-145.103-9.083-251.21-66.21-329-144C70.231,777.23,12.079,672.897,0,531c0-21,0-42,0-63c9.325-136.338,73.104-248.597,147-322
	C225.31,68.212,329.375,11.532,468,0z M675,201c-11.404-25.724-49.687-21-89-21c-49.173,0-108.526,0-155,0
	c-59.456,0-125.844-11.963-115,54c-58.471-13.549-93.143,32.934-97,83c-5.267,68.375,28.946,127.824,91,132
	c16.66,1.121,23.788-2.247,37-6c18.219,35.572,50.675,68.826,81,97c5.75,5.342,29.63,21.745,31,29c1.077,5.702-3.583,22.618-5,30
	c-5.724,29.806-13.505,60.018-24,83c-32.624,5.422-68.758-8.523-93,3c-21.573,10.255-19,37.929-19,72c0,21.206-1.835,43.41,4,55
	c12.085,24.001,57.342,18,93,18c54.872,0,108.563,0,160,0c23.352,0,60.821,4.669,79-2c25.995-9.536,22-39.08,22-74
	c0-17.746,2.665-42.262-3-54c-14.901-30.873-67.306-13.293-109-18c-9.588-24.126-17.388-53.555-23-83
	c-1.478-7.754-6.528-24.662-5-31c0.906-3.76,9.768-9.64,15-14c38.135-31.779,73.982-71.03,98-111c8.762,3.631,14.507,5.316,23,6
	c72.802,5.863,109.058-64.345,104-130c-4.075-52.898-39.135-97.3-97-86C679.79,225.121,678.564,209.042,675,201z"/>
</svg>
