<?xml version="1.0" encoding="utf-8"?>
<!-- Generator: Adobe Illustrator 13.0.0, SVG Export Plug-In  -->
<!DOCTYPE svg PUBLIC "-//W3C//DTD SVG 1.1//EN" "http://www.w3.org/Graphics/SVG/1.1/DTD/svg11.dtd" [
	<!ENTITY ns_flows "http://ns.adobe.com/Flows/1.0/">
]>
<svg version="1.1"
	 xmlns="http://www.w3.org/2000/svg" xmlns:xlink="http://www.w3.org/1999/xlink" xmlns:a="http://ns.adobe.com/AdobeSVGViewerExtensions/3.0/"
	 x="0px" y="0px" width="1000px" height="1000px" viewBox="0 0 1000 1000" enable-background="new 0 0 1000 1000"
	 xml:space="preserve">
<defs>
</defs>
<path fill-rule="evenodd" clip-rule="evenodd" fill="#B8B8B8" d="M522,0c3.333,0,6.667,0,10,0c0,0.333,0,0.667,0,1
	C528.961,0.373,523.387,2.28,522,0z"/>
<path fill-rule="evenodd" clip-rule="evenodd" fill="#CC5C5C" d="M695,229c1.078-1.655,8.922-1.655,10,0
	C701.667,229,698.333,229,695,229z"/>
<path fill-rule="evenodd" clip-rule="evenodd" fill="#8B5D5D" d="M556,354c0,3.333,0,6.667,0,10
	C554.345,362.922,554.345,355.078,556,354z"/>
<path fill-rule="evenodd" clip-rule="evenodd" fill="#CC5C5C" d="M642,355c1.655,1.078,1.655,8.922,0,10
	C642,361.667,642,358.333,642,355z"/>
<path fill-rule="evenodd" clip-rule="evenodd" fill="#CC5C5C" d="M739,438c0-3.333,0-6.667,0-10
	C740.655,429.078,740.655,436.922,739,438z"/>
<path fill-rule="evenodd" clip-rule="evenodd" fill="#B8B8B8" d="M999,470c0.333,0,0.667,0,1,0c0,3.333,0,6.667,0,10
	c-0.333,0-0.667,0-1,0C999,476.667,999,473.333,999,470z"/>
<path fill-rule="evenodd" clip-rule="evenodd" fill="#8B5D5D" d="M999,480c0.333,0,0.667,0,1,0c0,13.333,0,26.667,0,40
	c-0.333,0-0.667,0-1,0C999,506.667,999,493.333,999,480z"/>
<path fill-rule="evenodd" clip-rule="evenodd" fill="#B8B8B8" d="M0,522c2.28,1.387,0.373,6.961,1,10c-0.333,0-0.667,0-1,0
	C0,528.667,0,525.333,0,522z"/>
<path fill-rule="evenodd" clip-rule="evenodd" fill="#B8B8B8" d="M470,1000c0-0.333,0-0.667,0-1c3.333,0,6.667,0,10,0
	c0,0.333,0,0.667,0,1C476.667,1000,473.333,1000,470,1000z"/>
<path fill-rule="evenodd" clip-rule="evenodd" fill="#8B5D5D" d="M480,1000c0-0.333,0-0.667,0-1c13.333,0,26.667,0,40,0
	c0,0.333,0,0.667,0,1C506.667,1000,493.333,1000,480,1000z"/>
<path fill-rule="evenodd" clip-rule="evenodd" fill="#B8B8B8" d="M149,144c3.248-4.085,6.915-7.752,11-11
	C156.752,137.085,153.085,140.752,149,144z"/>
<path fill-rule="evenodd" clip-rule="evenodd" fill="#B8B8B8" d="M133,160c3.248-4.085,6.915-7.752,11-11
	C140.752,153.085,137.085,156.752,133,160z"/>
<path display="none" fill-rule="evenodd" clip-rule="evenodd" fill="#FFFFFF" d="M841,135C763.625,64.708,668.997,11.672,532,1
	c0-0.333,0-0.667,0-1c156.002,0,311.995,0,468,0c0,156.665,0,313.337,0,470c-0.333,0-0.667,0-1,0
	c-10.897-137.438-63.339-233.325-134-311C857.417,150.583,849.417,142.583,841,135z"/>
<path fill-rule="evenodd" clip-rule="evenodd" fill="#8B5D5D" d="M841,135c8.417,7.583,16.417,15.583,24,24
	C856.583,151.417,848.583,143.417,841,135z"/>
<path fill-rule="evenodd" clip-rule="evenodd" fill="#B8B8B8" d="M999,520c0.333,0,0.667,0,1,0c0,3.333,0,6.667,0,10
	c-2.889,0.444,0.889,7.556-2,8C997.488,531.154,999.774,527.107,999,520z"/>
<path fill-rule="evenodd" clip-rule="evenodd" fill="#B8B8B8" d="M842,864c6.916-7.75,14.25-15.084,22-22
	C857.084,849.75,849.75,857.084,842,864z"/>
<path fill-rule="evenodd" clip-rule="evenodd" fill="#B8B8B8" d="M520,999c7.107,0.774,11.154-1.512,18-1
	c-0.444,2.889-7.556-0.889-8,2c-3.333,0-6.667,0-10,0C520,999.667,520,999.333,520,999z"/>
<path fill-rule="evenodd" clip-rule="evenodd" fill="#8B5D5D" d="M135,841c8.417,7.583,16.417,15.583,24,24
	C150.583,857.417,142.583,849.417,135,841z"/>
<path display="none" fill-rule="evenodd" clip-rule="evenodd" fill="#FFFFFF" d="M1,532c10.647,137.021,63.704,231.626,134,309
	c7.583,8.417,15.583,16.417,24,24c77.662,70.674,173.562,123.103,311,134c0,0.333,0,0.667,0,1c-156.665,0-313.337,0-470,0
	c0-156.002,0-311.995,0-468C0.333,532,0.667,532,1,532z"/>
<path fill-rule="evenodd" clip-rule="evenodd" fill="#FB6262" d="M711,208c30.215,3.522,30.291,39.96,34,74
	c3.807,34.933,8.262,73.071,12,110c2.06,20.352,6.805,39.293,4,51c-4.399,18.366-25.459,37.222-38,53
	c-80.405,101.159-161.028,200.704-243,303c-17.719,22.113-36.378,57.789-73,47c-10.69-3.149-21.011-12.086-32-21
	c-47.938-38.884-94.208-76.262-144-116c-15.577-12.432-46.284-31.422-54-50c-13.675-32.926,13.833-57.337,34-82
	c82.497-100.883,159.972-199.224,243-302c12.316-15.245,29.77-41.21,46-46c14.008-4.134,31.857-5.181,49-7
	c48.457-5.141,103.63-9.876,151-16C702.434,207.9,707.983,206.683,711,208z M695,229c-45.476,4.567-96.931,11.168-143,16
	c-16.509,1.731-34.898,0.623-46,6c-13.973,6.769-28.262,32.588-40,47c-80.097,98.348-157.313,192.599-236,292
	c-9.108,11.506-35.512,36.437-34,54c0.981,11.402,14.417,20.038,23,27c58.189,47.199,111.043,89.934,169,136
	c9.543,7.585,20.045,18.709,33,18c18.438-1.01,32.569-30.097,44-44c67.845-82.52,131.287-162.641,197-243
	c26.708-32.661,52.878-66.04,77-100c1.655-1.078,1.655-8.922,0-10c-5.645-40.592-10.165-102.936-16-152
	c-2.078-17.475-2.941-46.284-18-47C703.922,227.345,696.078,227.345,695,229z"/>
<path fill-rule="evenodd" clip-rule="evenodd" fill="#CC5C5C" d="M700,206c4.368-0.035,9.035-0.369,11,2
	C707.983,206.683,702.434,207.9,700,206z"/>
<path fill-rule="evenodd" clip-rule="evenodd" fill="#4D4D4D" d="M705,229c15.059,0.716,15.922,29.525,18,47
	c5.835,49.064,10.355,111.408,16,152c0,3.333,0,6.667,0,10c-24.122,33.96-50.292,67.339-77,100
	c-65.713,80.359-129.155,160.48-197,243c-11.431,13.903-25.563,42.99-44,44c-12.955,0.709-23.457-10.415-33-18
	c-57.957-46.066-110.811-88.801-169-136c-8.583-6.962-22.019-15.598-23-27c-1.512-17.563,24.892-42.494,34-54
	c78.687-99.401,155.903-193.652,236-292c11.738-14.412,26.027-40.231,40-47c11.102-5.377,29.491-4.269,46-6
	c46.069-4.832,97.524-11.433,143-16C698.333,229,701.667,229,705,229z M654,392c38.694-49.931-29.179-114.078-78-76
	c-3.752,2.915-7.086,6.248-10,10c-4.131,8.536-9.105,16.229-10,28c-1.655,1.078-1.655,8.922,0,10c1.123,42.978,55.843,63.895,88,38
	C647.752,399.085,651.085,395.752,654,392z M562,591c-0.271-10.877-12.248-15.644-20-22c-45.616-37.402-87.149-69.767-132-106
	c-6.998-5.653-16.077-16.78-25-13c-1.536,0.651-6.647,5.42-6,12c0.791,8.033,11.263,11.855,20,19
	c36.392,29.759,73.292,58.961,108,87c14.53,11.738,26.852,26.514,46,33c0.221-0.779,0.838-1.162,2-1
	C559.031,598.697,561.665,595.999,562,591z M503,666c12.479-12.282-4.279-20.051-14-28c-44.423-36.326-88.014-71.658-131-107
	c-5.95-4.893-26.469-23.775-33-8c-3.995,9.65,8.08,16.409,15,22c50.73,40.983,102.452,84.492,153,123
	C495.432,670.365,502.484,668.867,503,666z M270,597c0.627,7.295,12.997,13.273,20,19c43.168,35.301,85.987,70.812,129,105
	c5.54,4.403,16.324,16.338,25,15c2.417-0.373,8.92-3.516,9-11c0.114-10.643-29.622-29.684-40-38
	c-36.367-29.142-72.801-59.022-108-87c-6.99-5.556-18.083-16.876-27-15C272.496,586.158,269.509,591.287,270,597z"/>
<path fill-rule="evenodd" clip-rule="evenodd" fill="#8B5D5D" d="M566,326c2.914-3.752,6.248-7.085,10-10
	C573.086,319.752,569.752,323.085,566,326z"/>
<path fill-rule="evenodd" clip-rule="evenodd" fill="#CC5C5C" d="M644,402c2.915-3.752,6.248-7.085,10-10
	C651.085,395.752,647.752,399.085,644,402z"/>
<path fill-rule="evenodd" clip-rule="evenodd" fill="#FB6262" d="M576,316c48.821-38.078,116.694,26.069,78,76
	c-3.752,2.915-7.085,6.248-10,10c-32.157,25.895-86.877,4.978-88-38c0-3.333,0-6.667,0-10c0.895-11.771,5.869-19.464,10-28
	C569.752,323.085,573.086,319.752,576,316z M642,355c-3.851-17.427-15.707-31.591-38-28c-15.987,2.575-25.264,17.648-26,30
	c-2.393,40.172,59.101,46.057,64,8C643.655,363.922,643.655,356.078,642,355z"/>
<path fill-rule="evenodd" clip-rule="evenodd" fill="#8B5D5D" d="M555,600c3.384-1.949,5.301-5.366,7-9
	C561.665,595.999,559.031,598.697,555,600z"/>
<path fill-rule="evenodd" clip-rule="evenodd" fill="#8B5D5D" d="M493,668c4.413,0.413,7.729-0.271,10-2
	C502.484,668.867,495.432,670.365,493,668z"/>
<path fill-rule="evenodd" clip-rule="evenodd" fill="#FB6262" d="M493,668c-50.548-38.508-102.27-82.017-153-123
	c-6.92-5.591-18.995-12.35-15-22c6.531-15.775,27.05,3.107,33,8c42.986,35.342,86.577,70.674,131,107
	c9.721,7.949,26.479,15.718,14,28C500.729,667.729,497.413,668.413,493,668z"/>
<path display="none" fill-rule="evenodd" clip-rule="evenodd" fill="#FFFFFF" d="M0,477C0,318.001,0,158.998,0,0
	c158.999,0,318.002,0,477,0C336.232,9.233,239.384,62.383,160,133c-4.085,3.248-7.752,6.915-11,11c-2.092,1.242-3.758,2.908-5,5
	c-4.085,3.248-7.752,6.915-11,11C62.384,239.385,9.233,336.232,0,477z"/>
<path display="none" fill-rule="evenodd" clip-rule="evenodd" fill="#FFFFFF" d="M538,998c134.228-11.771,227.064-64.938,304-134
	c7.75-6.916,15.084-14.25,22-22c69.063-76.936,122.229-169.773,134-304c2.889-0.444-0.889-7.556,2-8c0,156.665,0,313.337,0,470
	c-156.665,0-313.337,0-470,0C530.444,997.111,537.556,1000.889,538,998z"/>
<path fill-rule="evenodd" clip-rule="evenodd" fill="#FB6262" d="M555,600c-1.162-0.162-1.779,0.221-2,1
	c-19.148-6.486-31.47-21.262-46-33c-34.708-28.039-71.608-57.241-108-87c-8.737-7.145-19.209-10.967-20-19
	c-0.647-6.58,4.464-11.349,6-12c8.923-3.78,18.002,7.347,25,13c44.851,36.233,86.384,68.598,132,106
	c7.752,6.356,19.729,11.123,20,22C560.301,594.634,558.384,598.051,555,600z"/>
<path fill-rule="evenodd" clip-rule="evenodd" fill="#FB6262" d="M278,585c8.917-1.876,20.01,9.444,27,15
	c35.199,27.978,71.633,57.858,108,87c10.378,8.316,40.114,27.357,40,38c-0.08,7.484-6.583,10.627-9,11
	c-8.676,1.338-19.46-10.597-25-15c-43.013-34.188-85.832-69.699-129-105c-7.003-5.727-19.373-11.705-20-19
	C269.509,591.287,272.496,586.158,278,585z"/>
<path fill-rule="evenodd" clip-rule="evenodd" fill="#4D4D4D" d="M477,0c15,0,30,0,45,0c1.387,2.28,6.961,0.373,10,1
	c136.997,10.672,231.625,63.708,309,134c7.583,8.417,15.583,16.417,24,24c70.661,77.675,123.103,173.562,134,311
	c0,3.333,0,6.667,0,10c0,13.333,0,26.667,0,40c0.774,7.107-1.512,11.154-1,18c-11.771,134.227-64.937,227.064-134,304
	c-7.75,6.916-15.084,14.25-22,22c-76.936,69.063-169.772,122.229-304,134c-6.846-0.512-10.893,1.774-18,1c-13.333,0-26.667,0-40,0
	c-3.333,0-6.667,0-10,0c-137.438-10.897-233.338-63.326-311-134c-7.583-8.417-15.583-16.417-24-24
	C64.704,763.626,11.647,669.021,1,532c-0.627-3.039,1.28-8.613-1-10c0-15,0-30,0-45c9.233-140.768,62.384-237.615,133-317
	c4.085-3.248,7.752-6.915,11-11c1.242-2.092,2.908-3.758,5-5c4.085-3.248,7.752-6.915,11-11C239.384,62.383,336.232,9.233,477,0z
	 M700,206c-47.37,6.124-102.543,10.859-151,16c-17.143,1.819-34.992,2.866-49,7c-16.23,4.79-33.684,30.755-46,46
	c-83.028,102.776-160.503,201.117-243,302c-20.167,24.663-47.675,49.074-34,82c7.716,18.578,38.423,37.568,54,50
	c49.792,39.738,96.062,77.116,144,116c10.989,8.914,21.31,17.851,32,21c36.622,10.789,55.281-24.887,73-47
	c81.972-102.296,162.595-201.841,243-303c12.541-15.778,33.601-34.634,38-53c2.805-11.707-1.94-30.648-4-51
	c-3.738-36.929-8.193-75.067-12-110c-3.709-34.04-3.785-70.478-34-74C709.035,205.631,704.368,205.965,700,206z"/>
<path fill-rule="evenodd" clip-rule="evenodd" fill="#4D4D4D" d="M642,365c-4.899,38.057-66.393,32.172-64-8
	c0.736-12.352,10.013-27.425,26-30c22.293-3.591,34.149,10.573,38,28C642,358.333,642,361.667,642,365z"/>
</svg>
