<?xml version="1.0" encoding="utf-8"?>
<!-- Generator: Adobe Illustrator 13.0.0, SVG Export Plug-In  -->
<!DOCTYPE svg PUBLIC "-//W3C//DTD SVG 1.1//EN" "http://www.w3.org/Graphics/SVG/1.1/DTD/svg11.dtd" [
	<!ENTITY ns_flows "http://ns.adobe.com/Flows/1.0/">
]>
<svg version="1.1"
	 xmlns="http://www.w3.org/2000/svg" xmlns:xlink="http://www.w3.org/1999/xlink" xmlns:a="http://ns.adobe.com/AdobeSVGViewerExtensions/3.0/"
	 x="0px" y="0px" width="970px" height="908px" viewBox="0 0 970 908" enable-background="new 0 0 970 908" xml:space="preserve">
<defs>
</defs>
<path display="none" fill-rule="evenodd" clip-rule="evenodd" fill="#FFFFFF" d="M467.533,0c0,0.312,0,0.624,0,0.935
	C354.14,8.411,265.485,49.573,193.559,103.792c-8.19,6.174-15.88,14.977-24.312,22.442C110.49,178.252,63.084,242.15,32.727,319.792
	C15.692,363.361,4.306,412.104,0.935,467.533c-0.312,0-0.624,0-0.935,0C0,311.691,0,155.84,0,0C155.842,0,311.692,0,467.533,0z"/>
<path fill-rule="evenodd" clip-rule="evenodd" fill="#EFA506" d="M467.533,0.935c0-0.312,0-0.624,0-0.935c3.117,0,6.233,0,9.351,0
	C475.587,2.132,470.375,0.349,467.533,0.935z"/>
<path fill-rule="evenodd" clip-rule="evenodd" fill="#EFA506" d="M521.767,0c3.116,0,6.233,0,9.351,0c0,0.312,0,0.624,0,0.935
	C528.274,0.349,523.063,2.132,521.767,0z"/>
<path display="none" fill-rule="evenodd" clip-rule="evenodd" fill="#FFFFFF" d="M531.117,0.935c0-0.312,0-0.624,0-0.935
	c156.469,0,312.93,0,469.402,0c0,333.514,0,667.001,0,1000.52c-333.515,0-667.001,0-1000.52,0c0-156.469,0-312.931,0-469.402
	c0.312,0,0.624,0,0.935,0c3.537,56.498,14.713,106.748,32.727,150.545C87.14,811.677,179.507,904.229,304.831,960.312
	c83.679,37.446,211.96,52.48,313.247,25.247c97.104-26.109,172.56-70.638,234.701-132.779
	c62.383-62.384,105.861-136.398,132.779-233.767c36.333-131.427-0.849-287.494-56.104-374.026
	c-24.115-37.764-49.822-71.727-80.416-102.857c-15.117-15.382-32.491-30.114-49.559-42.078
	C727.949,49.911,644.582,6.399,531.117,0.935z"/>
<path fill-rule="evenodd" clip-rule="evenodd" fill="#EFA506" d="M864,325.403c13.824,1.012,52.802-21.998,65.455-6.546
	c5.173,6.318,5.301,21.267,7.48,30.857c2.452,10.792,3.524,21.042,7.48,29.922c4.945,31.018,14.169,65.865,21.506,100.987
	c2.124,10.167,6.205,25.273-0.935,31.792c-5.492,5.014-21.583,5.502-30.857,7.48c-11.394,2.43-20.58,4.704-29.922,7.48
	c-5.198,33.327-6.857,64.786-16.831,94.441C851.366,728.894,782.882,809.119,690.078,860.26
	c-43.197,23.805-96.795,41.044-155.221,45.818c-128.121,10.469-230.946-37.92-301.091-97.247
	c-35.821-30.297-63.975-68.649-89.766-111.272c-9.665,2.981-20.176,5.664-32.727,8.415c-9.198,2.017-26.346,5.924-32.728-1.87
	c-3.6-4.396-4.808-18.309-6.545-26.182c-9.532-43.183-19.962-87.954-29.922-134.649c-2.647-12.411-6.573-24.718,1.87-33.662
	c15.604-5.278,35.25-6.517,51.428-11.221c-0.069-51.534,8.972-99.302,24.312-137.455c33.415-83.11,84.177-144.465,153.351-193.559
	c4.809-3.413,9.625-7.267,14.961-10.286c49.775-28.156,110.768-52.902,185.143-57.974c58.758-4.006,124.3,6.729,169.247,25.247
	c27.373,11.277,54.955,23.342,76.676,38.337C782.785,206.694,830.166,258.661,864,325.403z M788.26,241.247
	c-22.563-25.078-49.272-49.174-79.48-67.325c-60.53-36.37-134.543-66.553-232.831-60.779c-37.038,2.175-79.544,9.979-110.338,22.441
	c-10.763,4.355-21.973,8.293-31.792,13.091C241.397,193.828,174.053,268.44,134.649,361.87
	c-11.965,39.464-26.639,81.205-23.376,132.779c35.44-8.819,72.179-16.341,108.467-24.312
	c12.183-103.632,71.184-174.14,148.675-218.806c56.831-32.757,151.908-42.222,224.416-16.831c5.695,1.995,11.67,5.945,17.767,8.416
	c57.103,23.147,94.968,63.842,129.039,110.338c36.073-8.498,72.513-16.63,108.467-25.247
	C831.516,296.442,811.527,267.109,788.26,241.247z M589.091,249.662c-14.139-5.338-31.768-7.872-49.559-11.221
	c-18.03-3.394-38.616-5.954-57.039-3.74c-76.031,9.137-127.812,35.841-169.247,77.61c-38.31,38.619-68.719,86.565-77.61,153.351
	c163.109-35.44,325.23-71.858,486.234-109.402C692.533,311.309,645.976,271.138,589.091,249.662z M53.299,522.701
	c11.165,58.341,25.809,113.205,37.402,171.117c289.289-63.237,575.971-129.066,864-193.559
	c-9.224-50.882-23.711-102.003-33.662-150.545c-1.508-7.353-0.737-17.646-6.546-20.571
	C627.278,393.497,340.344,458.174,53.299,522.701z M774.233,556.363c-20.729,94.229-81.84,165.877-165.506,202.909
	c-61.255,27.112-154.838,28.193-218.806,0.936c-4.142-1.765-8.688-5.271-13.091-7.48c-10.928-5.486-18.055-9.375-27.117-14.961
	c-13.556-8.356-25.033-17.067-35.533-27.117c-16.281-11.771-26.514-29.59-42.078-42.078c-36.757,9.062-73.783,17.854-112.208,25.247
	c44.732,82.25,120.652,144.691,216.935,179.532c67.039,24.259,169.022,24.247,239.377,1.87c14.445-4.595,29.923-9.501,43.013-15.896
	c123.191-60.187,211.477-163.918,229.091-327.272c-0.053-0.57-0.14-1.106-0.935-0.935
	C848.49,538.361,812.297,548.296,774.233,556.363z M291.74,664.831c34.879,44.447,83.598,80.329,149.61,94.441
	c61.198,13.084,124.045,4.46,170.182-18.701c71.257-35.771,119.552-90.436,143.065-171.117c0.57-1.956,5.84-7.947,0.935-9.351
	C601.465,595.539,446.099,629.685,291.74,664.831z"/>
<path display="none" fill-rule="evenodd" clip-rule="evenodd" fill="#4D4D4D" d="M848.104,328.208
	c-35.954,8.616-72.394,16.749-108.467,25.247c-34.071-46.496-71.937-87.191-129.039-110.338c-6.097-2.471-12.071-6.421-17.767-8.416
	c-72.508-25.391-167.584-15.926-224.416,16.831c-77.491,44.666-136.493,115.173-148.675,218.806
	c-36.289,7.971-73.027,15.492-108.467,24.312c-3.263-51.574,11.412-93.315,23.376-132.779
	c39.404-93.43,106.748-168.042,199.169-213.195c9.819-4.797,21.029-8.735,31.792-13.091c30.793-12.462,73.3-20.266,110.338-22.441
	c98.288-5.774,172.301,24.409,232.831,60.779c30.208,18.151,56.918,42.247,79.48,67.325
	C811.527,267.109,831.516,296.442,848.104,328.208z"/>
<path display="none" fill-rule="evenodd" clip-rule="evenodd" fill="#4D4D4D" d="M721.87,356.26
	c-161.004,37.544-323.125,73.962-486.234,109.402c8.892-66.785,39.3-114.732,77.61-153.351
	c41.436-41.769,93.216-68.473,169.247-77.61c18.423-2.214,39.008,0.346,57.039,3.74c17.791,3.349,35.42,5.883,49.559,11.221
	C645.976,271.138,692.533,311.309,721.87,356.26z M436.675,290.805c-5.938,1.542-11.271,3.689-16.831,5.61
	c1.758,8.215,12.588,7.36,14.961,14.961c0,6.545,0,13.091,0,19.637c9.188-0.474,10.415-8.91,17.766-11.221
	c7.313,1.103,10.956,5.876,18.702,6.546c0.529-9.568-5.42-12.658-5.61-21.507c4.597-4.442,8.464-9.614,11.221-15.896
	c-4.824-2.033-13.294-0.42-19.637-0.935c-4.616-5.358-6.715-13.233-13.091-16.831C441.818,277.87,440.996,286.087,436.675,290.805z
	 M489.039,339.429c-5.849,1.32-10.718,3.62-16.831,4.675c2.193,7.78,10.677,9.271,14.961,14.961c0,6.545,0,13.091,0,19.636
	c7.723-1.628,11.041-7.661,17.767-10.286c5.551,2.241,11.257,4.327,17.766,5.61c0.928-8.516-5.263-13.396-4.675-19.636
	c0.732-7.784,9.697-9.478,11.221-17.766c-5.124-2.045-13.927-0.412-20.571-0.935c-4.831-5.144-5.345-14.604-13.091-16.832
	C493.285,325.597,492.355,333.706,489.039,339.429z M411.429,357.195c-7.362,0.43-11.44,4.145-18.702,4.675
	c1.539,8.436,11.335,8.613,14.961,14.961c1.146,6.334-2.357,17.318,1.87,20.572c5.871-3.168,9.499-8.58,15.896-11.221
	c6.47,1.634,11.339,4.869,18.701,5.61c-0.79-7.625-2.673-14.158-5.61-19.636c3.965-5.385,8.042-10.66,11.221-16.831
	c-4.824-2.033-13.294-0.42-19.636-0.935c-3.188-7.098-7.727-12.845-13.091-17.766C415.616,343.928,412.916,349.954,411.429,357.195z
	"/>
<path fill-rule="evenodd" clip-rule="evenodd" fill="#EFA506" d="M444.156,271.169c6.376,3.598,8.475,11.473,13.091,16.831
	c6.342,0.515,14.813-1.098,19.637,0.935c-2.757,6.282-6.624,11.454-11.221,15.896c0.19,8.849,6.139,11.938,5.61,21.507
	c-7.746-0.67-11.389-5.443-18.702-6.546c-7.352,2.311-8.578,10.747-17.766,11.221c0-6.545,0-13.091,0-19.637
	c-2.373-7.601-13.203-6.746-14.961-14.961c5.56-1.921,10.893-4.068,16.831-5.61C440.996,286.087,441.818,277.87,444.156,271.169z"/>
<path fill-rule="evenodd" clip-rule="evenodd" fill="#EFA506" d="M495.584,318.857c7.747,2.228,8.26,11.688,13.091,16.832
	c6.645,0.523,15.447-1.11,20.571,0.935c-1.523,8.289-10.488,9.982-11.221,17.766c-0.588,6.24,5.603,11.12,4.675,19.636
	c-6.509-1.283-12.215-3.37-17.766-5.61c-6.726,2.625-10.044,8.658-17.767,10.286c0-6.545,0-13.091,0-19.636
	c-4.284-5.69-12.768-7.181-14.961-14.961c6.113-1.056,10.982-3.355,16.831-4.675C492.355,333.706,493.285,325.597,495.584,318.857z"
	/>
<path display="none" fill-rule="evenodd" clip-rule="evenodd" fill="#4D4D4D" d="M914.493,329.143
	c5.809,2.925,5.038,13.218,6.546,20.571c9.951,48.542,24.438,99.663,33.662,150.545c-288.029,64.492-574.711,130.321-864,193.559
	c-11.594-57.912-26.237-112.776-37.402-171.117C340.344,458.174,627.278,393.497,914.493,329.143z"/>
<path fill-rule="evenodd" clip-rule="evenodd" fill="#EFA506" d="M417.039,336.624c5.364,4.921,9.903,10.668,13.091,17.766
	c6.342,0.515,14.813-1.098,19.636,0.935c-3.179,6.171-7.255,11.446-11.221,16.831c2.938,5.479,4.82,12.011,5.61,19.636
	c-7.362-0.741-12.231-3.976-18.701-5.61c-6.397,2.642-10.025,8.053-15.896,11.221c-4.227-3.254-0.724-14.237-1.87-20.572
	c-3.626-6.348-13.422-6.525-14.961-14.961c7.262-0.531,11.34-4.245,18.702-4.675C412.916,349.954,415.616,343.928,417.039,336.624z"
	/>
<path fill-rule="evenodd" clip-rule="evenodd" fill="#EFA506" d="M0,467.533c0.312,0,0.624,0,0.935,0
	c-0.586,2.842,1.197,8.054-0.935,9.351C0,473.766,0,470.649,0,467.533z"/>
<path fill-rule="evenodd" clip-rule="evenodd" fill="#EFA506" d="M0,521.767c2.132,1.296,0.349,6.508,0.935,9.351
	c-0.312,0-0.624,0-0.935,0C0,528,0,524.883,0,521.767z"/>
<path display="none" fill-rule="evenodd" clip-rule="evenodd" fill="#4D4D4D" d="M887.377,531.117
	c0.795-0.172,0.882,0.364,0.935,0.935c-17.614,163.354-105.899,267.086-229.091,327.272c-13.09,6.396-28.567,11.302-43.013,15.896
	c-70.354,22.377-172.338,22.389-239.377-1.87c-96.283-34.841-172.203-97.282-216.935-179.532
	c38.425-7.394,75.451-16.186,112.208-25.247c15.564,12.488,25.796,30.308,42.078,42.078c10.5,10.05,21.977,18.761,35.533,27.117
	c9.062,5.586,16.188,9.475,27.117,14.961c4.403,2.21,8.949,5.716,13.091,7.48c63.967,27.258,157.551,26.177,218.806-0.936
	c83.666-37.032,144.776-108.68,165.506-202.909C812.297,548.296,848.49,538.361,887.377,531.117z"/>
<path display="none" fill-rule="evenodd" clip-rule="evenodd" fill="#4D4D4D" d="M755.532,560.104
	c4.905,1.403-0.364,7.395-0.935,9.351c-23.514,80.682-71.809,135.346-143.065,171.117c-46.137,23.161-108.983,31.785-170.182,18.701
	c-66.012-14.112-114.731-49.994-149.61-94.441C446.099,629.685,601.465,595.539,755.532,560.104z M547.948,634.909
	c-6.161,1.943-14.08,2.128-17.767,6.545c2.544,6.807,11.101,7.601,14.961,13.092c0,6.856,0,13.714,0,20.571
	c8.333-1.33,10.609-8.716,17.767-11.221c5.911,2.192,12.095,4.112,17.767,6.545c-0.148-8.267-3.382-13.45-4.676-20.571
	c2.808-6.543,8.266-10.436,11.221-16.831c-5.124-2.045-13.926-0.412-20.571-0.936c-4.269-5.705-5.353-14.596-13.091-16.831
	C551.489,621.619,550.018,628.563,547.948,634.909z M469.403,652.676c-8.283-0.18-10.419,5.789-18.702,5.61
	c2.432,7.542,11.781,8.167,14.961,14.961c0,6.545,0,13.091,0,19.636c9.068-0.593,10.979-8.345,17.766-11.221
	c6.76,1.656,10.585,6.246,18.701,6.546c0.161-8.577-3.892-12.939-4.675-20.571c2.798-6.241,8.239-9.839,10.286-16.831
	c-4.824-2.033-13.294-0.421-19.636-0.936c-4.181-5.793-6.879-13.068-13.091-16.831C473.135,639.577,471.447,646.305,469.403,652.676
	z M520.831,699.429c-5.716,1.452-10.647,3.69-16.831,4.675c1.955,8.331,12.327,8.245,14.961,15.896c0,6.233,0,12.468,0,18.701
	c8.078-1.272,10.983-7.718,17.767-10.285c6.473,1.631,11.19,5.017,18.701,5.61c-1.046-7.682-4.674-12.781-5.61-20.572
	c2.544-6.806,9.863-8.837,11.221-16.831c-4.824-2.033-13.294-0.42-19.637-0.935c-5.789-4.185-6.262-13.687-13.091-16.831
	C526.14,686.036,523.662,692.909,520.831,699.429z"/>
<path fill-rule="evenodd" clip-rule="evenodd" fill="#EFA506" d="M553.559,615.272c7.738,2.235,8.822,11.126,13.091,16.831
	c6.646,0.523,15.447-1.109,20.571,0.936c-2.955,6.396-8.413,10.288-11.221,16.831c1.294,7.121,4.527,12.305,4.676,20.571
	c-5.672-2.433-11.855-4.353-17.767-6.545c-7.157,2.505-9.434,9.891-17.767,11.221c0-6.857,0-13.715,0-20.571
	c-3.86-5.491-12.417-6.285-14.961-13.092c3.687-4.417,11.605-4.602,17.767-6.545C550.018,628.563,551.489,621.619,553.559,615.272z"
	/>
<path fill-rule="evenodd" clip-rule="evenodd" fill="#EFA506" d="M475.013,633.039c6.211,3.763,8.91,11.038,13.091,16.831
	c6.342,0.515,14.812-1.098,19.636,0.936c-2.047,6.992-7.488,10.59-10.286,16.831c0.783,7.632,4.836,11.994,4.675,20.571
	c-8.116-0.3-11.941-4.89-18.701-6.546c-6.787,2.876-8.698,10.628-17.766,11.221c0-6.545,0-13.091,0-19.636
	c-3.18-6.794-12.53-7.419-14.961-14.961c8.283,0.179,10.419-5.79,18.702-5.61C471.447,646.305,473.135,639.577,475.013,633.039z"/>
<path fill-rule="evenodd" clip-rule="evenodd" fill="#EFA506" d="M528.312,678.857c6.829,3.145,7.302,12.646,13.091,16.831
	c6.343,0.515,14.813-1.099,19.637,0.935c-1.357,7.994-8.677,10.025-11.221,16.831c0.937,7.791,4.564,12.891,5.61,20.572
	c-7.511-0.594-12.229-3.979-18.701-5.61c-6.783,2.567-9.688,9.013-17.767,10.285c0-6.233,0-12.468,0-18.701
	c-2.634-7.651-13.006-7.565-14.961-15.896c6.184-0.984,11.115-3.223,16.831-4.675C523.662,692.909,526.14,686.036,528.312,678.857z"
	/>
<path display="none" fill-rule="evenodd" clip-rule="evenodd" fill="#4D4D4D" d="M531.117,0.935
	c113.465,5.464,196.832,48.976,268.363,99.117c17.067,11.964,34.441,26.696,49.559,42.078
	c30.594,31.13,56.301,65.093,80.416,102.857c55.255,86.532,92.437,242.599,56.104,374.026
	c-26.918,97.368-70.396,171.383-132.779,233.767c-62.142,62.142-137.598,106.67-234.701,132.779
	c-101.287,27.233-229.568,12.199-313.247-25.247C179.507,904.229,87.14,811.677,33.662,681.662
	c-18.014-43.797-29.19-94.047-32.727-150.545c-0.586-2.843,1.197-8.055-0.935-9.351c0-14.961,0-29.922,0-44.883
	c2.132-1.296,0.349-6.509,0.935-9.351c3.371-55.428,14.757-104.171,31.792-147.741c30.357-77.642,77.763-141.54,136.52-193.558
	c8.432-7.465,16.122-16.268,24.312-22.442C265.485,49.573,354.14,8.411,467.533,0.935c2.842-0.586,8.054,1.197,9.351-0.935
	c14.961,0,29.922,0,44.883,0C523.063,2.132,528.274,0.349,531.117,0.935z M719.065,162.701
	c-21.721-14.996-49.303-27.06-76.676-38.337c-44.946-18.518-110.488-29.253-169.247-25.247
	c-74.375,5.072-135.368,29.818-185.143,57.974c-5.336,3.019-10.152,6.873-14.961,10.286
	c-69.173,49.093-119.936,110.449-153.351,193.559c-15.34,38.152-24.381,85.92-24.312,137.455
	c-16.179,4.704-35.824,5.942-51.428,11.221c-8.443,8.944-4.518,21.251-1.87,33.662c9.96,46.695,20.39,91.467,29.922,134.649
	c1.738,7.873,2.946,21.786,6.545,26.182c6.382,7.794,23.529,3.887,32.728,1.87c12.551-2.751,23.063-5.434,32.727-8.415
	c25.792,42.623,53.945,80.976,89.766,111.272c70.145,59.327,172.97,107.716,301.091,97.247
	c58.426-4.774,112.023-22.014,155.221-45.818c92.804-51.141,161.288-131.366,197.299-238.441
	c9.974-29.655,11.633-61.114,16.831-94.441c9.342-2.776,18.528-5.051,29.922-7.48c9.274-1.979,25.365-2.467,30.857-7.48
	c7.14-6.52,3.059-21.626,0.935-31.792c-7.337-35.122-16.561-69.97-21.506-100.987c-3.956-8.879-5.028-19.13-7.48-29.922
	c-2.18-9.59-2.308-24.539-7.48-30.857c-12.653-15.452-51.631,7.558-65.455,6.546C830.166,258.661,782.785,206.694,719.065,162.701z"
	/>
<path fill="#EFA506" d="M156.829,608.248l-3.396-15.307l39.538-8.768l8.026,36.19c-3.018,4.57-7.859,9.08-14.522,13.526
	c-6.665,4.446-13.736,7.5-21.213,9.158c-9.504,2.107-18.228,1.952-26.177-0.469c-7.949-2.42-14.522-6.943-19.72-13.571
	c-5.199-6.627-8.764-14.301-10.697-23.019c-2.098-9.46-1.979-18.307,0.355-26.541c2.335-8.232,6.889-15.16,13.662-20.779
	c5.156-4.308,12.072-7.424,20.748-9.349c11.279-2.501,20.612-2.09,28.005,1.233c7.391,3.324,12.92,8.959,16.589,16.9l-17.464,7.448
	c-2.271-4.178-5.457-7.166-9.563-8.965c-4.105-1.798-8.802-2.111-14.09-0.938c-8.016,1.777-13.824,5.731-17.428,11.861
	c-3.604,6.131-4.297,14.195-2.079,24.193c2.392,10.783,6.581,18.34,12.569,22.668s12.865,5.631,20.633,3.908
	c3.842-0.852,7.527-2.459,11.056-4.824s6.438-4.928,8.73-7.69l-2.557-11.526L156.829,608.248z"/>
<path fill="#EFA506" d="M200.42,538.309l18.344-4.068l10.912,49.205c1.732,7.809,3.08,12.818,4.049,15.031
	c1.609,3.545,4.142,6.115,7.595,7.711c3.452,1.598,7.741,1.826,12.864,0.691c5.205-1.155,8.895-3.088,11.066-5.803
	s3.184-5.681,3.033-8.898c-0.15-3.217-1.022-8.421-2.617-15.609l-11.146-50.258l18.344-4.068l10.583,47.717
	c2.418,10.906,3.631,18.723,3.639,23.445c0.007,4.723-0.979,8.93-2.955,12.619c-1.979,3.689-4.993,6.949-9.048,9.775
	c-4.055,2.828-9.676,5.04-16.864,6.635c-8.676,1.924-15.478,2.381-20.404,1.371c-4.928-1.01-9.047-2.826-12.36-5.451
	c-3.313-2.623-5.771-5.602-7.377-8.93c-2.353-4.939-4.655-12.491-6.91-22.654L200.42,538.309z"/>
<path fill="#EFA506" d="M394.272,590.633l-19.954,4.426l-12.509-18.877l-36.315,8.055l-2.922,22.299l-19.459,4.316l15.237-98.697
	l19.396-4.303L394.272,590.633z M352.527,562.181l-19.995-30.937l-4.793,36.434L352.527,562.181z"/>
<path fill="#EFA506" d="M404.064,588.462l-20.148-90.849l38.607-8.563c9.708-2.153,16.944-2.902,21.706-2.246
	c4.762,0.657,8.928,2.777,12.497,6.364c3.568,3.587,5.95,8.065,7.141,13.435c1.513,6.816,0.756,12.891-2.266,18.221
	c-3.022,5.33-8.393,9.459-16.109,12.383c4.479,1.435,8.317,3.25,11.513,5.443c3.195,2.195,7.768,6.34,13.714,12.434l15.023,15.264
	l-21.938,4.865l-17.646-16.828c-6.276-6.02-10.486-9.756-12.63-11.211c-2.142-1.451-4.261-2.305-6.354-2.557
	c-2.094-0.25-5.246,0.091-9.46,1.025l-3.719,0.824l8.411,37.927L404.064,588.462z M410.78,531.967l13.571-3.01
	c8.801-1.952,14.212-3.543,16.237-4.771c2.024-1.23,3.455-2.891,4.292-4.984c0.836-2.092,0.951-4.502,0.347-7.229
	c-0.678-3.057-2.041-5.344-4.09-6.862c-2.05-1.517-4.616-2.194-7.7-2.031c-1.533,0.124-6.018,1.011-13.455,2.659l-14.314,3.175
	L410.78,531.967z"/>
<path fill="#EFA506" d="M577.583,549.979l-19.955,4.426l-12.509-18.877l-36.315,8.055l-2.921,22.299l-19.459,4.315L501.66,471.5
	l19.397-4.302L577.583,549.979z M535.837,521.525l-19.995-30.935l-4.793,36.433L535.837,521.525z"/>
<path fill="#EFA506" d="M587.498,547.779l-20.148-90.849l17.848-3.958l50.638,52.423l-13.455-60.669l17.042-3.779l20.148,90.848
	l-18.405,4.082L591.4,484.756L604.54,544L587.498,547.779z"/>
<path fill="#EFA506" d="M699.417,522.959l-16.739-75.481l-26.957,5.979l-3.409-15.369l72.196-16.012l3.408,15.369l-26.895,5.965
	l16.739,75.481L699.417,522.959z"/>
<path fill="#EFA506" d="M756.492,510.301l-20.148-90.85l67.362-14.939l3.409,15.369l-49.02,10.872l4.467,20.141l45.611-10.116
	l3.395,15.307l-45.61,10.116l5.483,24.727l50.754-11.256l3.395,15.307L756.492,510.301z"/>
<path fill="#EFA506" d="M841.145,491.526l-20.148-90.849l67.362-14.94l3.409,15.369l-49.02,10.871l4.467,20.141l45.611-10.115
	l3.395,15.307l-45.61,10.115l5.483,24.727l50.754-11.256l3.395,15.307L841.145,491.526z"/>
<g display="none">
	<g display="inline">
		<path fill="#EFA506" d="M184.013,456.056c-15.831-18.108-31.661-36.218-47.49-54.328c5.77-10.27,8.363-15.187,13.181-24.625
			c12.695,8.536,25.009,17.404,37.135,26.73c-8.28-17.715-16.298-35.552-24.042-53.508c4.024-8.532,5.884-12.607,9.513-20.415
			c13.653,21.347,27.308,42.692,40.962,64.039c-1.702,4.158-2.577,6.294-4.426,10.696c-11.101-16.348-22.204-32.694-33.305-49.043
			c9.084,20.491,18.457,40.829,28.134,61.046c-2.147,4.844-3.28,7.335-5.722,12.468c-14.023-10.863-28.328-21.127-43.117-30.921
			c12.15,14.79,24.299,29.579,36.45,44.368C188.573,447.813,187.128,450.511,184.013,456.056z"/>
		<path fill="#EFA506" d="M197.154,352.993c-4.053-6.667-7.073-13.152-8.965-19.48c-1.397-4.675-2.331-9.526-2.799-14.507
			c-0.468-4.979-0.384-9.486,0.219-13.453c0.805-5.298,2.417-10.207,4.875-14.543c4.448-7.849,10.291-10.572,15.881-7.992
			c8.666,4,12.83,13.394,16.816,21.697c4.793,9.984,7.741,21.607,8.494,32.994c0.675,10.202-0.568,18.306-3.81,24.958
			c-3.283,6.735-7.393,9.421-12.859,7.916C209.541,369.079,203.488,363.411,197.154,352.993z M202.109,341.028
			c4.329,7.611,8.248,11.982,11.658,13.317c3.411,1.336,5.972,0.125,7.857-3.628s2.468-8.723,1.808-15.131
			c-0.661-6.408-2.865-13.764-6.793-22.051c-3.882-8.189-7.538-13.159-10.996-14.735c-3.458-1.575-6.472-0.237-8.872,4.083
			c-2.401,4.32-3.228,9.934-2.463,16.581C195.074,326.111,197.712,333.295,202.109,341.028z"/>
		<path fill="#EFA506" d="M243.969,334.955c-10.282-24.642-20.561-49.285-30.84-73.928c3.124-3.432,4.767-5.094,8.273-8.329
			c13.029,11.516,25.522,23.583,37.908,35.781c-5.708-17.218-11.417-34.436-17.123-51.654c4.322-2.74,6.605-4.073,11.471-6.672
			c7.992,26.084,15.99,52.167,23.982,78.252c-4.534,2.435-6.629,3.68-10.542,6.245c-11.735-12.068-23.568-24.021-35.913-35.47
			c6.359,16.318,12.719,32.636,19.077,48.954C247.57,330.789,246.323,332.151,243.969,334.955z"/>
		<path fill="#EFA506" d="M290.472,301.718c-7.329-26.41-14.656-52.82-21.984-79.229c20.536-11.277,39.852-24.627,59.182-37.817
			c0.984,5.556,1.476,8.333,2.46,13.889c-14.207,9.806-28.415,19.614-43.107,28.687c1.773,7.104,2.66,10.658,4.434,17.763
			c13.243-8.256,26.095-17.127,38.855-26.106c1.006,5.525,1.508,8.287,2.515,13.813c-12.524,8.837-25.111,17.494-38,25.791
			c2.177,8.722,3.266,13.083,5.443,21.805c14.036-8.931,27.505-18.686,40.972-28.442c0.967,5.537,1.451,8.306,2.418,13.844
			C326.401,278.369,309.146,291.191,290.472,301.718z"/>
		<path fill="#EFA506" d="M377.189,241.017c-1.383-11.68-2.77-23.358-4.152-35.038c-12.45-9.111-25.085-17.859-37.926-26.412
			c8.178-5.608,12.33-8.467,20.7-14.114c8.305,6.175,16.461,12.55,24.431,19.152c5.428-15.422,11.173-30.733,17.259-45.908
			c8.378-5,12.573-7.398,20.918-11.814c-10.202,22.326-19.686,44.89-28.56,67.775c1.085,11.688,2.173,23.375,3.259,35.063
			C386.723,234.151,383.529,236.432,377.189,241.017z"/>
		<path fill="#EFA506" d="M459.438,108.961c11.416-3.278,21.896-5.504,33.692-6.836c6.452-0.378,11.102,0.215,14.106,1.055
			s5.591,2.4,7.763,4.581c2.171,2.182,3.819,4.952,5.006,8.158s1.592,6.562,1.212,10.068c-0.412,3.802-1.699,7.056-3.805,9.781
			c-2.106,2.726-8.056,5.625-8.056,5.625c-0.024,0.366,7.259,5.514,9.152,9.563c1.894,4.049,2.587,8.417,2.051,13.097
			c-0.422,3.685-1.573,7.08-3.379,10.204c-1.806,3.124-3.959,5.384-6.6,6.947c-2.642,1.563-5.782,2.366-9.493,2.614
			c-2.328,0.156-7.888-0.07-17.194,1.5c-9.843,1.582-14.948,3.125-25.341,7.192C458.851,164.66,459.143,136.811,459.438,108.961z
			 M476.219,118.171c-0.273,7.691-0.411,11.538-0.684,19.229c4.25-0.963,6.354-1.347,10.509-1.889
			c6.176-0.806,9.9-0.888,11.369-1.086c2.657-0.358,4.775-1.236,6.394-2.754s2.543-3.563,2.766-6.209
			c0.214-2.533-0.256-4.667-1.435-6.358c-1.179-1.69-3.075-2.799-5.678-3.153c-1.547-0.21-6.039-0.433-13.745,0.576
			C481.954,117.02,480.053,117.353,476.219,118.171z M475.043,151.241c-0.316,8.894-0.475,13.342-0.791,22.236
			c5.671-1.436,8.466-1.969,13.946-2.575c5.332-0.59,8.634-0.714,10.034-1.005c2.131-0.443,3.979-1.393,5.452-3.004
			c1.473-1.611,2.339-3.836,2.597-6.736c0.219-2.454-0.109-4.605-1.006-6.427c-0.896-1.82-2.314-3.209-4.27-4.08
			c-1.957-0.87-6.313-1.462-13.327-0.654C482.7,149.569,480.168,150.029,475.043,151.241z"/>
		<path fill="#EFA506" d="M604.424,211.098c-7.896-2.449-11.815-3.611-19.502-5.825c-1.494-7.963-2.268-11.953-3.857-19.95
			c-11.231-3.146-22.477-6.201-33.754-9.178c-3.801,6.571-5.649,9.877-9.237,16.524c-6.481-1.655-9.603-2.439-15.522-3.938
			c12.794-25.004,27.055-48.856,42.819-72.099c7.634,2.104,11.559,3.21,19.553,5.541
			C592.044,151.689,598.578,181.301,604.424,211.098z M578.048,170.47c-2.156-10.923-4.368-21.83-6.633-32.73
			c-5.815,8.634-11.43,17.404-16.842,26.297C563.642,166.448,568.37,167.727,578.048,170.47z"/>
		<path fill="#EFA506" d="M681.395,209.062c6.57,5.016,9.801,7.572,16.09,12.789c-5.603,6.469-12.144,10.152-19.713,11.207
			c-7.571,1.055-16.156-0.431-25.839-4.125c-10.809-4.124-20.692-11.125-26.94-21.039c-6.084-9.654-7.157-21.546-4.43-32.368
			c2.729-10.831,9.43-21.196,20.304-25.273c11.869-4.451,25.263-2.16,36.616,2.636c10.361,4.376,20.23,11.252,26.3,20.98
			c3.22,5.16,4.769,11.189,4.715,17.966c-7.888-2.377-11.885-3.479-19.923-5.518c0.191-4.277-1.123-8.324-3.993-12.11
			c-2.871-3.786-6.938-6.806-12.175-8.968c-7.236-2.989-13.766-3.304-19.44-1.014c-5.678,2.291-9.753,8.001-12.312,16.99
			c-2.715,9.54-2.497,17.09,0.556,22.659c3.054,5.57,7.904,9.582,14.597,12.209c4.935,1.938,9.56,2.408,13.935,1.405
			C674.116,216.483,677.993,213.691,681.395,209.062z"/>
		<path fill="#EFA506" d="M704.207,251.305c9.43-23.38,18.87-46.755,28.299-70.136c7.366,4.211,10.976,6.396,17.97,10.939
			c-4.425,10.162-8.849,20.325-13.274,30.486c15.402-2.652,30.63-4.596,46.216-5.761c8.062,7.07,11.851,10.767,18.771,18.522
			c-13.098-0.788-26.251-0.519-39.323,0.577c3.039,21.259,4.846,42.328,5.279,63.801c-5.76-6.589-8.946-9.729-15.778-15.73
			c-0.79-15.609-2.369-31.174-4.614-46.64c-7.191,0.868-10.826,1.402-18.137,2.652c-3.613,8.298-5.42,12.447-9.033,20.745
			C714.221,256.827,710.934,254.938,704.207,251.305z"/>
	</g>
</g>
<g>
	<g>
		<path fill="#EFA506" d="M191.538,434.26c-19.284-5.705-38.569-11.407-57.854-17.109c2.732-9.243,5.79-18.389,9.172-27.414
			c14.753-0.315,29.391-0.166,44.134,0.456c-10.641-10.218-20.924-20.669-30.979-31.464c4.802-10.092,7.366-15.004,12.783-24.554
			c17.453,10.031,34.908,20.059,52.36,30.091c-2.831,4.989-4.197,7.528-6.831,12.693c-14.072-7.278-28.145-14.553-42.215-21.834
			c11.327,12.414,23.182,24.347,35.532,35.743c-2.505,5.544-3.704,8.364-5.981,14.094c-16.759-1.066-33.569-1.319-50.354-0.769
			c14.954,5.195,29.909,10.389,44.863,15.583C194.202,425.484,193.276,428.382,191.538,434.26z"/>
		<path fill="#EFA506" d="M202.057,337.994c-5.217-3.263-8.951-7.094-11.044-11.557c-1.547-3.3-2.397-7.093-2.518-11.33
			c-0.121-4.235,0.547-8.421,1.974-12.482c1.899-5.408,5.111-11.049,9.5-16.682c6.559-8.419,15.587-15.779,26.246-17.885
			c9.116-1.801,17.217,1.142,24.21,8.062c6.935,6.863,9.909,14.639,9.451,23.21c-0.458,8.572-4.24,16.762-10.812,25.271
			c-5.715,7.399-13.314,13.943-22.332,16.834C218.528,344.066,210.208,343.092,202.057,337.994z M211.083,323.417
			c5.619,3.903,11.064,5.105,16.308,3.847c5.243-1.258,9.665-4.28,13.473-9.104s5.686-9.761,5.646-15.063
			s-2.565-10.326-7.772-15.017c-5.146-4.635-10.369-6.582-15.71-5.629c-5.341,0.954-10.351,4.225-14.778,9.833
			c-4.427,5.608-6.493,11.336-6.226,16.888C202.292,314.724,205.375,319.451,211.083,323.417z"/>
		<path fill="#EFA506" d="M280.187,289.2c-13.802-14.673-27.606-29.344-41.412-44.014c4.945-4.638,7.465-6.896,12.59-11.288
			c17.331,2.8,34.168,6.501,51.059,11.288c-7.82-10.938-15.637-21.88-23.456-32.82c5.221-3.699,7.868-5.492,13.225-8.961
			c11.016,16.851,22.034,33.701,33.053,50.55c-4.88,3.161-7.289,4.799-12.035,8.186c-15.899-5.155-32.186-9.098-48.671-11.847
			c8.59,9.937,17.186,19.869,25.778,29.804C286.198,283.644,284.17,285.464,280.187,289.2z"/>
		<path fill="#EFA506" d="M338.277,245.944c-10.213-17.345-20.425-34.69-30.635-52.037c18.331-10.315,36.971-19.241,56.495-27.068
			c1.475,3.808,2.213,5.71,3.688,9.518c-13.797,5.544-27.152,11.585-40.425,18.288c2.509,4.729,3.763,7.094,6.272,11.824
			c11.759-6.173,23.856-11.699,36.215-16.56c1.5,3.78,2.25,5.671,3.75,9.451c-12.013,4.724-23.769,10.096-35.198,16.095
			c3.081,5.806,4.619,8.708,7.699,14.515c12.123-6.364,24.632-11.984,37.434-16.84c1.453,3.798,2.181,5.698,3.634,9.496
			C370.282,229.393,354.19,237.058,338.277,245.944z"/>
		<path fill="#EFA506" d="M416.531,213.045c-2.714-9.788-4.071-14.681-6.785-24.469c-12.606-8.746-25.399-16.746-38.759-24.292
			c7.509-2.723,11.298-3.989,18.931-6.326c8.556,5.594,16.883,11.538,24.951,17.815c3.996-9.313,8.37-18.462,13.108-27.42
			c7.689-1.538,11.555-2.212,19.313-3.367c-8.178,13.018-15.638,26.167-22.576,39.886c2.274,9.865,3.411,14.797,5.685,24.663
			C424.823,210.82,422.048,211.522,416.531,213.045z"/>
		<path fill="#EFA506" d="M486.211,141.164c11.301-0.375,22.468-0.428,33.772-0.164c6.691,0.258,11.669,0.812,14.917,1.462
			c3.248,0.651,6.101,1.747,8.539,3.261c2.438,1.515,4.379,3.425,5.813,5.708s1.962,4.726,1.628,7.313
			c-0.361,2.806-1.713,5.249-3.997,7.361c-2.284,2.112-8.664,4.437-8.664,4.437c-0.007,0.187,8.095,3.755,10.283,6.629
			c2.188,2.874,2.999,6.053,2.516,9.507c-0.381,2.72-1.541,5.255-3.43,7.629c-1.89,2.375-4.237,4.174-7.043,5.429
			c-2.808,1.255-6.124,1.888-9.98,1.938c-2.419,0.032-8.218-0.315-17.399-0.495c-9.712-0.249-14.572-0.192-24.256,0.274
			C488.011,181.357,487.111,161.26,486.211,141.164z M503.266,150.762c0.003,5.583,0.003,8.374,0.006,13.957
			c4.195-0.019,6.293,0.001,10.49,0.103c6.238,0.151,10.119,0.315,11.643,0.264c2.756-0.093,4.962-0.66,6.634-1.733
			s2.603-2.573,2.769-4.516c0.158-1.86-0.405-3.431-1.707-4.698s-3.341-2.132-6.088-2.531c-1.634-0.237-6.372-0.605-14.2-0.768
			C508.992,150.76,507.083,150.745,503.266,150.762z M503.276,174.766c0.003,6.456,0.006,9.682,0.009,16.138
			c5.496-0.024,8.247,0.02,13.746,0.218c5.353,0.193,8.769,0.286,10.211,0.153c2.207-0.204,4.099-0.842,5.607-1.999
			c1.508-1.155,2.374-2.793,2.573-4.926c0.169-1.804-0.238-3.387-1.236-4.738s-2.534-2.398-4.605-3.122
			c-2.072-0.723-6.654-1.341-13.737-1.56C510.816,174.776,508.301,174.744,503.276,174.766z"/>
		<path fill="#EFA506" d="M623.486,223.574c-5.981-2.369-8.993-3.475-15.052-5.527c-0.64-6.014-1.017-9.025-1.87-15.055
			c-9.579-3.03-19.293-5.631-29.106-7.783c-3.619,4.825-5.381,7.261-8.81,12.172c-6.048-1.211-9.084-1.743-15.164-2.661
			c12.878-18.758,26.724-36.334,41.885-53.299c7.105,1.716,10.646,2.663,17.689,4.729
			C617.977,178.513,621.443,200.767,623.486,223.574z M604.834,191.802c-1.511-9.819-2.405-14.737-4.47-24.569
			c-6.649,7.509-9.852,11.334-16.001,19.104C592.595,188.265,596.694,189.357,604.834,191.802z"/>
		<path fill="#EFA506" d="M684.512,229.389c4.583,4.581,6.819,6.925,11.18,11.709c-5.675,4.111-11.596,6.021-17.796,5.895
			c-6.201-0.126-12.662-2.165-19.663-5.989c-8.662-4.731-14.657-10.626-18.279-18.272c-3.623-7.646-3.869-15.815-0.225-24.598
			c3.855-9.29,10.175-15.332,19.098-17.265c11.134-2.413,20.697,1.106,30.142,5.728c9.279,4.541,15.989,11.827,19.315,19.152
			c1.976,4.351,2.422,9.122,1.345,14.235c-6.342-2.918-9.523-4.283-15.895-6.836c0.771-3.201,0.247-6.424-1.622-9.631
			c-1.869-3.207-4.854-5.97-8.913-8.19c-5.61-3.068-10.968-3.981-15.884-2.821c-4.917,1.16-8.859,5.074-11.928,11.587
			c-3.257,6.912-3.938,12.593-2.213,17.058c1.726,4.465,4.993,7.94,9.893,10.613c3.612,1.971,7.19,2.836,10.822,2.583
			S681.059,232.457,684.512,229.389z"/>
		<path fill="#EFA506" d="M696.324,264.199c11.92-16.218,23.847-32.431,35.767-48.649c5.894,4.385,8.808,6.661,14.552,11.379
			c-6.758,8.325-10.137,12.487-16.896,20.813c15.217,0.771,30.036,2.35,45.085,4.732c7.275,7.259,10.835,11.041,17.778,18.917
			c-13.557-3.566-27.087-6.719-40.979-8.705c0.055,16.669-0.985,33.346-3.156,49.874c-5.615-6.431-8.493-9.525-14.369-15.475
			c1.559-12.029,2.52-24.138,2.904-36.261c-6.839-0.68-10.225-0.914-16.917-1.189c-4.599,5.665-6.897,8.497-11.496,14.163
			C703.752,269.817,701.296,267.898,696.324,264.199z"/>
	</g>
</g>
<g>
	<g>
		<path fill="#EFA506" d="M202.269,733.341c15.122-13.255,30.237-26.517,45.358-39.773c6.511,7.424,9.859,10.974,16.716,17.753
			c-6.091,13.368-11.753,26.819-17.064,40.517c12.953-6.762,25.592-13.864,38.1-21.417c7.246,6.031,10.946,8.887,18.471,14.285
			c-11.647,16.418-23.285,32.843-34.93,49.263c-5.525-3.964-8.259-6.02-13.66-10.271c9.729-12.502,19.453-25.008,29.179-37.513
			c-14.014,9.289-28.46,17.925-43.282,25.862c-5.451-4.723-8.14-7.159-13.438-12.195c6.316-15.678,13.295-31.091,20.937-46.168
			c-11.4,10.984-22.801,21.968-34.205,32.948C209.498,741.464,207.061,738.805,202.269,733.341z"/>
		<path fill="#EFA506" d="M297.113,777.181c3.369-5.148,7.245-8.789,11.515-10.98c3.155-1.619,6.679-2.647,10.528-3.15
			c3.847-0.503,7.576-0.382,11.209,0.336c4.838,0.956,9.929,2.901,15.269,5.544c8.282,4.099,16.056,10.249,20.507,18.495
			c4.072,7.544,4.617,15.985,1.167,25.199c-3.421,9.138-9.497,15.164-18.471,17.362c-10.508,2.574-21.771-0.396-31.185-5.182
			c-9.598-4.879-18.832-12.321-23.184-22.444C290.753,793.719,291.849,785.226,297.113,777.181z M311.868,785.943
			c-3.466,5.898-4.231,11.499-2.086,16.779c2.145,5.279,6.357,9.616,12.518,12.746s12.048,3.945,17.44,2.534
			s9.401-5.432,12.164-11.873c2.73-6.365,2.937-11.881,0.806-16.578c-2.131-4.698-5.977-8.368-11.642-11.247
			c-5.666-2.879-10.972-3.839-16.126-2.805C319.787,776.534,315.39,779.951,311.868,785.943z"/>
		<path fill="#EFA506" d="M369.752,845.437c6.389-19.104,12.773-38.209,19.155-57.314c5.427,1.804,8.154,2.643,13.632,4.195
			c5.954,16.004,13.263,31.272,21.214,46.364c2.514-13.21,5.027-26.419,7.54-39.629c5.307,0.987,7.967,1.424,13.297,2.188
			c-2.942,19.916-5.884,39.832-8.826,59.748c-6.823-0.978-10.229-1.542-17.02-2.83c-8.389-14.895-16.168-29.981-22.646-45.82
			c-3.636,12.622-7.279,25.242-10.916,37.863C378.984,848.431,375.895,847.479,369.752,845.437z"/>
		<path fill="#EFA506" d="M453.77,863.138c2.004-20.028,4.005-40.057,6.008-60.085c17.709,1.375,35.097,1.617,52.838,0.762
			c0.257,4.075,0.387,6.11,0.644,10.186c-13.196,0.875-26.443,0.976-39.651,0.303c-0.296,5.346-0.443,8.019-0.74,13.364
			c12.781,0.646,25.596,0.604,38.371-0.137c0.222,4.061,0.334,6.093,0.557,10.153c-13.148,0.761-26.338,0.805-39.491,0.14
			c-0.364,6.563-0.545,9.845-0.909,16.407c15.393,0.532,30.559,0.385,45.938-0.445c0.272,4.058,0.408,6.086,0.681,10.144
			C496.467,865.114,475.283,864.852,453.77,863.138z"/>
		<path fill="#EFA506" d="M554.34,859.671c-1.638-10.024-2.454-15.033-4.092-25.058c-11.039-9.986-21.428-20.286-31.48-31.264
			c6.714-0.569,10.062-0.941,16.733-1.85c6.671,7.221,13.651,14.155,20.909,20.786c4.249-8.795,8.132-17.767,11.638-26.883
			c6.433-1.54,9.631-2.389,15.98-4.247c-5.446,13.907-11.459,27.296-18.19,40.629c2.069,9.91,3.103,14.864,5.173,24.774
			C564.371,857.948,561.034,858.569,554.34,859.671z"/>
		<path fill="#EFA506" d="M615.191,780.324c8.805-3.563,17.457-7.505,25.922-11.814c5.033-2.563,8.824-4.421,11.451-5.434
			c2.627-1.012,5.201-1.541,7.758-1.582c2.557-0.04,5.025,0.435,7.411,1.437s4.286,2.59,5.674,4.799
			c1.505,2.396,2.08,5.1,1.667,8.117s-4.075,8.605-4.075,8.605c0.104,0.158,8.716-1.808,12.288-0.989
			c3.572,0.819,6.326,2.655,8.213,5.589c1.485,2.311,2.209,5.021,2.113,8.144c-0.097,3.124-1.056,6.16-2.891,9.072
			c-1.836,2.913-4.649,5.68-8.436,8.209c-2.374,1.586-8.299,5.098-18.038,9.96c-8.599,4.239-17.354,8.161-26.242,11.756
			C630.399,817.57,622.791,798.949,615.191,780.324z M632.611,783.764c2.337,5.07,3.506,7.604,5.843,12.675
			c3.687-1.682,5.519-2.549,9.158-4.337c5.409-2.658,8.685-4.491,9.912-5.299c2.221-1.462,3.7-3.098,4.435-4.871
			s0.606-3.506-0.358-5.2c-0.924-1.622-2.231-2.626-3.908-3.028s-3.668-0.121-5.962,0.835c-1.364,0.568-5.124,2.529-11.409,5.59
			C637.255,781.621,635.712,782.349,632.611,783.764z M642.658,805.563c2.703,5.863,4.056,8.796,6.758,14.659
			c5.597-2.553,8.371-3.888,13.866-6.669c5.349-2.707,8.633-4.669,9.925-5.634c1.979-1.478,3.377-3.158,4.089-5.028
			c0.712-1.868,0.517-3.731-0.558-5.584c-0.909-1.567-2.19-2.604-3.828-3.126s-3.545-0.501-5.732,0.043
			c-2.188,0.545-6.451,2.566-12.93,5.804C649.649,802.326,647.33,803.433,642.658,805.563z"/>
		<path fill="#EFA506" d="M771.867,745.525c-5.262,5.521-7.956,8.206-13.458,13.425c-5.972-1.904-8.927-2.904-14.777-5.001
			c-8.3,7.327-16.697,14.312-25.415,21.136c1.163,6.006,1.697,9.028,2.672,15.111c-5.908,4.308-8.91,6.387-14.998,10.396
			c-2.214-22.563-5.726-44.599-10.724-66.712c4.836-3.826,7.214-5.801,11.879-9.873C728.282,732.68,749.666,739.756,771.867,745.525
			z M732.864,749.932c-9.288-3.758-13.852-5.76-22.801-9.985c2.612,9.488,3.799,14.294,5.921,24.013
			C722.891,758.571,726.269,755.766,732.864,749.932z"/>
		<path fill="#EFA506" d="M794.356,681.898c4.892-4.649,7.304-7.057,12.042-12.039c4.311,5.629,6.198,11.971,5.509,18.91
			c-0.689,6.941-3.943,14.461-9.495,22.081c-5.912,8.115-14.361,14.851-24.26,17.081c-8.85,1.993-16.855-0.625-23.846-7.071
			c-7.394-6.819-10.811-14.571-10.765-23.114s3.171-16.645,9.354-25.027c5.4-7.321,11.309-12.258,18.117-14.867
			c4.043-1.55,8.582-1.888,13.647-0.934c-2.303,6.072-3.524,9.08-6.106,15.029c-3.122-0.965-6.244-0.735-9.394,0.626
			c-3.148,1.361-5.91,3.688-8.361,6.995c-3.388,4.569-4.953,9.146-4.702,13.945c0.251,4.801,3.057,9.543,8.572,14.17
			c5.854,4.91,11.232,6.986,16.167,6.043s9.373-3.938,13.115-8.976c2.759-3.714,4.245-7.587,4.451-11.501
			S797.246,685.541,794.356,681.898z"/>
		<path fill="#EFA506" d="M830.082,665.609c-17.626-9.719-35.242-19.453-52.865-29.177c2.964-5.441,4.391-8.215,7.122-13.859
			c9.625,4.727,14.436,7.091,24.061,11.817c-3.237-14.021-7.026-27.671-11.502-41.347c3.006-8.132,4.397-12.288,6.932-20.774
			c4.634,12.228,8.601,24.706,11.87,37.367c16.141-6.072,31.411-13.671,46.492-21.987c-2.85,9.712-4.409,14.471-7.778,23.794
			c-11.569,4.834-23.408,9.017-35.452,12.502c1.429,6.808,2.068,10.248,3.189,17.196c6.55,3.217,9.824,4.823,16.374,8.04
			C835.286,655.873,833.595,659.158,830.082,665.609z"/>
	</g>
</g>
</svg>
