<?xml version="1.0" encoding="utf-8"?>
<!-- Generator: Adobe Illustrator 13.0.0, SVG Export Plug-In . SVG Version: 6.00 Build 14948)  -->
<!DOCTYPE svg PUBLIC "-//W3C//DTD SVG 1.1//EN" "http://www.w3.org/Graphics/SVG/1.1/DTD/svg11.dtd">
<svg version="1.1" id="Layer_1" xmlns="http://www.w3.org/2000/svg" xmlns:xlink="http://www.w3.org/1999/xlink" x="0px" y="0px"
	 width="3223px" height="916px" viewBox="39.044 11 3223 916" enable-background="new 39.044 11 3223 916" xml:space="preserve">
<path d="M1083.044,331c0,61.667,0,123.333,0,185c-32.667,0-65.333,0-98,0c0-162,0-324,0-486c71.575,3.107,142.752-4.173,205,0
	c80.44,5.393,130.767,65.942,131,147c0.213,74.171-38.883,118.399-96,138c31.688,58.312,64.563,115.436,97,173
	c60.051-148.268,122.893-298.533,183-450c3.68-9.273,8.621-26.128,16-26c8.45,0.146,11.618,18.084,16,29
	c63.137,157.286,131.054,316.909,193,475c-36.333,0-72.667,0-109,0c-5.965-17.702-13.529-33.805-19-52c-53.667,0-107.333,0-161,0
	c-8.047,15.953-12.842,35.158-20,52c-64,0-128,0-192,0c-35.651-59.349-65.285-124.716-100-185c0-0.333,0-0.667,0-1
	C1114.042,330.665,1096.38,328.67,1083.044,331z M1217.044,176c-2.212-18.806-7.567-31.534-19-40c-24.887-18.43-75.496-4.673-115-9
	c0,36.333,0,72.667,0,109c62.752-0.987,134.151,13.289,134-50C1218.699,184.922,1218.699,177.078,1217.044,176z M1565.044,372
	c-14.557-41.776-28.671-83.996-44-125c-15.271,41.398-30.271,83.062-45,125C1503.379,373.667,1537.709,373.667,1565.044,372z"/>
<path fill="#63BC47" d="M41.044,26c297.343,0,594.652,0,892,0c0,297.343,0,594.652,0,892c-297.657,0-595.349,0-893,0
	c0-296.335,0-592.666,0-889C39.958,27.581,39.879,26.168,41.044,26z M377.044,243c-13.631-48.729-28.943-102.432-59-131
	c-13.831-13.146-40.874-20.41-60-9c-53.611,31.984-40.569,124.462-23,185c19.046,65.627,46.241,121.367,71,170
	c-68.443,65.221-108.18,159.155-113,288c21.238-18.514,40.706-46.18,78-50c69.297-7.099,101.036,48.68,142,73
	c5.93-16.07,12.282-31.718,19-47c13.293,2.374,28.36,2.974,41,6c-5.805,15.608-11.872,33.465-18,50c-1.812,4.89-7.798,12.43-1,14
	c4.775,1.104,6.522-5.807,9-12c7.114-17.781,12.94-34.79,20-49c13.771,1.896,28.943,2.391,41,6c-8.525,24.142-18.317,47.017-26,72
	c137.958,35.063,262.706-32.393,262-163c-0.465-85.993-49.018-137.431-93-184c44.164-64.578,89.813-130.1,123-207
	c11.164-25.868,23.173-54.949,23-87c-0.185-34.254-21.795-65.292-64-62c-38.781,3.025-62.692,36.545-81,64
	c-44.748,67.102-73.823,161.4-100,241c-41.222-15.329-108.979-18.462-158-11C401.573,349.636,391.741,295.542,377.044,243z"/>
<path d="M3226.044,47c-3.224,31.776-7.493,62.507-12,93c-27.485-7.543-78.623-31.42-118-16c-20.147,7.891-37.93,33.618-26,63
	c12.196,30.038,59.89,38.993,89,53c43.819,21.085,88.548,51.687,100,106c5.751,27.273,2.457,60.727-9,88
	c-19.317,45.986-61.425,77.715-121,85c-64.335,7.867-118.131-11.106-168-34c4.446-32.887,8.45-66.216,12-100
	c4.884-1.894,8.962,3.549,13,6c36.985,22.445,153.173,58.581,175-1c10.244-27.961-10.546-49.372-26-58
	c-17.022-9.503-38.144-14.535-57-23c-51.569-23.151-105.615-56.375-110-127c-3.256-52.447,16.682-90.757,44-117
	c21.351-20.509,49.957-36.245,93-39C3154.251,22.85,3189.982,34.934,3226.044,47z"/>
<path d="M2048.044,73c45.149,43.112,45.515,168.345-11,199c25.207,20.02,46.937,47.875,50,90c3.522,48.445-18.01,87.688-42,112
	c-21.238,21.523-53.757,39.393-92,42c-60.313,4.113-132.718-3.041-202,0c0-162.333,0-324.669,0-487
	c98.498,6.502,229.813-19.814,284,31C2038.959,64.751,2043.293,69.084,2048.044,73z M1849.044,127c0,32.333,0,64.667,0,97
	c34.912-3.209,66.026,4.381,95,0c49.221-7.443,47.59-96.83-5-97C1911.376,125.333,1876.712,125.333,1849.044,127z M1939.044,419
	c21.001-2.092,35.759-14.425,42-30c8.771-21.887,0.659-46.404-15-58c-24.96-18.483-77.175-4.653-117-9c0,32.333,0,64.667,0,97
	C1879.871,417.014,1911.993,421.694,1939.044,419z"/>
<path display="none" fill="#63BC47" d="M2126.044,29c0,162.331,0,324.667,0,487C2124.377,356.002,2124.377,188.995,2126.044,29z"/>
<path d="M2126.044,29c86.834,6.646,204.791-16.41,265,19c27.807,16.354,50.803,44.076,60,82c12.315,50.783,0.885,107.384-32,137
	c-1.453,1.309-6.894,3.051-7,5c-0.095,1.737,25.257,24.13,28,28c32.667,46.092,24.303,131.475-15,168
	c-4.751,3.916-9.084,8.249-13,13c-49.79,55.105-186.435,28.996-286,35C2126.044,353.667,2126.044,191.331,2126.044,29z
	 M2224.044,127c0,32.333,0,64.667,0,97c35.769-4.333,70.873,6.382,99-1c45.006-11.812,41.258-95.765-9-96
	C2286.376,125.333,2251.712,125.333,2224.044,127z M2344.044,406c27.983-26.034,14.012-78.63-25-84c-31.404-4.323-61.78,3.242-95,0
	c0,32.333,0,64.667,0,97C2268.991,414.741,2318.668,429.607,2344.044,406z"/>
<path d="M2501.044,30c32.333,0,64.667,0,97,0c0,162,0,324,0,486c-32.666,0-65.334,0-98,0c0-160.997,0-322.004,0-483
	C2499.958,31.581,2499.879,30.168,2501.044,30z"/>
<path display="none" fill="#63BC47" d="M2619.044,30c0,32.333,0,64.667,0,97C2617.378,96.999,2617.378,60.001,2619.044,30z"/>
<path d="M2619.044,30c113,0,226.001,0,339,0c0,32.333,0,64.667,0,97c-40,0-80,0-120,0c-2.333,127.668-0.333,259.664-1,389
	c-32.334,0-64.666,0-97,0c-0.667-129.335,1.333-261.33-1-389c-40,0-80,0-120,0C2619.044,94.667,2619.044,62.333,2619.044,30z"/>
<path fill="#FFFFFF" d="M410.044,400c49.021-7.462,116.778-4.329,158,11c26.177-79.6,55.252-173.898,100-241
	c18.308-27.455,42.219-60.975,81-64c42.205-3.292,63.815,27.746,64,62c0.173,32.051-11.836,61.132-23,87
	c-33.188,76.9-78.836,142.422-123,207c43.982,46.569,92.535,98.007,93,184c0.706,130.607-124.042,198.063-262,163
	c7.683-24.983,17.475-47.858,26-72c-12.057-3.609-27.229-4.104-41-6c-7.06,14.21-12.886,31.219-20,49
	c-2.478,6.193-4.225,13.104-9,12c-6.798-1.57-0.812-9.11,1-14c6.128-16.535,12.195-34.392,18-50c-12.64-3.026-27.707-3.626-41-6
	c-6.718,15.282-13.07,30.93-19,47c-40.964-24.32-72.703-80.099-142-73c-37.294,3.82-56.762,31.486-78,50
	c4.82-128.845,44.557-222.779,113-288c-24.759-48.633-51.954-104.373-71-170c-17.569-60.538-30.611-153.016,23-185
	c19.126-11.41,46.169-4.146,60,9c30.057,28.568,45.369,82.271,59,131C391.741,295.542,401.573,349.636,410.044,400z M386.044,635
	c-31.681-18.985-62.536-38.798-94-58C260.959,639.342,351.442,685.825,386.044,635z M587.044,642
	c28.292,52.105,125.203,13.505,98-51c-0.667,0-1.333,0-2,0C650.688,607.645,619.967,625.923,587.044,642z"/>
<path display="none" fill="#63BC47" d="M1849.044,127c27.668-1.667,62.332-1.667,90,0C1909.044,127,1879.044,127,1849.044,127z"/>
<path display="none" fill="#63BC47" d="M2224.044,127c27.668-1.667,62.332-1.667,90,0C2284.044,127,2254.044,127,2224.044,127z"/>
<path display="none" fill="#63BC47" d="M2739.044,127c2.333,127.67,0.333,259.665,1,389
	C2737.711,388.332,2739.711,256.336,2739.044,127z"/>
<path display="none" fill="#63BC47" d="M1217.044,176c1.655,1.078,1.655,8.922,0,10C1217.044,182.667,1217.044,179.333,1217.044,176
	z"/>
<path display="none" fill="#63BC47" d="M1083.044,331c13.336-2.33,30.998-0.335,46-1c0,0.333,0,0.667,0,1
	C1113.71,331,1098.377,331,1083.044,331z"/>
<path display="none" fill="#63BC47" d="M1476.044,372c29.667,0,59.333,0,89,0C1537.709,373.667,1503.379,373.667,1476.044,372z"/>
<path d="M2483.044,722c-35.203-35.274-24.188-108.267,10-142c38.818-38.301,108.473-35.929,162-15c-2.447,24.22-5.978,47.357-9,71
	c-21.418-7.627-60.155-22.989-88-13c-14.741,5.289-29.19,24.169-21,47c7.943,22.141,41.113,28.021,63,38
	c37.618,17.151,78.676,43.131,82,97c3.911,63.383-41.832,113.926-113,116c-5.333,0-10.667,0-16,0c-39.305-2.029-70.215-12.452-97-27
	c3.07-24.596,5.813-49.521,9-74c5.837-0.613,10.134,4.87,16,8c25.369,13.535,112.752,39.104,125-6
	c10.999-40.505-34.999-47.327-61-59c-20.453-9.182-37.399-18.439-51-30C2490.796,728.915,2487.129,725.248,2483.044,722z"/>
<path display="none" fill="#63BC47" d="M1842.044,553c83-1.667,173-1.667,256,0C2012.71,553,1927.378,553,1842.044,553z"/>
<path d="M975.044,918c0-121.667,0-243.333,0-365c50,0,100,0,150,0c60.462,4.058,101.86,45.749,102,110
	c0.115,52.716-28.582,90.109-72,104c26.346,50.988,58.587,101.412,83,151c-26.667,0-53.333,0-80,0
	c-26.991-44.342-49.437-93.231-75-139c0-0.333,0-0.667,0-1c-11.337,0.663-25.328-1.328-35,1c0,46.333,0,92.667,0,139
	C1023.71,918,999.377,918,975.044,918z M1125.044,706c32.16-9.804,33.824-74.276-6-80c-24.626-3.539-41.845,2.57-71,0
	c0,27,0,54,0,81C1074.391,702.895,1102.355,712.916,1125.044,706z"/>
<path d="M1242.044,553c86.002,0.666,174.665-1.332,259,1c24.787,64.88,51.518,127.814,74,195c23.072-66.595,49.478-129.855,74-195
	c50.337-2.33,104.997-0.336,157-1c0,121.667,0,243.333,0,365c-24.333,0-48.667,0-73,0c0-119.999,0-240.001,0-360
	c-51.586,121.414-98.984,247.017-151,368c-4.333,0-8.667,0-13,0c-9.277-12.745-13.263-28.661-19-43
	c-40.228-100.544-84.447-203.849-124-306c-2.331,14.336-0.335,32.998-1,49c-36.333,0-72.667,0-109,0
	c-2.332,22.001-0.334,48.332-1,72c30.001,2.333,64.333,0.334,96,1c0,24.333,0,48.667,0,73c-31.667,0-63.333,0-95,0
	c-2.332,22.001-0.334,48.332-1,72c36.667,2.333,77.666,0.334,116,1c0,24.333,0,48.667,0,73c-63,0-126,0-189,0
	C1242.044,796.333,1242.044,674.667,1242.044,553z"/>
<path d="M1842.044,553c85.334,0,170.666,0,256,0c0.333,0,0.667,0,1,0c23.657,62.343,47.952,124.048,73,185
	c24.556-60.111,47.193-122.14,72-182c7.022,4.461,8.332,14.085,11,21c20.123,52.153,42.655,107.799,63,161
	c25.601-60.066,49.242-122.091,73-184c25.679-2.321,55.658-0.342,83-1c-49.956,123.711-98.315,249.017-150,371
	c-14.517,4.162-15.583-8.262-20-19c-18.762-45.613-40.881-99.198-59-142c-18.547,43.334-38.967,95.688-59,144
	c-3.892,9.387-4.418,22.138-17,19c-7.813-1.948-15.473-30.774-20-42c-40.592-100.638-83.836-208.859-123-307
	c-2.331,14.336-0.335,32.998-1,49c-36.333,0-72.667,0-109,0c-1.666,22.002-1.666,50.998,0,73c31.667,0,63.333,0,95,0
	c0,24.333,0,48.667,0,73c-31.667,0-63.333,0-95,0c-1.666,22.002-1.666,50.998,0,73c38.333,0,76.666,0,115,0c0,24.333,0,48.667,0,73
	c-63,0-126,0-189,0C1842.044,796.333,1842.044,674.667,1842.044,553z"/>
<path fill="#63BC47" d="M292.044,577c31.464,19.202,62.319,39.015,94,58C351.442,685.825,260.959,639.342,292.044,577z"/>
<path fill="#63BC47" d="M683.044,591c0.667,0,1.333,0,2,0c27.203,64.505-69.708,103.105-98,51
	C619.967,625.923,650.688,607.645,683.044,591z"/>
<path display="none" fill="#63BC47" d="M2787.044,602c1.711-2.288,7.633-0.367,11-1C2796.332,603.288,2790.411,601.367,2787.044,602
	z"/>
<path d="M2798.044,601c9,0,18,0,27,0c0,6.667,0,13.333,0,20c-8,0-16,0-24,0c-3.695,0.638-9.962-1.295-12,1c-5.667,0-11.333,0-17,0
	c5.165,7.173,17.297,16.033,25,24c-7.748,9.252-17.252,16.748-25,26c0.333,0,0.667,0,1,0c3.333,0,6.667,0,10,0
	c3.039-0.627,8.613,1.28,10-1c11.333,0,22.667,0,34,0c0,6.667,0,13.333,0,20c-9.333,0-18.667,0-28,0c-3.367,0.633-9.288-1.288-11,1
	c-10,0-20,0-30,0c-3.039,0.627-8.613-1.28-10,1c-6.345-0.655-15.318,1.318-20-1c-0.34-8.23,8.278-14.804,14-20
	c6.422-5.832,13.479-11.182,19-17c2.175-2.54,10.862-6.798,6-10c-7.076-6.881-15.448-12.475-23-19c-6.896-5.959-16.496-11.983-19-22
	c5.479-2.188,14.894-0.44,22-1c3.039-0.627,8.613,1.28,10-1c10,0,20,0,30,0C2790.411,601.367,2796.332,603.288,2798.044,601z"/>
<path display="none" fill="#63BC47" d="M2747.044,603c1.387-2.28,6.961-0.373,10-1C2755.657,604.28,2750.083,602.373,2747.044,603z"
	/>
<path display="none" fill="#63BC47" d="M2789.044,622c2.038-2.295,8.305-0.362,12-1C2799.005,623.295,2792.739,621.362,2789.044,622
	z"/>
<path display="none" fill="#63BC47" d="M1916.044,626c0,24.333,0,48.667,0,73C1914.378,676.998,1914.378,648.002,1916.044,626z"/>
<path display="none" fill="#63BC47" d="M2783.044,672c1.387-2.28,6.961-0.373,10-1C2791.657,673.28,2786.083,671.373,2783.044,672z"
	/>
<path display="none" fill="#63BC47" d="M2788.044,692c1.712-2.288,7.633-0.367,11-1C2797.332,693.288,2791.411,691.367,2788.044,692
	z"/>
<path display="none" fill="#63BC47" d="M2748.044,693c1.387-2.28,6.961-0.373,10-1C2756.657,694.28,2751.083,692.373,2748.044,693z"
	/>
<path display="none" fill="#63BC47" d="M2011.044,699c1.666,22.002,1.666,50.998,0,73
	C2011.044,747.667,2011.044,723.333,2011.044,699z"/>
<path d="M2774.044,808c-33.676-1.129-57.556-40.137-40-75c14.612-29.018,63.901-35.689,86-8c23.601,29.57,6.89,82.702-35,83
	C2781.377,808,2777.711,808,2774.044,808z M2749.044,756c-1.545,29.639,35.967,42.259,54,22c18.701-21.009,0.094-53.661-30-49
	C2757.694,731.378,2749.676,743.873,2749.044,756z"/>
<path display="none" fill="#63BC47" d="M1916.044,772c0,24.333,0,48.667,0,73C1914.378,822.998,1914.378,794.002,1916.044,772z"/>
<path display="none" fill="#63BC47" d="M1048.044,779c9.672-2.328,23.663-0.337,35-1c0,0.333,0,0.667,0,1
	C1071.377,779,1059.71,779,1048.044,779z"/>
<path display="none" fill="#63BC47" d="M2774.044,808c3.667,0,7.333,0,11,0C2783.645,809.657,2775.444,809.657,2774.044,808z"/>
<path d="M2735.044,821c6.239,1.095,13.286,1.381,20,2c-21.844,37.767,39.31,63.862,54,29c3.289-7.807,3.202-21.637-3-31
	c4.877-0.866,13.549-5.563,18-4c6.486,2.276,7.758,15.196,7,27c-1.824,28.417-25.483,48.499-57,45
	C2742.43,885.49,2724.475,856.997,2735.044,821z"/>
<path display="none" fill="#63BC47" d="M2031.044,845c1.666,22.002,1.666,50.998,0,73
	C2031.044,893.667,2031.044,869.333,2031.044,845z"/>
<path d="M2820.044,899c6.884-1.002,11.837,3.019,13,7c5.926,20.282-22.161,18.918-22,4
	C2811.094,905.406,2812.468,900.104,2820.044,899z"/>
<path display="none" fill="#63BC47" d="M2553.044,921c5.333,0,10.667,0,16,0C2566.009,922.661,2556.079,922.661,2553.044,921z"/>
<path display="none" fill="#63BC47" d="M2035.044,60c4.751,3.916,9.085,8.249,13,13C2043.293,69.084,2038.959,64.751,2035.044,60z"
	/>
<path display="none" fill="#63BC47" d="M2412.044,481c3.916-4.751,8.249-9.084,13-13
	C2421.128,472.751,2416.795,477.085,2412.044,481z"/>
<path display="none" fill="#FFFFFF" d="M2314.044,127c50.258,0.235,54.006,84.188,9,96c-28.127,7.382-63.231-3.333-99,1
	c0-32.333,0-64.667,0-97C2254.044,127,2284.044,127,2314.044,127z"/>
<path display="none" fill="#FFFFFF" d="M1476.044,372c14.729-41.938,29.729-83.602,45-125c15.329,41.004,29.443,83.224,44,125
	C1535.377,372,1505.71,372,1476.044,372z"/>
<path display="none" fill="#63BC47" d="M2483.044,722c4.085,3.248,7.752,6.915,11,11
	C2489.959,729.752,2486.292,726.085,2483.044,722z"/>
<path display="none" fill="#63BC47" d="M975.044,918c-1.813-97.212-1-214.203-1-320c0-9.88-3.111-41.271,0-45
	c2.715-3.254,31.752-1,38-1c37.521,0,78.508-0.813,113,1c-50,0-100,0-150,0C975.044,674.667,975.044,796.333,975.044,918z"/>
<path display="none" fill="#63BC47" d="M1649.044,554c44.396-3.921,110.021-2.039,157-1
	C1754.041,553.664,1699.381,551.67,1649.044,554z"/>
<path display="none" fill="#63BC47" d="M1242.044,553c83.033-1.003,176.501-2.98,259,1
	C1416.709,551.668,1328.046,553.666,1242.044,553z"/>
<path display="none" fill="#63BC47" d="M2391.044,554c23.367-3.968,57.976-2.023,83-1
	C2446.702,553.658,2416.723,551.679,2391.044,554z"/>
<path display="none" fill="#63BC47" d="M2767.044,645c4.862,3.202-3.825,7.46-6,10C2762.219,651.173,2769.789,649.54,2767.044,645z"
	/>
<path display="none" fill="#63BC47" d="M2773.044,672c-0.333,0-0.667,0-1,0c7.748-9.252,17.252-16.748,25-26
	C2792.622,654.25,2779.964,662.916,2773.044,672z"/>
<path display="none" fill="#FFFFFF" d="M1.044,0c1099.086,0,2197.858,0,3297,0c4.659,311.839,0.672,632.311,2,948
	c-1095.854,4.664-2200.269,0.668-3300,2c0-315.662,0-631.345,0-947C-0.042,1.581-0.121,0.168,1.044,0z M1129.044,331
	c34.715,60.284,64.349,125.651,100,185c64,0,128,0,192,0c7.158-16.842,11.953-36.047,20-52c53.667,0,107.333,0,161,0
	c5.471,18.195,13.035,34.298,19,52c36.333,0,72.667,0,109,0c-61.946-158.091-129.863-317.714-193-475
	c-4.382-10.916-7.55-28.854-16-29c-7.379-0.128-12.32,16.727-16,26c-60.107,151.467-122.949,301.732-183,450
	c-32.437-57.564-65.312-114.688-97-173c57.117-19.601,96.213-63.829,96-138c-0.233-81.058-50.56-141.607-131-147
	c-62.248-4.173-133.425,3.107-205,0c0,162,0,324,0,486c32.667,0,65.333,0,98,0c0-61.667,0-123.333,0-185
	C1098.377,331,1113.71,331,1129.044,331z M40.044,29c0,296.334,0,592.665,0,889c297.651,0,595.343,0,893,0
	c0-297.348,0-594.657,0-892c-297.348,0-594.657,0-892,0C39.879,26.168,39.958,27.581,40.044,29z M3105.044,26
	c-43.043,2.755-71.649,18.491-93,39c-27.318,26.243-47.256,64.553-44,117c4.385,70.625,58.431,103.849,110,127
	c18.856,8.465,39.978,13.497,57,23c15.454,8.628,36.244,30.039,26,58c-21.827,59.581-138.015,23.445-175,1
	c-4.038-2.451-8.116-7.894-13-6c-3.55,33.784-7.554,67.113-12,100c49.869,22.894,103.665,41.867,168,34
	c59.575-7.285,101.683-39.014,121-85c11.457-27.273,14.751-60.727,9-88c-11.452-54.313-56.181-84.915-100-106
	c-29.11-14.007-76.804-22.962-89-53c-11.93-29.382,5.853-55.109,26-63c39.377-15.42,90.515,8.457,118,16
	c4.507-30.493,8.776-61.224,12-93C3189.982,34.934,3154.251,22.85,3105.044,26z M2035.044,60c-54.187-50.814-185.502-24.498-284-31
	c0,162.331,0,324.667,0,487c69.282-3.041,141.688,4.113,202,0c38.243-2.607,70.762-20.477,92-42c23.99-24.313,45.522-63.555,42-112
	c-3.063-42.125-24.793-69.98-50-90c56.515-30.655,56.149-155.888,11-199C2044.129,68.249,2039.795,63.916,2035.044,60z
	 M2126.044,516c99.565-6.004,236.21,20.105,286-35c4.751-3.915,9.084-8.249,13-13c39.303-36.525,47.667-121.908,15-168
	c-2.743-3.87-28.095-26.263-28-28c0.106-1.949,5.547-3.691,7-5c32.885-29.616,44.315-86.217,32-137
	c-9.197-37.924-32.193-65.646-60-82c-60.209-35.41-178.166-12.354-265-19C2124.377,188.995,2124.377,356.002,2126.044,516z
	 M2500.044,33c0,160.996,0,322.003,0,483c32.666,0,65.334,0,98,0c0-162,0-324,0-486c-32.333,0-64.667,0-97,0
	C2499.879,30.168,2499.958,31.581,2500.044,33z M2619.044,127c40,0,80,0,120,0c0.667,129.336-1.333,261.332,1,389
	c32.334,0,64.666,0,97,0c0.667-129.336-1.333-261.332,1-389c40,0,80,0,120,0c0-32.333,0-64.667,0-97c-112.999,0-226,0-339,0
	C2617.378,60.001,2617.378,96.999,2619.044,127z M2569.044,921c71.168-2.074,116.911-52.617,113-116
	c-3.324-53.869-44.382-79.849-82-97c-21.887-9.979-55.057-15.859-63-38c-8.19-22.831,6.259-41.711,21-47
	c27.845-9.989,66.582,5.373,88,13c3.022-23.643,6.553-46.78,9-71c-53.527-20.929-123.182-23.301-162,15
	c-34.188,33.733-45.203,106.726-10,142c3.248,4.085,6.915,7.752,11,11c13.601,11.561,30.547,20.818,51,30
	c26.001,11.673,71.999,18.495,61,59c-12.248,45.104-99.631,19.535-125,6c-5.866-3.13-10.163-8.613-16-8
	c-3.188,24.479-5.93,49.404-9,74c26.785,14.548,57.695,24.971,97,27C2556.079,922.661,2566.009,922.661,2569.044,921z M1125.044,553
	c-34.492-1.813-75.479-1-113-1c-6.248,0-35.285-2.254-38,1c-3.111,3.729,0,35.12,0,45c0,105.797-0.814,222.788,1,320
	c24.333,0,48.667,0,73,0c0-46.333,0-92.667,0-139c11.667,0,23.333,0,35,0c25.563,45.769,48.009,94.658,75,139
	c26.667,0,53.333,0,80,0c-24.413-49.588-56.654-100.012-83-151c43.418-13.891,72.115-51.284,72-104
	C1226.904,598.749,1185.506,557.058,1125.044,553z M1242.044,553c0,121.667,0,243.333,0,365c63,0,126,0,189,0
	c0-24.333,0-48.667,0-73c-38.334-0.666-79.333,1.333-116-1c0.666-23.668-1.332-49.999,1-72c31.667,0,63.333,0,95,0
	c0-24.333,0-48.667,0-73c-31.667-0.666-65.999,1.333-96-1c0.666-23.668-1.332-49.999,1-72c36.333,0,72.667,0,109,0
	c0.665-16.002-1.331-34.664,1-49c39.553,102.151,83.772,205.456,124,306c5.737,14.339,9.723,30.255,19,43c4.333,0,8.667,0,13,0
	c52.016-120.983,99.414-246.586,151-368c0,119.999,0,240.001,0,360c24.333,0,48.667,0,73,0c0-121.667,0-243.333,0-365
	c-46.979-1.039-112.604-2.921-157,1c-24.522,65.145-50.928,128.405-74,195c-22.482-67.186-49.213-130.12-74-195
	C1418.545,550.02,1325.077,551.997,1242.044,553z M1842.044,553c0,121.667,0,243.333,0,365c63,0,126,0,189,0
	c1.666-22.002,1.666-50.998,0-73c-38.334,0-76.667,0-115,0c0-24.333,0-48.667,0-73c31.667,0,63.333,0,95,0
	c1.666-22.002,1.666-50.998,0-73c-31.667,0-63.333,0-95,0c0-24.333,0-48.667,0-73c36.333,0,72.667,0,109,0
	c0.665-16.002-1.331-34.664,1-49c39.164,98.141,82.408,206.362,123,307c4.527,11.226,12.188,40.052,20,42
	c12.582,3.138,13.108-9.613,17-19c20.033-48.313,40.453-100.666,59-144c18.119,42.802,40.238,96.387,59,142
	c4.417,10.738,5.483,23.162,20,19c51.685-121.983,100.044-247.289,150-371c-25.024-1.023-59.633-2.968-83,1
	c-23.758,61.909-47.399,123.934-73,184c-20.345-53.201-42.877-108.847-63-161c-2.668-6.915-3.978-16.539-11-21
	c-24.807,59.86-47.444,121.889-72,182c-25.048-60.952-49.343-122.657-73-185c-0.333,0-0.667,0-1,0
	C2015.044,551.333,1925.044,551.333,1842.044,553z M2787.044,602c-10,0-20,0-30,0c-3.039,0.627-8.613-1.28-10,1
	c-7.106,0.56-16.521-1.188-22,1c2.504,10.017,12.104,16.041,19,22c7.552,6.525,15.924,12.119,23,19c2.745,4.54-4.825,6.173-6,10
	c-5.521,5.818-12.578,11.168-19,17c-5.722,5.196-14.34,11.77-14,20c4.682,2.318,13.655,0.345,20,1c3.039-0.627,8.613,1.28,10-1
	c10,0,20,0,30,0c3.367-0.633,9.288,1.288,11-1c9.333,0,18.667,0,28,0c0-6.667,0-13.333,0-20c-11.333,0-22.667,0-34,0
	c-3.039,0.627-8.613-1.28-10,1c-3.333,0-6.667,0-10,0c6.92-9.084,19.578-17.75,24-26c-7.703-7.967-19.835-16.827-25-24
	c5.667,0,11.333,0,17,0c3.695-0.638,9.961,1.295,12-1c8,0,16,0,24,0c0-6.667,0-13.333,0-20c-9,0-18,0-27,0
	C2794.677,601.633,2788.755,599.712,2787.044,602z M2785.044,808c41.89-0.298,58.601-53.43,35-83c-22.099-27.689-71.388-21.018-86,8
	c-17.556,34.863,6.324,73.871,40,75C2775.444,809.657,2783.645,809.657,2785.044,808z M2774.044,889
	c31.517,3.499,55.176-16.583,57-45c0.758-11.804-0.514-24.724-7-27c-4.451-1.563-13.123,3.134-18,4c6.202,9.363,6.289,23.193,3,31
	c-14.69,34.862-75.844,8.767-54-29c-6.714-0.619-13.761-0.905-20-2C2724.475,856.997,2742.43,885.49,2774.044,889z M2811.044,910
	c-0.161,14.918,27.926,16.282,22-4c-1.163-3.981-6.116-8.002-13-7C2812.468,900.104,2811.094,905.406,2811.044,910z"/>
<path display="none" fill="#FFFFFF" d="M1217.044,186c0.151,63.289-71.248,49.013-134,50c0-36.333,0-72.667,0-109
	c39.504,4.327,90.113-9.43,115,9c11.433,8.466,16.788,21.194,19,40C1217.044,179.333,1217.044,182.667,1217.044,186z"/>
<path display="none" fill="#FFFFFF" d="M1939.044,127c52.59,0.17,54.221,89.557,5,97c-28.974,4.381-60.088-3.209-95,0
	c0-32.333,0-64.667,0-97C1879.044,127,1909.044,127,1939.044,127z"/>
<path display="none" fill="#FFFFFF" d="M1849.044,419c0-32.333,0-64.667,0-97c39.825,4.347,92.04-9.483,117,9
	c15.659,11.596,23.771,36.113,15,58c-6.241,15.575-20.999,27.908-42,30C1911.993,421.694,1879.871,417.014,1849.044,419z"/>
<path display="none" fill="#FFFFFF" d="M2224.044,419c0-32.333,0-64.667,0-97c33.22,3.242,63.596-4.323,95,0
	c39.012,5.37,52.983,57.966,25,84C2318.668,429.607,2268.991,414.741,2224.044,419z"/>
<path display="none" fill="#FFFFFF" d="M1048.044,707c0-27,0-54,0-81c29.155,2.57,46.374-3.539,71,0c39.824,5.724,38.16,70.196,6,80
	C1102.355,712.916,1074.391,702.895,1048.044,707z"/>
<path display="none" fill="#FFFFFF" d="M2773.044,729c30.094-4.661,48.701,27.991,30,49c-18.033,20.259-55.545,7.639-54-22
	C2749.676,743.873,2757.694,731.378,2773.044,729z"/>
</svg>
