<?xml version="1.0" encoding="utf-8"?>
<!-- Generator: Adobe Illustrator 13.0.0, SVG Export Plug-In . SVG Version: 6.00 Build 14948)  -->
<!DOCTYPE svg PUBLIC "-//W3C//DTD SVG 1.1//EN" "http://www.w3.org/Graphics/SVG/1.1/DTD/svg11.dtd">
<svg version="1.1" id="Layer_1" xmlns="http://www.w3.org/2000/svg" xmlns:xlink="http://www.w3.org/1999/xlink" x="0px" y="0px"
	 width="3221px" height="914px" viewBox="42.044 11 3221 914" enable-background="new 42.044 11 3221 914" xml:space="preserve">
<path d="M1320.044,190c-6.992,66.341-39.358,107.309-95,125c31.484,58.517,64.414,115.585,97,173
	c61.761-147.469,120.922-299.327,183-450c3.655-8.871,8.717-26.126,16-26c8.263,0.143,11.638,18.308,16,29
	c64.116,157.141,130.151,317.356,193,475c-36.333,0-72.667,0-109,0c-6.643-17.357-12.447-35.553-20-52c0-0.333,0-0.667,0-1
	c-53,0.667-108.667-1.333-160,1c-8.154,15.846-12.959,35.041-20,52c-64,0-128,0-192,0c-34.954-59.713-65.787-123.546-99-185
	c-13.669-2.331-31.665-0.335-47-1c-2.331,60.002-0.335,124.332-1,186c-32,0-64,0-96,0c0-162,0-324,0-486c39.165,0,78.417,0,117,0
	c39.537,0,79.065-3.717,112,4c60.926,14.276,97.092,60.9,105,131C1320.044,173.333,1320.044,181.667,1320.044,190z M1083.044,128
	c-1.667,33.334-1.667,73.666,0,107c20.89-0.395,72.347,3.852,93,1c25.529-3.525,37.853-23.66,41-47c1.661-2.707,1.661-12.293,0-15
	c-2.984-19.287-9.915-35.125-27-43C1169.186,121.386,1108.182,129.218,1083.044,128z M1565.044,372
	c-14.471-41.862-28.545-84.122-44-125c-15.338,41.329-30.417,82.916-45,125C1503.379,373.667,1537.709,373.667,1565.044,372z"/>
<path d="M3090.044,520c-51.356-3.309-93.103-16.232-128-36c3.469-33.531,7.219-66.781,12-99c2.649-1.164,8.258,3.163,13,6
	c30.652,18.338,104.508,46.837,150,24c19.563-9.821,35.665-36.808,19-64c-11.709-19.105-34.171-23.76-58-33
	c-61.397-23.808-129.796-61.236-130-143c-0.215-86.205,57.021-144.095,140-149c41.958-2.48,80.81,8.116,118,21
	c-3.483,31.517-7.747,62.253-12,93c-45.707-20.739-148.323-41.05-148,30c0.203,44.522,54.854,51.911,88,67
	c50.614,23.042,107.598,60.183,108,135c0.452,83.998-57.021,143.188-149,148C3105.378,520,3097.711,520,3090.044,520z"/>
<path d="M2081.044,181c-2.906,42.094-17.551,72.449-44,91c26.865,22.611,49.646,50.052,50,97c0.539,71.303-42.627,118.756-95,138
	c-21.899,8.047-45.326,9-74,9c-51.342,0-109.481,0-167,0c0-162.333,0-324.669,0-487c78.788,5.605,161.119-9.282,225,4
	c62.896,13.077,99.168,56.528,105,129C2081.044,168.333,2081.044,174.667,2081.044,181z M1849.044,127c0,32.333,0,64.667,0,97
	c27.002,1.667,60.998,1.667,88,0c55.104,3.481,56.924-96.554,4-97C1912.709,125.333,1877.379,125.333,1849.044,127z M1849.044,322
	c0,32.333,0,64.667,0,97c49.466-2.8,107.002,11.16,128-22c20.312-32.075-2.415-74.449-37-75
	C1912.043,320.333,1877.045,320.333,1849.044,322z"/>
<path display="none" fill="#067B29" d="M2126.044,29c0,162.331,0,324.667,0,487C2124.377,356.002,2124.377,188.995,2126.044,29z"/>
<path d="M2126.044,29c85.767,7.228,199.94-16.85,263,18c29.193,16.134,50.881,43.18,61,79c14.201,50.274,0.985,123.353-38,147
	c26.305,19.362,45.05,46.284,49,88c0,6.333,0,12.667,0,19c-7.396,69.485-47.108,114.961-107,131c-32.326,8.657-71.753,5-112,5
	c-38.051,0-77.323,0-116,0C2126.044,353.667,2126.044,191.331,2126.044,29z M2316.044,127c-20.153-1.8-46.563-1-70-1
	c-5.178,0-20.955-1.451-23,1c-1.795,2.151,0,19.689,0,24c0.002,25.944-0.001,50.35,0,73c27.012,1.657,60.991,1.674,88,0
	C2366.98,227.712,2368.835,128.302,2316.044,127z M2314.044,322c-19.611-1.802-44.45-1-67-1c-3.49,0-20.769-1.863-23,0
	c-2.348,1.959-1,16.874-1,23c0.002,25.748-0.801,53.14,1,74c11.827,1.808,30.933,1,46,1c16.896,0,34.363,1.745,47,0
	C2372.153,411.391,2373.002,324.872,2314.044,322z"/>
<path display="none" fill="#067B29" d="M986.044,30c0,162,0,324,0,486C984.377,356.33,984.377,189.671,986.044,30z"/>
<path display="none" fill="#067B29" d="M2501.044,30c0,162,0,324,0,486C2499.377,356.33,2499.377,189.671,2501.044,30z"/>
<path d="M2501.044,30c32,0,64,0,96,0c0,162,0,324,0,486c-32,0-64,0-96,0C2501.044,354,2501.044,192,2501.044,30z"/>
<path display="none" fill="#067B29" d="M2597.044,30c1.667,159.67,1.667,326.329,0,486C2597.044,354,2597.044,192,2597.044,30z"/>
<path d="M2619.044,127c0-32,0-64,0-96c112.999,0,226,0,339,0c0,32,0,64,0,96c-40.334,0-80.666,0-121,0c0,129.666,0,259.335,0,389
	c-32.334,0-64.666,0-97,0c-0.667-129.335,1.333-261.33-1-389C2699.044,127,2659.044,127,2619.044,127z"/>
<path display="none" fill="#FF8C00" d="M749.044,107c1.078-1.655,8.922-1.655,10,0C755.71,107,752.377,107,749.044,107z"/>
<path display="none" fill="#067B29" d="M1849.044,127c28.335-1.667,63.665-1.667,92,0C1910.377,127,1879.711,127,1849.044,127z"/>
<path display="none" fill="#067B29" d="M2739.044,127c2.333,127.67,0.333,259.665,1,389
	C2737.711,388.332,2739.711,256.336,2739.044,127z"/>
<path display="none" fill="#067B29" d="M1083.044,128c0,35.667,0,71.333,0,107C1081.377,201.666,1081.377,161.334,1083.044,128z"/>
<path display="none" fill="#067B29" d="M2081.044,162c1.663,4.026,1.663,14.974,0,19
	C2081.044,174.667,2081.044,168.333,2081.044,162z"/>
<path fill="#FF8C00" d="M221.044,171c-4.699,60.462,11.784,108.145,27,152c-0.851-0.184-0.943,0.39-1,1c-68.333,0-136.667,0-205,0
	c0-49.667,0-99.333,0-149c59-0.667,120.667,1.333,178-1c0-1,0-2,0-3C220.377,171,220.71,171,221.044,171z"/>
<path display="none" fill="#067B29" d="M1217.044,174c1.661,2.707,1.661,12.293,0,15C1217.044,184,1217.044,179,1217.044,174z"/>
<path fill="#FF8C00" d="M812.044,175c40,0,80,0,120,0c0,49.667,0,99.333,0,149c-58.668-0.665-119.997,1.331-177-1
	C778.067,277.69,804.158,235.447,812.044,175z"/>
<path display="none" fill="#067B29" d="M1849.044,224c29.333,0,58.667,0,88,0C1910.042,225.667,1876.046,225.667,1849.044,224z"/>
<path display="none" fill="#067B29" d="M1849.044,322c28.001-1.667,62.999-1.667,91,0C1909.711,322,1879.377,322,1849.044,322z"/>
<path fill="#FFED00" d="M248.044,323c8.757,28.179,27.434,69.651,43,102c4.042,8.4,15.521,26.944,15,33
	c-0.603,7.007-10.488,9.524-13,14c-83.667,0-167.332,0-251,0c0-49.333,0-98.666,0-148c68.333,0,136.667,0,205,0
	C247.101,323.39,247.193,322.816,248.044,323z"/>
<path fill="#FFED00" d="M395.044,323c65.336,1.666,137.663,1.666,203,0c-9.144,29.856-20.266,57.734-28,89
	c-43.315-13.952-106.176-19.563-160-11C405.036,375.008,400.224,348.82,395.044,323z"/>
<path fill="#FFED00" d="M755.044,323c57.003,2.331,118.332,0.335,177,1c0,49.333,0,98.666,0,148c-85.667,0-171.333,0-257,0
	c-3.197-2.137-5.959-4.707-9-7c12.138-25.051,30.192-46.102,45-69C726.394,372.264,739.75,347.364,755.044,323z"/>
<path display="none" fill="#067B29" d="M1476.044,372c29.667,0,59.333,0,89,0C1537.709,373.667,1503.379,373.667,1476.044,372z"/>
<path display="none" fill="#067B29" d="M1441.044,464c51.333-2.333,107-0.333,160-1c0,0.333,0,0.667,0,1
	C1547.71,464,1494.377,464,1441.044,464z"/>
<path fill="#067B29" d="M42.044,472c83.668,0,167.333,0,251,0c-36.393,39.606-63.186,88.814-80,148c-57,0-114,0-171,0
	C42.044,570.666,42.044,521.334,42.044,472z"/>
<path fill="#067B29" d="M675.044,472c85.667,0,171.333,0,257,0c0,49.334,0,98.666,0,148c-58.002,0.665-118.664-1.33-175,1
	C745.239,555.805,713.974,510.071,675.044,472z"/>
<path d="M2565.044,847c27.219,1.516,50.459-21.205,40-48c-9.229-23.648-49.418-29.641-74-42c-35.889-18.043-69.723-43.408-70-95
	c-0.537-99.877,99.16-135.199,194-97c-2.685,23.982-6.249,47.084-9,71c-17.606-7.061-35.411-13.922-59-15
	c-3.365-1.662-13.635-1.662-17,0c-22.733-0.229-42.443,22.545-33,49c5.771,16.166,23.252,21.826,42,29
	c47.082,18.015,102.37,46.383,103,110c0.664,67.053-42.851,107.135-113,112c-5,0-10,0-15,0c-39.738-1.596-69.542-13.125-98-26
	c3.147-24.852,6.146-49.854,9-75c5.787-0.576,10.943,5.764,17,9c18.384,9.823,43.132,16.905,71,18
	C2554.77,848.658,2563.319,848.658,2565.044,847z"/>
<path display="none" fill="#067B29" d="M1242.044,553c83.667-1.667,174.332-1.667,258,0C1414.044,553,1328.044,553,1242.044,553z"/>
<path display="none" fill="#067B29" d="M1650.044,553c49.667-1.667,106.333-1.667,156,0C1754.044,553,1702.044,553,1650.044,553z"/>
<path display="none" fill="#067B29" d="M2392.044,553c25.002-1.666,56.998-1.666,82,0C2446.711,553,2419.377,553,2392.044,553z"/>
<path d="M975.044,918c0-121.667,0-243.333,0-365c50,0,100,0,150,0c61.956,5.378,93.866,40.8,101,101c0,6.667,0,13.333,0,20
	c-5.438,49.229-29.846,79.488-71,93c26.211,51.123,58.456,101.544,83,151c-26.667,0-53.333,0-80,0
	c-26.431-44.235-49.215-92.118-74-138c0.003-1.003-0.81-1.19-1-2c-11.667,0-23.333,0-35,0c-2.329,44.671-0.336,93.664-1,140
	C1023.044,918,999.044,918,975.044,918z M1114.044,626c-9.331-1.78-19.555-1-33-1c-5.655,0-31.056-2.528-34,1
	c-1.062,1.271,0,15.6,0,20c0,22.352-0.794,44.503,1,62c22.334-0.666,47.332,1.332,68-1
	C1160.254,707.414,1159.732,623.494,1114.044,626z"/>
<path d="M1242.044,553c86,0,172,0,258,0c25.343,64.657,52.647,127.351,74,196c25.44-65.227,49.817-131.516,76-196c52,0,104,0,156,0
	c0,121.667,0,243.333,0,365c-24.333,0-48.667,0-73,0c0-119.999,0-240.001,0-360c-50.688,121.31-100.011,243.989-149,367
	c-5.667,0-11.333,0-17,0c-47.351-115.646-94.537-231.468-141-348c-2.331,14.003-0.335,32.331-1,48c-36.334,0.666-75.333-1.333-110,1
	c0,24,0,48,0,72c30.001,2.333,64.333,0.334,96,1c0,24.333,0,48.667,0,73c-32,0-64,0-96,0c0,24,0,48,0,72
	c36.667,2.333,77.666,0.334,116,1c0,24.333,0,48.667,0,73c-63,0-126,0-189,0C1242.044,796.333,1242.044,674.667,1242.044,553z"/>
<path d="M1843.044,918c0-121.667,0-243.333,0-365c85,0,170,0,255,0c0.333,0,0.667,0,1,0c23.535,62.465,47.83,124.17,73,185
	c24.728-59.94,47.272-122.061,72-182c6.965,4.463,8.306,14.142,11,21c20.466,52.091,42.17,108.066,63,161
	c26.196-60.138,49.166-123.5,74-185c27.333,0,54.667,0,82,0c-50.087,123.58-98.426,248.906-150,371
	c-14.476,4.225-15.595-8.377-20-19c-19.123-46.113-40.754-97.949-58-142c-24.396,51.938-44.752,107.915-67,162
	c-4.666,0-9.333,0-14,0c-45.528-116.805-92.938-231.729-139-348c-2.33,14.003-0.336,32.331-1,48c-36.333,0-72.667,0-109,0
	c-1.653,22.349-1.676,51.654,0,74c31.667,0,63.333,0,95,0c0,24.333,0,48.667,0,73c-31.667,0-63.333,0-95,0c-0.334,0-0.666,0-1,0
	c0.666,24.001-1.332,50.665,1,73c38.333,0,76.666,0,115,0c0,24.333,0,48.667,0,73C1968.377,918,1905.712,918,1843.044,918z"/>
<path fill="#067B29" d="M361.044,620c-24,0-48,0-72,0c-5.776-12.07-2.995-33.629,3-43C315.422,590.956,338.798,604.912,361.044,620z
	"/>
<path fill="#067B29" d="M689.044,620c-20,0-40,0-60,0c18.085-10.581,36.548-20.785,56-30C688.016,598.361,689.89,607.82,689.044,620
	z"/>
<path d="M2807.044,601c6,0,12,0,18,0c0,6.333,0,12.667,0,19c-6.639,2.028-16.78,0.553-25,1c-7.01,0.657-16.654-1.321-22,1
	c-2,0-4,0-6,0c5.008,7.331,17.315,16.014,25,24c-7.748,9.252-17.252,16.748-25,26c0.333,0,0.667,0,1,0c3.333,0,6.667,0,10,0
	c6.345-0.655,15.318,1.318,20-1c6.666,0,13.333,0,20,0c1,0,2,0,3,0c0.608,2.391-1.256,7.255,1,8c0,3.667,0,7.333,0,11
	c-9.437,0.564-18.548,1.452-29,1c-6.345,0.655-15.318-1.318-20,1c-6.667,0-13.333,0-20,0c-6.345,0.655-15.318-1.318-20,1
	c-3.334,0-6.666,0-10,0c0.979-12.122,11.938-18.376,19-25c7.385-6.925,15.178-13.507,22-21c-7.241-7.02-15.185-13.479-23-20
	c-7.34-6.125-18.332-11.677-20-23c5.159-2.175,14.217-0.449,21-1c6.345-0.655,15.318,1.318,20-1c6.666,0,13.333,0,20,0
	C2793.389,601.345,2802.362,603.318,2807.044,601z"/>
<path fill="#004DFF" d="M42.044,620c57,0,114,0,171,0c-10.038,37.295-18.956,75.711-19,123c20.509-18.451,40.388-44.22,77-48
	c68.523-7.074,101.379,47.139,141,72c6.703-14.964,12.064-31.269,19-46c13.965,2.368,29.582,3.084,43,6
	c-3.87,15.13-9.733,28.268-15,42c-138.999,0-278.001,0-417,0C42.044,719.333,42.044,669.667,42.044,620z"/>
<path fill="#004DFF" d="M289.044,620c24,0,48,0,72,0c9.474,4.193,16.714,10.619,26,15C364.109,670.293,303.05,661.18,289.044,620z"
	/>
<path fill="#004DFF" d="M689.044,620c-6.419,47.158-74.728,64.521-103,24c12.92-9.413,28.37-16.297,43-24
	C649.044,620,669.044,620,689.044,620z"/>
<path fill="#004DFF" d="M932.044,620c0,49.667,0,99.333,0,149c-75.333,0-150.667,0-226,0c33.719-31.688,59.697-80.41,51-148
	C813.38,618.67,874.042,620.665,932.044,620z"/>
<path display="none" fill="#067B29" d="M2570.044,621c3.365-1.662,13.635-1.662,17,0C2581.377,621,2575.711,621,2570.044,621z"/>
<path display="none" fill="#067B29" d="M2778.044,622c5.346-2.321,14.99-0.343,22-1C2794.698,623.321,2785.054,621.343,2778.044,622
	z"/>
<path display="none" fill="#067B29" d="M1315.044,626c34.667-2.333,73.666-0.334,110-1
	C1390.377,627.333,1351.377,625.334,1315.044,626z"/>
<path display="none" fill="#067B29" d="M2783.044,672c4.682-2.318,13.655-0.345,20-1
	C2798.362,673.318,2789.389,671.345,2783.044,672z"/>
<path display="none" fill="#067B29" d="M2778.044,692c4.682-2.318,13.655-0.345,20-1
	C2793.362,693.318,2784.389,691.345,2778.044,692z"/>
<path display="none" fill="#067B29" d="M2011.044,699c1.666,22.002,1.666,50.998,0,73
	C2011.044,747.667,2011.044,723.333,2011.044,699z"/>
<path d="M2787.044,708c41.402,2.381,56.887,58.386,30,86c-30.948,31.785-88.351,9.854-88-37c0.204-27.288,16.542-45.201,44-49
	C2777.711,708,2782.377,708,2787.044,708z M2754.044,776c14.243,20.631,54.26,13.22,56-16c1.135-19.059-11.5-35.777-37-31
	C2751.616,733.015,2742.357,759.072,2754.044,776z"/>
<path fill="#004DFF" d="M513.044,769c-15.667,0-31.333,0-47,0c4.616-13.385,10.621-25.379,15-39c15.495,0.838,28.833,3.833,44,5
	C522.54,747.829,517.354,757.975,513.044,769z"/>
<path fill="#750787" d="M42.044,769c138.999,0,278.001,0,417,0c-0.763,7.234-9.152,16.392-5,22c6.828-0.63,7.572-15.669,12-22
	c15.667,0,31.333,0,47,0c-4.132,13.201-8.991,25.676-14,38c72.958,25.142,167.447,3.699,207-38c75.333,0,150.667,0,226,0
	c0,49.334,0,98.666,0,148c-296.673,0-593.32,0-890,0C42.044,867.666,42.044,818.334,42.044,769z"/>
<path display="none" fill="#067B29" d="M1916.044,772c0,24.333,0,48.667,0,73c-2.332-22.335-0.334-48.999-1-73
	C1915.378,772,1915.71,772,1916.044,772z"/>
<path d="M2732.044,834c-0.048-4.715,1.756-7.577,2-12c4.793-1.189,13.81,1.326,21,1c-4.701,7.778-5.233,19.701-2,28
	c13.683,35.109,77.007,12.816,54-31c6.601-1.065,13.058-2.276,20-3c6.899,19.057,3.93,44.005-8,57
	c-25.867,28.178-85.569,15.979-87-29C2732.044,841.333,2732.044,837.667,2732.044,834z"/>
<path display="none" fill="#067B29" d="M2732.044,834c0,3.667,0,7.333,0,11C2730.387,843.6,2730.387,835.4,2732.044,834z"/>
<path display="none" fill="#067B29" d="M2031.044,845c1.666,22.002,1.666,50.998,0,73
	C2031.044,893.667,2031.044,869.333,2031.044,845z"/>
<path display="none" fill="#067B29" d="M2553.044,847c4,0,8,0,12,0C2563.319,848.658,2554.77,848.658,2553.044,847z"/>
<path d="M2813.044,903c6.079-6.494,17.97-3.73,20,3C2839.202,926.41,2803.493,926.217,2813.044,903z"/>
<path display="none" fill="#067B29" d="M1082.044,516c0.665-61.668-1.331-125.998,1-186c15.335,0.665,33.331-1.331,47,1
	c-15.333,0-30.667,0-46,0C1081.044,390.334,1085.043,456.667,1082.044,516z"/>
<path display="none" fill="#FF8C00" d="M771.044,109c20.797,5.537,34.06,18.608,39,40C803.774,128.937,790.756,115.621,771.044,109z
	"/>
<path fill="#FF8C00" d="M353.044,174c84.772,1.818,182.438,1,272,1c13.942,0,29.974,2.502,38,0c6.055-1.887,9.087-10.982,15-19
	c15.137-20.523,31.295-36.413,56-46c-76.017,40.316-101.506,131.16-136,213c-65.337,1.666-137.664,1.666-203,0
	C383.496,270.881,370.719,219.992,353.044,174z"/>
<path display="none" fill="#FF8C00" d="M300.044,101c28.04,13.627,40.735,42.598,53,72C339.593,144.784,326.967,115.744,300.044,101
	z"/>
<path display="none" fill="#FF8C00" d="M228.044,142c8.569-21.098,21.615-37.719,45-44C250.961,105.583,237.769,122.059,228.044,142
	z"/>
<path display="none" fill="#FF8C00" d="M228.044,143c-1.211,3.789-1.936,8.064-4,11C224.753,149.709,225.676,145.632,228.044,143z"
	/>
<path display="none" fill="#067B29" d="M2619.044,127c-2.332-30.334-0.334-65-1-97c113,0.667,228.667-1.333,340,1
	c-113,0-226.001,0-339,0C2619.044,63,2619.044,95,2619.044,127z"/>
<path display="none" fill="#067B29" d="M2311.044,224c-27.009,1.674-60.988,1.657-88,0c-0.001-22.65,0.002-47.056,0-73
	c0-4.311-1.795-21.849,0-24c2.045-2.451,17.822-1,23-1c23.438,0,49.847-0.8,70,1c-30.666,0-61.334,0-92,0c0,32.333,0,64.667,0,97
	C2253.044,224,2282.044,224,2311.044,224z"/>
<path display="none" fill="#067B29" d="M2224.044,418c-1.801-20.86-0.998-48.252-1-74c0-6.126-1.348-21.041,1-23
	c2.231-1.863,19.51,0,23,0c22.55,0,47.389-0.802,67,1c-30,0-60,0-90,0C2224.044,354,2224.044,386,2224.044,418z"/>
<path display="none" fill="#067B29" d="M975.044,918c-1.813-97.212-1-214.203-1-320c0-9.88-3.111-41.271,0-45
	c2.715-3.254,31.752-1,38-1c37.521,0,78.508-0.813,113,1c-50,0-100,0-150,0C975.044,674.667,975.044,796.333,975.044,918z"/>
<path display="none" fill="#067B29" d="M1047.044,918c0.664-46.336-1.329-95.329,1-140c11.667,0,23.333,0,35,0
	c0.19,0.81,1.003,0.997,1,2c-9.729-2.271-23.621-0.379-35-1C1046.044,823,1050.043,874,1047.044,918z"/>
<path display="none" fill="#067B29" d="M1916.044,699c-1.676-22.346-1.653-51.651,0-74c36.333,0,72.667,0,109,0
	c-34,2.333-72.333,0.334-108,1C1914.712,648.335,1916.71,674.999,1916.044,699z"/>
<path display="none" fill="#067B29" d="M1843.044,918c-2.333-119.998-0.333-244.336-1-366c85,0.667,172.666-1.333,256,1
	c-85,0-170,0-255,0C1843.044,674.667,1843.044,796.333,1843.044,918z"/>
<path display="none" fill="#067B29" d="M2773.044,672c-0.333,0-0.667,0-1,0c7.748-9.252,17.252-16.748,25-26
	C2792.622,654.25,2779.964,662.916,2773.044,672z"/>
<path display="none" fill="#067B29" d="M2823.044,671c4.512-4.445,4.445,4.172,4,8c-2.256-0.745-0.392-5.609-1-8
	C2825.044,671,2824.044,671,2823.044,671z"/>
<path display="none" fill="#067B29" d="M1116.044,707c-20.668,2.332-45.666,0.334-68,1c-1.794-17.497-1-39.648-1-62
	c0-4.4-1.062-18.729,0-20c2.944-3.528,28.345-1,34-1c13.445,0,23.669-0.78,33,1c-21.667,0-43.333,0-65,0
	c-2.333,25.001-0.334,54.333-1,81C1070.71,707,1093.377,707,1116.044,707z"/>
<path display="none" fill="#FFFFFF" d="M1.044,0c1099.086,0,2197.858,0,3297,0c4.659,311.839,0.672,632.311,2,948
	c-1095.854,4.664-2200.269,0.668-3300,2c0-315.662,0-631.345,0-947C-0.042,1.581-0.121,0.168,1.044,0z M1601.044,464
	c7.553,16.447,13.357,34.643,20,52c36.333,0,72.667,0,109,0c-62.849-157.644-128.884-317.859-193-475
	c-4.362-10.692-7.737-28.857-16-29c-7.283-0.126-12.345,17.129-16,26c-62.078,150.673-121.239,302.531-183,450
	c-32.586-57.415-65.516-114.483-97-173c55.642-17.691,88.008-58.659,95-125c1.665-6.016,1.665-18.984,0-25
	c-7.908-70.1-44.074-116.724-105-131c-32.935-7.717-72.463-4-112-4c-38.583,0-77.835,0-117,0c-1.667,159.671-1.667,326.33,0,486
	c32,0,64,0,96,0c3-59.333-1-125.666,2-185c15.333,0,30.667,0,46,0c33.213,61.454,64.046,125.287,99,185c64,0,128,0,192,0
	c7.041-16.959,11.846-36.154,20-52C1494.377,464,1547.71,464,1601.044,464z M3113.044,520c91.979-4.813,149.452-64.002,149-148
	c-0.402-74.817-57.386-111.958-108-135c-33.146-15.089-87.797-22.478-88-67c-0.323-71.05,102.293-50.739,148-30
	c4.253-30.747,8.517-61.483,12-93c-37.19-12.884-76.042-23.48-118-21c-82.979,4.905-140.215,62.795-140,149
	c0.204,81.764,68.603,119.192,130,143c23.829,9.24,46.291,13.895,58,33c16.665,27.192,0.563,54.179-19,64
	c-45.492,22.837-119.348-5.662-150-24c-4.742-2.837-10.351-7.164-13-6c-4.781,32.219-8.531,65.469-12,99
	c34.897,19.768,76.644,32.691,128,36C3095.396,521.664,3107.691,521.664,3113.044,520z M42.044,175c0,49.667,0,99.333,0,149
	c0,49.334,0,98.667,0,148c0,49.334,0,98.666,0,148c0,49.667,0,99.333,0,149c0,49.334,0,98.666,0,148c296.68,0,593.327,0,890,0
	c0-49.334,0-98.666,0-148c0-49.667,0-99.333,0-149c0-49.334,0-98.666,0-148s0-98.667,0-148c0-49.667,0-99.333,0-149
	c0-49.334,0-98.667,0-148c-296.68,0-593.327,0-890,0C42.044,76.334,42.044,125.667,42.044,175z M2081.044,162
	c-5.832-72.472-42.104-115.923-105-129c-63.881-13.282-146.212,1.605-225-4c0,162.331,0,324.667,0,487c57.519,0,115.658,0,167,0
	c28.674,0,52.101-0.953,74-9c52.373-19.244,95.539-66.697,95-138c-0.354-46.948-23.135-74.389-50-97
	c26.449-18.551,41.094-48.906,44-91C2082.707,176.974,2082.707,166.026,2081.044,162z M2126.044,516c38.677,0,77.949,0,116,0
	c40.247,0,79.674,3.657,112-5c59.892-16.039,99.604-61.515,107-131c1.663-4.026,1.663-14.974,0-19c-3.95-41.716-22.695-68.638-49-88
	c38.985-23.647,52.201-96.726,38-147c-10.119-35.82-31.807-62.866-61-79c-63.06-34.85-177.233-10.772-263-18
	C2124.377,188.995,2124.377,356.002,2126.044,516z M2501.044,516c32,0,64,0,96,0c1.667-159.671,1.667-326.33,0-486c-32,0-64,0-96,0
	C2499.377,189.671,2499.377,356.33,2501.044,516z M2958.044,31c-111.333-2.333-227-0.333-340-1c0.666,32-1.332,66.666,1,97
	c40,0,80,0,120,0c0.667,129.336-1.333,261.332,1,389c32.334,0,64.666,0,97,0c0-129.665,0-259.334,0-389c40.334,0,80.666,0,121,0
	C2958.044,95,2958.044,63,2958.044,31z M2587.044,621c23.589,1.078,41.394,7.939,59,15c2.751-23.916,6.315-47.018,9-71
	c-94.84-38.199-194.537-2.877-194,97c0.277,51.592,34.111,76.957,70,95c24.582,12.359,64.771,18.352,74,42
	c10.459,26.795-12.781,49.516-40,48c-4,0-8,0-12,0c-27.868-1.095-52.616-8.177-71-18c-6.057-3.236-11.213-9.576-17-9
	c-2.854,25.146-5.853,50.148-9,75c28.458,12.875,58.262,24.404,98,26c2.706,1.661,12.294,1.661,15,0
	c70.149-4.865,113.664-44.947,113-112c-0.63-63.617-55.918-91.985-103-110c-18.748-7.174-36.229-12.834-42-29
	c-9.443-26.455,10.267-49.229,33-49C2575.711,621,2581.377,621,2587.044,621z M1125.044,553c-34.492-1.813-75.479-1-113-1
	c-6.248,0-35.285-2.254-38,1c-3.111,3.729,0,35.12,0,45c0,105.797-0.814,222.788,1,320c24,0,48,0,72,0c3-44-1-95,2-139
	c11.379,0.621,25.271-1.271,35,1c24.785,45.882,47.569,93.765,74,138c26.667,0,53.333,0,80,0c-24.544-49.456-56.789-99.877-83-151
	c41.154-13.512,65.563-43.771,71-93c1.663-4.357,1.663-15.643,0-20C1218.91,593.8,1187,558.378,1125.044,553z M1242.044,553
	c0,121.667,0,243.333,0,365c63,0,126,0,189,0c0-24.333,0-48.667,0-73c-38.334-0.666-79.333,1.333-116-1c0-24,0-48,0-72
	c32,0,64,0,96,0c0-24.333,0-48.667,0-73c-31.667-0.666-65.999,1.333-96-1c0-24,0-48,0-72c36.333-0.666,75.333,1.333,110-1
	c0.665-15.669-1.331-33.997,1-48c46.463,116.532,93.649,232.354,141,348c3.365,1.662,13.635,1.662,17,0
	c48.989-123.011,98.312-245.69,149-367c0,119.999,0,240.001,0,360c24.333,0,48.667,0,73,0c0-121.667,0-243.333,0-365
	c-49.667-1.667-106.333-1.667-156,0c-26.183,64.484-50.56,130.773-76,196c-21.353-68.649-48.657-131.343-74-196
	C1416.376,551.333,1325.711,551.333,1242.044,553z M2098.044,553c-83.334-2.333-171-0.333-256-1c0.667,121.664-1.333,246.002,1,366
	c62.668,0,125.333,0,188,0c1.666-22.002,1.666-50.998,0-73c-38.334,0-76.667,0-115,0c0-24.333,0-48.667,0-73c31.667,0,63.333,0,95,0
	c1.666-22.002,1.666-50.998,0-73c-31.667,0-63.333,0-95,0c0.666-24.001-1.332-50.665,1-73c35.667-0.666,74,1.333,108-1
	c0.664-15.669-1.33-33.997,1-48c46.062,116.271,93.472,231.195,139,348c2.378,1.66,11.622,1.66,14,0
	c22.248-54.085,42.604-110.063,67-162c17.246,44.051,38.877,95.887,58,142c4.405,10.623,5.524,23.225,20,19
	c51.574-122.094,99.913-247.42,150-371c-25.002-1.666-56.998-1.666-82,0c-24.834,61.5-47.804,124.862-74,185
	c-20.83-52.934-42.534-108.909-63-161c-2.694-6.858-4.035-16.537-11-21c-24.728,59.939-47.272,122.06-72,182
	c-25.17-60.83-49.465-122.535-73-185C2098.711,553,2098.377,553,2098.044,553z M2787.044,602c-6.667,0-13.334,0-20,0
	c-6.345,0.655-15.318-1.318-20,1c-6.783,0.551-15.841-1.175-21,1c1.668,11.323,12.66,16.875,20,23c7.815,6.521,15.759,12.98,23,20
	c-6.822,7.493-14.615,14.075-22,21c-7.063,6.624-18.021,12.878-19,25c3.334,0,6.666,0,10,0c6.345-0.655,15.318,1.318,20-1
	c6.667,0,13.333,0,20,0c6.345-0.655,15.318,1.318,20-1c10.452,0.452,19.563-0.436,29-1c0-3.667,0-7.333,0-11
	c0.445-3.828,0.512-12.445-4-8c-6.667,0-13.334,0-20,0c-6.345,0.655-15.318-1.318-20,1c-3.333,0-6.667,0-10,0
	c6.92-9.084,19.578-17.75,24-26c-7.685-7.986-19.992-16.669-25-24c2,0,4,0,6,0c7.01-0.657,16.654,1.321,22-1
	c8.22-0.447,18.361,1.028,25-1c0-6.333,0-12.667,0-19c-6,0-12,0-18,0C2800.699,601.655,2791.727,599.682,2787.044,602z
	 M2773.044,708c-27.458,3.799-43.796,21.712-44,49c-0.351,46.854,57.052,68.785,88,37c26.887-27.614,11.402-83.619-30-86
	C2784.666,706.34,2775.422,706.34,2773.044,708z M2732.044,845c1.431,44.979,61.133,57.178,87,29c11.93-12.995,14.899-37.943,8-57
	c-6.942,0.724-13.399,1.935-20,3c23.007,43.816-40.317,66.109-54,31c-3.233-8.299-2.701-20.222,2-28c-7.19,0.326-16.207-2.189-21-1
	c-0.244,4.423-2.048,7.285-2,12C2730.387,835.4,2730.387,843.6,2732.044,845z M2833.044,906c-2.03-6.73-13.921-9.494-20-3
	C2803.493,926.217,2839.202,926.41,2833.044,906z"/>
<path display="none" fill="#FFFFFF" d="M1083.044,128c25.138,1.218,86.142-6.614,107,3c17.085,7.875,24.016,23.713,27,43
	c0,5,0,10,0,15c-3.147,23.34-15.471,43.475-41,47c-20.653,2.852-72.11-1.395-93-1C1083.044,199.333,1083.044,163.667,1083.044,128z"
	/>
<path display="none" fill="#FFFFFF" d="M1941.044,127c52.924,0.446,51.104,100.481-4,97c-29.333,0-58.667,0-88,0
	c0-32.333,0-64.667,0-97C1879.711,127,1910.377,127,1941.044,127z"/>
<path display="none" fill="#FFFFFF" d="M2316.044,127c52.791,1.302,50.937,100.712-5,97c-29,0-58,0-87,0c0-32.333,0-64.667,0-97
	C2254.71,127,2285.378,127,2316.044,127z"/>
<path fill="#E40303" d="M812.044,175c0.627-9.96-0.924-17.743-2-26c-4.94-21.392-18.203-34.463-39-40c-4.715,0.048-7.577-1.756-12-2
	c-1.078-1.655-8.922-1.655-10,0c-5.464,0.536-9.675,2.325-15,3c-24.705,9.587-40.863,25.477-56,46c-5.913,8.018-8.945,17.113-15,19
	c-8.026,2.502-24.058,0-38,0c-89.562,0-187.228,0.818-272-1c0-0.333,0-0.667,0-1c-12.265-29.402-24.96-58.373-53-72
	c-8.741-2.384-16.556-4.727-27-3c-23.385,6.281-36.431,22.902-45,44c0,0.333,0,0.667,0,1c-2.368,2.632-3.291,6.709-4,11
	c-0.633,6.034-1.955,11.379-3,17c-0.333,0-0.667,0-1,0c0,1,0,2,0,3c-57.333,2.333-119,0.333-178,1c0-49.333,0-98.666,0-148
	c296.673,0,593.32,0,890,0c0,49.333,0,98.666,0,148C892.044,175,852.044,175,812.044,175z"/>
<path display="none" fill="#FFFFFF" d="M1940.044,322c34.585,0.551,57.312,42.925,37,75c-20.998,33.16-78.534,19.2-128,22
	c0-32.333,0-64.667,0-97C1879.377,322,1909.711,322,1940.044,322z"/>
<path display="none" fill="#FFFFFF" d="M2314.044,322c58.958,2.872,58.108,89.391,3,97c-12.637,1.745-30.104,0-47,0
	c-15.067,0-34.173,0.808-46-1c0-32,0-64,0-96C2254.044,322,2284.044,322,2314.044,322z"/>
<path display="none" fill="#067B29" d="M2461.044,380c0-6.333,0-12.667,0-19C2462.707,365.026,2462.707,375.974,2461.044,380z"/>
<path display="none" fill="#067B29" d="M3090.044,520c7.667,0,15.334,0,23,0C3107.691,521.664,3095.396,521.664,3090.044,520z"/>
<path fill="#FFFFFF" d="M273.044,98c10.444-1.727,18.259,0.616,27,3c26.923,14.744,39.549,43.784,53,72c0,0.333,0,0.667,0,1
	c17.675,45.992,30.452,96.881,42,149c5.18,25.82,9.992,52.008,15,78c53.824-8.563,116.685-2.952,160,11
	c7.734-31.266,18.856-59.144,28-89c34.494-81.84,59.983-172.684,136-213c5.325-0.675,9.536-2.464,15-3c3.333,0,6.667,0,10,0
	c4.423,0.244,7.285,2.048,12,2c19.712,6.621,32.73,19.937,39,40c1.076,8.257,2.627,16.04,2,26c-7.886,60.447-33.977,102.69-57,148
	c-15.294,24.364-28.65,49.264-44,73c-14.808,22.898-32.862,43.949-45,69c3.041,2.293,5.803,4.863,9,7
	c38.93,38.071,70.195,83.805,82,149c8.697,67.59-17.281,116.313-51,148c-39.553,41.699-134.042,63.142-207,38
	c5.009-12.324,9.868-24.799,14-38c4.31-11.025,9.496-21.171,12-34c-15.167-1.167-28.505-4.162-44-5
	c-4.379,13.621-10.384,25.615-15,39c-4.428,6.331-5.172,21.37-12,22c-4.152-5.608,4.237-14.766,5-22c5.267-13.732,11.13-26.87,15-42
	c-13.418-2.916-29.035-3.632-43-6c-6.936,14.731-12.297,31.036-19,46c-39.621-24.861-72.477-79.074-141-72
	c-36.612,3.78-56.491,29.549-77,48c0.044-47.289,8.962-85.705,19-123c16.814-59.186,43.607-108.394,80-148
	c2.512-4.476,12.397-6.993,13-14c0.521-6.056-10.958-24.6-15-33c-15.566-32.349-34.243-73.821-43-102
	c-15.216-43.855-31.699-91.538-27-152c1.045-5.621,2.367-10.966,3-17c2.064-2.936,2.789-7.211,4-11c0-0.333,0-0.667,0-1
	C237.769,122.059,250.961,105.583,273.044,98z M289.044,620c14.006,41.18,75.065,50.293,98,15c-9.286-4.381-16.526-10.807-26-15
	c-22.246-15.088-45.622-29.044-69-43C286.049,586.371,283.268,607.93,289.044,620z M629.044,620c-14.63,7.703-30.08,14.587-43,24
	c28.272,40.521,96.581,23.158,103-24c0.846-12.18-1.028-21.639-4-30C665.592,599.215,647.129,609.419,629.044,620z"/>
<path display="none" fill="#FFFFFF" d="M1114.044,626c45.688-2.506,46.21,81.414,2,81c-22.667,0-45.333,0-68,0
	c0.666-26.667-1.333-55.999,1-81C1070.711,626,1092.377,626,1114.044,626z"/>
<path display="none" fill="#067B29" d="M1226.044,674c0-6.667,0-13.333,0-20C1227.707,658.357,1227.707,669.643,1226.044,674z"/>
<path display="none" fill="#067B29" d="M2738.044,693c4.682-2.318,13.655-0.345,20-1
	C2753.362,694.318,2744.389,692.345,2738.044,693z"/>
<path display="none" fill="#067B29" d="M2773.044,708c2.378-1.66,11.622-1.66,14,0C2782.377,708,2777.711,708,2773.044,708z"/>
<path display="none" fill="#067B29" d="M2554.044,921c5,0,10,0,15,0C2566.338,922.661,2556.75,922.661,2554.044,921z"/>
<path display="none" fill="#FFFFFF" d="M1476.044,372c14.583-42.084,29.662-83.671,45-125c15.455,40.878,29.529,83.138,44,125
	C1535.377,372,1505.71,372,1476.044,372z"/>
<path display="none" fill="#FFFFFF" d="M2773.044,729c25.5-4.777,38.135,11.941,37,31c-1.74,29.22-41.757,36.631-56,16
	C2742.357,759.072,2751.616,733.015,2773.044,729z"/>
<path display="none" fill="#067B29" d="M1320.044,165c1.665,6.016,1.665,18.984,0,25
	C1320.044,181.667,1320.044,173.333,1320.044,165z"/>
<path display="none" fill="#067B29" d="M2787.044,602c4.682-2.318,13.655-0.345,20-1
	C2802.362,603.318,2793.389,601.345,2787.044,602z"/>
<path display="none" fill="#067B29" d="M2747.044,603c4.682-2.318,13.655-0.345,20-1
	C2762.362,604.318,2753.389,602.345,2747.044,603z"/>
</svg>
