<?xml version="1.0" encoding="utf-8"?>
<!-- Generator: Adobe Illustrator 13.0.0, SVG Export Plug-In  -->
<!DOCTYPE svg PUBLIC "-//W3C//DTD SVG 1.1//EN" "http://www.w3.org/Graphics/SVG/1.1/DTD/svg11.dtd" [
	<!ENTITY ns_flows "http://ns.adobe.com/Flows/1.0/">
]>
<svg version="1.1"
	 xmlns="http://www.w3.org/2000/svg" xmlns:xlink="http://www.w3.org/1999/xlink" xmlns:a="http://ns.adobe.com/AdobeSVGViewerExtensions/3.0/"
	 x="0px" y="0px" width="1000px" height="1000px" viewBox="0 0 1000 1000" enable-background="new 0 0 1000 1000"
	 xml:space="preserve">
<defs>
</defs>
<path fill-rule="evenodd" clip-rule="evenodd" fill="#D7D7D7" d="M624,172c-80,1.667-167,1.667-247,0
	C459.333,172,541.666,172,624,172z"/>
<path fill-rule="evenodd" clip-rule="evenodd" fill="#F1F1F1" d="M456,198c27.668-1.667,62.332-1.667,90,0C516,198,486,198,456,198z
	"/>
<path fill-rule="evenodd" clip-rule="evenodd" fill="#F1F1F1" d="M455,211c30.333,0,60.667,0,91,0
	C517.999,212.667,483.001,212.667,455,211z"/>
<path fill-rule="evenodd" clip-rule="evenodd" fill="#A1A1A1" d="M685,218c1.667,187.669,1.667,382.328,0,570
	C685,597.998,685,408.002,685,218z"/>
<path fill-rule="evenodd" clip-rule="evenodd" fill="#636363" d="M316,221c0,188.004,0,375.998,0,564
	C314.333,599.332,314.333,406.667,316,221z"/>
<path fill-rule="evenodd" clip-rule="evenodd" fill="#D7D7D7" d="M378,233c79.333-1.667,165.666-1.667,245,0c-0.333,0-0.667,0-1,0
	c-81,0-162,0-243,0C378.667,233,378.333,233,378,233z"/>
<path fill-rule="evenodd" clip-rule="evenodd" fill="#636363" d="M379,233c81,0,162,0,243,0
	C543.334,234.667,457.666,234.667,379,233z"/>
<path fill-rule="evenodd" clip-rule="evenodd" fill="#A1A1A1" d="M358,730c-1.667-157.997-1.667-323.003,0-481
	C358,409.336,358,569.665,358,730z"/>
<path fill-rule="evenodd" clip-rule="evenodd" fill="#A1A1A1" d="M644,726c-1.667-155.33-1.667-317.669,0-473
	C644,410.67,644,568.332,644,726z"/>
<path fill-rule="evenodd" clip-rule="evenodd" fill="#F1F1F1" d="M644,253c1.667,155.666,1.667,318.333,0,474c0-0.333,0-0.667,0-1
	C644,568.332,644,410.67,644,253z"/>
<path fill-rule="evenodd" clip-rule="evenodd" fill="#636363" d="M0,479c1.666,11.34,1.666,29.66,0,41C0,506.333,0,492.667,0,479z"
	/>
<path fill-rule="evenodd" clip-rule="evenodd" fill="#D7D7D7" d="M999,530c0-3.333,0-6.667,0-10c0.333,0,0.667,0,1,0
	c0,3.333,0,6.667,0,10C999.667,530,999.333,530,999,530z"/>
<path fill-rule="evenodd" clip-rule="evenodd" fill="#636363" d="M380,746c78.333-1.667,163.667-1.667,242,0
	c-80.333,0-160.667,0-241,0C380.667,746,380.333,746,380,746z"/>
<path fill-rule="evenodd" clip-rule="evenodd" fill="#A1A1A1" d="M623,746c-78.333,1.667-163.667,1.667-242,0
	c80.333,0,160.667,0,241,0C622.333,746,622.667,746,623,746z"/>
<path fill-rule="evenodd" clip-rule="evenodd" fill="#A1A1A1" d="M455,775c28.001-1.666,62.999-1.666,91,0
	C515.667,775,485.333,775,455,775z"/>
<path fill-rule="evenodd" clip-rule="evenodd" fill="#D7D7D7" d="M551,780c1.663,4.357,1.663,15.643,0,20c0-0.667,0-1.333,0-2
	c0-5.333,0-10.667,0-16C551,781.333,551,780.667,551,780z"/>
<path fill-rule="evenodd" clip-rule="evenodd" fill="#636363" d="M551,782c0,5.333,0,10.667,0,16
	C549.339,794.965,549.339,785.035,551,782z"/>
<path fill-rule="evenodd" clip-rule="evenodd" fill="#F1F1F1" d="M456,805c30,0,60,0,90,0C518.332,806.666,483.668,806.666,456,805z
	"/>
<path fill-rule="evenodd" clip-rule="evenodd" fill="#D7D7D7" d="M377,834c80.334-1.667,167.666-1.667,248,0
	C542.334,834,459.667,834,377,834z"/>
<path fill-rule="evenodd" clip-rule="evenodd" fill="#D7D7D7" d="M520,1000c0-0.333,0-0.667,0-1c3.333,0,6.667,0,10,0
	c0,0.333,0,0.667,0,1C526.667,1000,523.333,1000,520,1000z"/>
<path fill-rule="evenodd" clip-rule="evenodd" fill="#D7D7D7" d="M149,144c3.248-4.085,6.915-7.752,11-11
	C156.752,137.085,153.085,140.752,149,144z"/>
<path fill-rule="evenodd" clip-rule="evenodd" fill="#D7D7D7" d="M133,160c3.248-4.085,6.915-7.752,11-11
	C140.752,153.085,137.085,156.752,133,160z"/>
<path fill-rule="evenodd" clip-rule="evenodd" fill="#A1A1A1" d="M840,134c8.75,7.917,17.084,16.25,25,25
	C856.25,151.083,847.916,142.75,840,134z"/>
<path fill-rule="evenodd" clip-rule="evenodd" fill="#D7D7D7" d="M842,864c6.916-7.75,14.25-15.084,22-22
	C857.084,849.75,849.75,857.084,842,864z"/>
<path fill-rule="evenodd" clip-rule="evenodd" fill="#A1A1A1" d="M134,840c8.75,7.916,17.083,16.25,25,25
	C150.25,857.084,141.917,848.75,134,840z"/>
<path fill-rule="evenodd" clip-rule="evenodd" fill="#4D4D4D" d="M547,199c5.713,1.308,4.863,11.505-1,12c-30.333,0-60.667,0-91,0
	c-4.99-1.65-6.799-9.901-1-12C485,199,516,199,547,199z"/>
<path display="none" fill-rule="evenodd" clip-rule="evenodd" fill="#FFFFFF" d="M0,477C0,318.001,0,158.998,0,0
	c156.002,0,311.996,0,468,0c0,0.333,0,0.667,0,1c-136.712,9.954-229.799,63.535-308,132c-4.085,3.248-7.752,6.915-11,11
	c-1.242,2.092-2.908,3.758-5,5c-4.085,3.248-7.752,6.915-11,11C62.74,239.74,9.018,336.017,0,477z"/>
<path display="none" fill-rule="evenodd" clip-rule="evenodd" fill="#FFFFFF" d="M0,522c9.136,141.532,62.65,238.683,134,318
	c7.917,8.75,16.25,17.084,25,25c76.622,68.713,169.111,121.554,303,133c3.365,2.968,13.635-0.968,17,2c-159.669,0-319.328,0-479,0
	C0,840.665,0,681.337,0,522z"/>
<path fill-rule="evenodd" clip-rule="evenodd" fill="#4D4D4D" d="M546,775c3.405-0.072,3.725,2.941,5,5c0,0.667,0,1.333,0,2
	c-1.661,3.035-1.661,12.965,0,16c0,0.667,0,1.333,0,2c-1.241,2.092-2.908,3.759-5,5c-30,0-60,0-90,0c-1.479-0.521-2.521-1.479-4-2
	c-0.19-0.81-1.003-0.997-1-2c0-7.333,0-14.667,0-22c0.591-2.076,1.924-3.409,4-4C485.333,775,515.667,775,546,775z"/>
<path fill-rule="evenodd" clip-rule="evenodd" fill="#636363" d="M451,801c-1.664-5.021-1.664-16.979,0-22
	C451,786.333,451,793.667,451,801z"/>
<path fill-rule="evenodd" clip-rule="evenodd" fill="#636363" d="M625,834c0.667,0,1.333,0,2,0c-81.333,1.667-169.667,1.667-251,0
	c0.333,0,0.667,0,1,0C459.667,834,542.334,834,625,834z"/>
<path display="none" fill-rule="evenodd" clip-rule="evenodd" fill="#FFFFFF" d="M530,999c138.208-10.793,233.343-64.655,312-135
	c7.75-6.916,15.084-14.25,22-22c70.345-78.656,124.207-173.792,135-312c0.333,0,0.667,0,1,0c0,156.665,0,313.337,0,470
	c-156.665,0-313.337,0-470,0C530,999.667,530,999.333,530,999z"/>
<path display="none" fill-rule="evenodd" clip-rule="evenodd" fill="#FFFFFF" d="M531,0c156.332,0,312.668,0,469,0
	c0,159.669,0,319.328,0,479c-0.333,0-0.667,0-1,0c-7.79-143.542-62.633-240.038-134-320c-7.916-8.75-16.25-17.083-25-25
	C762.204,64.46,668.251,11.087,531,1C531,0.667,531,0.333,531,0z"/>
<path fill-rule="evenodd" clip-rule="evenodd" fill="#FFFFFF" d="M377,172c80,1.667,167,1.667,247,0
	c33.995,1.672,55.467,15.866,61,46c0,190.002,0,379.998,0,570c-5.358,29.308-26.367,42.966-58,46c-0.667,0-1.333,0-2,0
	c-80.334-1.667-167.666-1.667-248,0c-0.333,0-0.667,0-1,0c-33.637-2.696-55.849-16.818-60-49c0-188.002,0-375.996,0-564
	C320.363,188.696,342.426,174.092,377,172z M456,198c-0.776,0.224-1.973,0.027-2,1c-5.799,2.099-3.99,10.35,1,12
	c28.001,1.667,62.999,1.667,91,0c5.863-0.495,6.713-10.692,1-12c-0.057-0.61-0.149-1.184-1-1
	C518.332,196.333,483.668,196.333,456,198z M378,233c-10.079,1.921-17.989,6.011-20,16c-1.667,157.997-1.667,323.003,0,481
	c2.033,10.634,10.15,15.183,22,16c0.333,0,0.667,0,1,0c78.333,1.667,163.667,1.667,242,0c11.891-1.442,19.765-6.902,21-19
	c1.667-155.667,1.667-318.334,0-474c-1.012-12.654-9.072-18.261-21-20C543.666,231.333,457.333,231.333,378,233z M455,775
	c-2.076,0.591-3.409,1.924-4,4c-1.664,5.021-1.664,16.979,0,22c-0.003,1.003,0.81,1.19,1,2c1.479,0.521,2.521,1.479,4,2
	c27.668,1.666,62.332,1.666,90,0c2.092-1.241,3.759-2.908,5-5c1.663-4.357,1.663-15.643,0-20c-1.275-2.059-1.595-5.072-5-5
	C517.999,773.334,483.001,773.334,455,775z"/>
<path fill-rule="evenodd" clip-rule="evenodd" fill="#4D4D4D" d="M160,133C238.201,64.535,331.288,10.954,468,1c21,0,42,0,63,0
	c137.251,10.087,231.204,63.46,309,133c7.916,8.75,16.25,17.083,25,25c71.367,79.962,126.21,176.458,134,320c0,13.667,0,27.333,0,41
	c0,3.333,0,6.667,0,10c-10.793,138.208-64.655,233.344-135,312c-7.75,6.916-15.084,14.25-22,22
	c-78.657,70.345-173.792,124.207-312,135c-3.333,0-6.667,0-10,0c-20.171,0.504-38.79-0.543-58-1
	c-133.889-11.446-226.378-64.287-303-133c-7.917-8.75-16.25-17.084-25-25C62.65,760.683,9.136,663.532,0,522c0-0.667,0-1.333,0-2
	c1.666-11.34,1.666-29.66,0-41c0-0.667,0-1.333,0-2c9.018-140.983,62.74-237.26,133-317c4.085-3.248,7.752-6.915,11-11
	c2.092-1.242,3.758-2.908,5-5C153.085,140.752,156.752,137.085,160,133z M377,172c-34.574,2.092-56.637,16.696-61,49
	c-1.667,185.667-1.667,378.332,0,564c4.151,32.182,26.363,46.304,60,49c81.333,1.667,169.667,1.667,251,0
	c31.633-3.034,52.642-16.692,58-46c1.667-187.672,1.667-382.331,0-570c-5.533-30.134-27.005-44.328-61-46
	C541.666,172,459.333,172,377,172z"/>
<path fill-rule="evenodd" clip-rule="evenodd" fill="#4D4D4D" d="M378,233c0.333,0,0.667,0,1,0c78.666,1.667,164.334,1.667,243,0
	c0.333,0,0.667,0,1,0c11.928,1.739,19.988,7.346,21,20c-1.667,155.331-1.667,317.67,0,473c0,0.333,0,0.667,0,1
	c-1.235,12.098-9.109,17.558-21,19c-0.333,0-0.667,0-1,0c-78.333-1.667-163.667-1.667-242,0c-11.85-0.817-19.967-5.366-22-16
	c0-160.335,0-320.664,0-481C360.011,239.011,367.921,234.921,378,233z"/>
<path fill-rule="evenodd" clip-rule="evenodd" fill="#636363" d="M468,0c21,0,42,0,63,0c0,0.333,0,0.667,0,1c-21,0-42,0-63,0
	C468,0.667,468,0.333,468,0z"/>
<path fill-rule="evenodd" clip-rule="evenodd" fill="#636363" d="M454,199c0.027-0.973,1.224-0.776,2-1c30,0,60,0,90,0
	c0.851-0.184,0.943,0.39,1,1C516,199,485,199,454,199z"/>
<path fill-rule="evenodd" clip-rule="evenodd" fill="#636363" d="M1000,479c0,13.667,0,27.333,0,41c-0.333,0-0.667,0-1,0
	c0-13.667,0-27.333,0-41C999.333,479,999.667,479,1000,479z"/>
<path fill-rule="evenodd" clip-rule="evenodd" fill="#636363" d="M462,998c19.21,0.457,37.829,1.504,58,1c0,0.333,0,0.667,0,1
	c-13.667,0-27.333,0-41,0C475.635,997.032,465.365,1000.968,462,998z"/>
</svg>
